<?xml version="1.0" encoding="UTF-8" standalone="no"?>
<!DOCTYPE svg PUBLIC "-//W3C//DTD SVG 1.1//EN" "http://www.w3.org/Graphics/SVG/1.1/DTD/svg11.dtd">
<svg width="473px" height="390px" version="1.1" xmlns="http://www.w3.org/2000/svg" xmlns:xlink="http://www.w3.org/1999/xlink" xml:space="preserve" xmlns:serif="http://www.serif.com/" style="fill-rule:evenodd;clip-rule:evenodd;stroke-linecap:round;stroke-linejoin:round;stroke-miterlimit:1.5;">
    <g transform="matrix(1,0,0,1,-117.311,-49.729)">
        <path d="M533.851,425.267C535.635,425.767 537.549,425.239 538.824,423.895C540.098,422.55 540.524,420.611 539.93,418.856C528.708,386.48 487.871,273.169 436.309,183.194C396.025,112.901 367.37,75.686 357.457,63.541C356.501,62.443 355.114,61.816 353.658,61.824C352.202,61.833 350.823,62.476 349.88,63.585C340.113,75.78 311.877,113.001 271.313,183.036C219.706,272.137 178.569,386.913 167.463,419.12C166.879,420.854 167.289,422.768 168.531,424.111C169.774,425.453 171.651,426.01 173.425,425.561C246.419,407.372 319.218,404.686 353.772,404.686C387.086,404.686 469.62,408.004 533.851,425.267Z" style="stroke:black;stroke-width:1px;"/>
    </g>
</svg>
