<?xml version="1.0" encoding="UTF-8" standalone="no"?>
<!DOCTYPE svg PUBLIC "-//W3C//DTD SVG 1.1//EN" "http://www.w3.org/Graphics/SVG/1.1/DTD/svg11.dtd">
<svg width="100%" height="100%" viewBox="0 0 900 450" version="1.1" xmlns="http://www.w3.org/2000/svg" xmlns:xlink="http://www.w3.org/1999/xlink" xml:space="preserve" xmlns:serif="http://www.serif.com/" style="fill-rule:evenodd;clip-rule:evenodd;stroke-linecap:round;stroke-linejoin:round;stroke-miterlimit:1.5;">
    <path d="M479.082,251.614C480.802,250.596 482.867,250.335 484.786,250.896C486.705,251.456 488.306,252.787 489.207,254.571C490.317,256.778 491.478,259.075 492.326,260.731C499.131,274.012 506.199,287.088 513.478,299.655C564.333,387.457 596.141,423.841 596.141,423.841C596.141,423.841 627.619,387.615 678.474,299.813C739.111,195.122 785.292,54.986 785.292,54.986C709.37,75.253 631.978,78.163 596.015,78.163C561.094,78.163 472.093,74.517 406.78,54.986C406.78,54.986 429.361,123.608 463.715,200.693C464.262,201.92 465.013,203.592 465.753,205.234C467.262,208.593 466.085,212.55 462.986,214.538C462.846,214.628 462.704,214.719 462.563,214.81C460.856,215.904 458.768,216.234 456.807,215.718C454.845,215.201 453.19,213.887 452.243,212.093C451.341,210.377 450.439,208.667 449.755,207.388C445.364,199.173 440.878,191.083 436.309,183.194C385.454,95.392 353.646,59.007 353.646,59.007C353.646,59.007 322.168,95.233 271.313,183.036C210.676,287.726 164.495,427.863 164.495,427.863C240.417,407.596 317.809,404.686 353.772,404.686C388.693,404.686 477.694,408.332 543.007,427.863C543.007,427.863 517.569,350.559 479.615,267.88C478.71,265.909 477.372,263.032 476.184,260.485C474.703,257.302 475.875,253.515 478.895,251.725C478.958,251.688 479.02,251.651 479.082,251.614Z" style="fill:none;stroke:black;stroke-width:1px;"/>
</svg>
