<?xml version="1.0" encoding="UTF-8" standalone="no"?>
<!DOCTYPE svg PUBLIC "-//W3C//DTD SVG 1.1//EN" "http://www.w3.org/Graphics/SVG/1.1/DTD/svg11.dtd">
<svg width="473px" height="390px" version="1.1" xmlns="http://www.w3.org/2000/svg" xmlns:xlink="http://www.w3.org/1999/xlink" xml:space="preserve" xmlns:serif="http://www.serif.com/" style="fill-rule:evenodd;clip-rule:evenodd;stroke-linecap:round;stroke-linejoin:round;stroke-miterlimit:1.5;">
    <g transform="matrix(1,0,0,1,-117.311,-49.729)">
        <path d="M533.851,425.267C535.635,425.767 537.549,425.239 538.824,423.895C540.098,422.55 540.524,420.611 539.93,418.856C528.708,386.48 487.871,273.169 436.309,183.194C396.025,112.901 367.37,75.686 357.457,63.541C356.501,62.443 355.114,61.816 353.658,61.824C352.202,61.833 350.823,62.476 349.88,63.585C340.113,75.78 311.877,113.001 271.313,183.036C219.706,272.137 178.569,386.913 167.463,419.12C166.879,420.854 167.289,422.768 168.531,424.111C169.774,425.453 171.651,426.01 173.425,425.561C246.419,407.372 319.218,404.686 353.772,404.686C387.086,404.686 469.62,408.004 533.851,425.267Z" style="fill:none;stroke:black;stroke-width:1px;"/>
    </g>
    <g transform="matrix(0.862367,0,0,0.862367,-68.5787,-16.9344)">
        <path d="M532.406,424.882C534.474,425.455 536.689,424.838 538.163,423.278C539.637,421.718 540.127,419.471 539.437,417.439C527.554,383.289 487.143,271.9 436.309,183.194C396.827,114.3 368.516,77.181 358.071,64.296C356.963,63.018 355.351,62.288 353.66,62.297C351.968,62.307 350.365,63.055 349.272,64.346C338.979,77.281 311.066,114.4 271.313,183.036C220.421,270.902 179.712,383.736 167.942,417.734C167.263,419.742 167.735,421.961 169.173,423.519C170.611,425.077 172.785,425.726 174.841,425.211C247.359,407.338 319.441,404.686 353.772,404.686C386.837,404.686 468.387,407.954 532.406,424.882Z" style="fill:none;stroke:black;stroke-width:1.16px;"/>
    </g>
</svg>
