<?xml version="1.0" encoding="UTF-8" standalone="no"?>
<!DOCTYPE svg PUBLIC "-//W3C//DTD SVG 1.1//EN" "http://www.w3.org/Graphics/SVG/1.1/DTD/svg11.dtd">
<svg width="100%" height="100%" viewBox="0 0 900 450" version="1.1" xmlns="http://www.w3.org/2000/svg" xmlns:xlink="http://www.w3.org/1999/xlink" xml:space="preserve" xmlns:serif="http://www.serif.com/" style="fill-rule:evenodd;clip-rule:evenodd;stroke-linecap:round;stroke-linejoin:round;stroke-miterlimit:1.5;">
    <path d="M473.564,254.884L484.882,245.761L484.921,245.994C493.954,264.315 503.52,282.461 513.478,299.655C554.031,369.671 582.473,406.991 592.331,419.237C593.282,420.35 594.673,420.99 596.137,420.988C597.601,420.986 598.99,420.342 599.938,419.227C609.732,406.992 637.952,369.776 678.474,299.813C730.081,210.712 771.217,95.936 782.324,63.729C782.908,61.995 782.498,60.081 781.255,58.738C780.013,57.395 778.136,56.839 776.362,57.288C703.368,75.477 630.569,78.163 596.015,78.163C562.697,78.163 480.15,74.844 415.916,57.576C414.134,57.077 412.222,57.604 410.947,58.945C409.672,60.287 409.244,62.224 409.834,63.978C417.494,86.215 439.065,146.66 468.39,211.071L455.9,219.084C449.577,206.846 443.032,194.803 436.309,183.194C395.755,113.178 367.314,75.858 357.456,63.611C356.505,62.499 355.114,61.859 353.65,61.861C352.186,61.863 350.797,62.507 349.849,63.622C340.055,75.857 311.835,113.072 271.313,183.036C219.706,272.137 178.569,386.913 167.463,419.12C166.879,420.854 167.289,422.768 168.531,424.111C169.774,425.453 171.651,426.01 173.425,425.561C246.419,407.372 319.218,404.686 353.772,404.686C387.09,404.686 469.637,408.005 533.871,425.272C535.653,425.772 537.565,425.245 538.84,423.904C540.115,422.562 540.543,420.625 539.953,418.871C531.626,394.698 506.86,325.373 473.564,254.884Z" style="fill:none;stroke:black;stroke-width:1px;"/>
</svg>
