M48
; DRILL file {KiCad 5.1.5-1.fc31} date Thu 06 Feb 2020 18:04:15 GMT
; FORMAT={-:-/ absolute / inch / decimal}
; #@! TF.CreationDate,2020-02-06T18:04:15+00:00
; #@! TF.GenerationSoftware,Kicad,Pcbnew,5.1.5-1.fc31
; #@! TF.FileFunction,Plated,1,2,PTH
FMAT,2
INCH
T1C0.0157
T2C0.0177
T3C0.0394
%
G90
G05
T1
X8.04Y-5.65
X8.1Y-5.68
X8.12Y-5.5
X8.15Y-5.65
X8.21Y-5.83
X8.2483Y-5.3383
X8.37Y-5.31
X8.43Y-5.35
X8.44Y-5.89
X8.52Y-5.17
X8.54Y-4.9
X8.54Y-5.24
X8.57Y-5.64
X8.5756Y-4.8547
X8.59Y-5.26
X8.59Y-5.46
X8.61Y-4.64
X8.61Y-4.94
X8.61Y-5.56
X8.69Y-5.76
X8.7Y-5.5
X8.75Y-5.2
X8.94Y-5.55
X8.95Y-5.7
X8.98Y-5.46
X9.015Y-5.69
X9.095Y-5.925
X9.44Y-4.87
X9.51Y-5.47
X9.62Y-5.95
X9.69Y-5.47
X9.816Y-4.855
X9.93Y-5.45
X9.9372Y-5.3036
T3
X9.52Y-4.76
X9.62Y-4.76
X9.72Y-4.76
X8.515Y-5.88
X8.615Y-5.88
X8.715Y-5.88
T2
G00X9.1565Y-5.6727
M15
G01X9.1857Y-5.6609
M16
G05
G00X9.2911Y-5.9219
M15
G01X9.2619Y-5.9337
M16
G05
T0
M30
