G04 #@! TF.GenerationSoftware,KiCad,Pcbnew,5.1.5-1.fc31*
G04 #@! TF.CreationDate,2020-02-06T18:04:09+00:00*
G04 #@! TF.ProjectId,CatEars,43617445-6172-4732-9e6b-696361645f70,rev?*
G04 #@! TF.SameCoordinates,Original*
G04 #@! TF.FileFunction,Soldermask,Bot*
G04 #@! TF.FilePolarity,Negative*
%FSLAX46Y46*%
G04 Gerber Fmt 4.6, Leading zero omitted, Abs format (unit mm)*
G04 Created by KiCad (PCBNEW 5.1.5-1.fc31) date 2020-02-06 18:04:09*
%MOMM*%
%LPD*%
G04 APERTURE LIST*
%ADD10C,0.200642*%
%ADD11C,0.100000*%
G04 APERTURE END LIST*
D10*
X217337322Y-120201594D02*
X217347643Y-120176505D01*
X219608205Y-120266677D02*
X219102449Y-121448822D01*
X219733853Y-119619778D02*
X219738619Y-119645388D01*
X219630592Y-119416072D02*
X219644243Y-119431740D01*
X219551464Y-119348940D02*
X219568594Y-119360846D01*
X219701190Y-119521580D02*
X219711500Y-119545429D01*
X218755563Y-119688830D02*
X218795974Y-119617693D01*
X219689360Y-119498255D02*
X219701190Y-119521580D01*
X219148114Y-119284628D02*
X219168269Y-119279471D01*
X219585116Y-119373520D02*
X219600986Y-119386954D01*
X218585039Y-121244387D02*
X218319861Y-121154569D01*
X218566929Y-120092821D02*
X218565208Y-120105762D01*
X218242167Y-119872952D02*
X218303719Y-119894354D01*
X219128266Y-119290723D02*
X219148114Y-119284628D01*
X219739784Y-119832832D02*
X219731345Y-119888032D01*
X219731345Y-119888032D02*
X219719778Y-119943481D01*
X217386998Y-120103559D02*
X217402706Y-120080216D01*
X219251080Y-119268060D02*
X219272112Y-119267469D01*
X218046291Y-119826130D02*
X218112317Y-119838395D01*
X217497881Y-119973436D02*
X217519806Y-119954481D01*
X218414396Y-119943179D02*
X218461248Y-119969711D01*
X217801361Y-119820891D02*
X217857446Y-119814738D01*
X217402706Y-120080216D02*
X217419606Y-120057456D01*
X218072406Y-121067535D02*
X218014301Y-121045009D01*
X217376827Y-120569720D02*
X217362554Y-120543061D01*
X217314053Y-120407742D02*
X217310617Y-120381997D01*
X219085272Y-121448850D02*
X219029114Y-121420656D01*
X219029114Y-121420656D02*
X218970487Y-121393344D01*
X218970487Y-121393344D02*
X218847117Y-121341107D01*
X219209323Y-119271938D02*
X219230136Y-119269546D01*
X217784035Y-120937818D02*
X217728808Y-120906256D01*
X219738619Y-119645388D02*
X219742131Y-119671354D01*
X218795974Y-119617693D02*
X218839211Y-119548894D01*
X219711500Y-119545429D02*
X219720346Y-119569767D01*
X219070996Y-119314715D02*
X219089664Y-119305759D01*
X218587302Y-120057077D02*
X218627490Y-119958307D01*
X219272112Y-119267469D02*
X219314271Y-119268950D01*
X218562784Y-120117005D02*
X218565835Y-120111358D01*
X218565835Y-120111358D02*
X218587302Y-120057077D01*
X217408731Y-120620878D02*
X217376827Y-120569720D01*
X219600986Y-119386954D02*
X219616158Y-119401142D01*
X218014301Y-121045009D02*
X217956051Y-121020873D01*
X217309493Y-120330190D02*
X217311682Y-120304248D01*
X217519806Y-119954481D02*
X217542551Y-119936465D01*
X218544518Y-120038654D02*
X218554229Y-120052445D01*
X219742131Y-119671354D02*
X219744439Y-119697646D01*
X217746529Y-119833194D02*
X217773846Y-119826277D01*
X217444810Y-120669241D02*
X217408731Y-120620878D01*
X217326987Y-120458623D02*
X217319489Y-120433303D01*
X219356259Y-119273926D02*
X219397730Y-119282329D01*
X217456733Y-120013923D02*
X217476834Y-119993271D01*
X219644243Y-119431740D02*
X219660941Y-119453302D01*
X219035147Y-119335547D02*
X219035147Y-119335547D01*
X218565208Y-120105762D02*
X218562784Y-120117005D01*
X219744675Y-119778144D02*
X219739784Y-119832832D01*
X218565208Y-120105762D02*
X218565208Y-120105762D01*
X219168269Y-119279471D02*
X219188686Y-119275244D01*
X218718245Y-119760382D02*
X218755563Y-119688830D01*
X219314271Y-119268950D02*
X219356259Y-119273926D01*
X218532301Y-120024789D02*
X218544518Y-120038654D01*
X219188686Y-119275244D02*
X219209323Y-119271938D01*
X219745598Y-119724231D02*
X219744675Y-119778144D01*
X218627490Y-119958307D02*
X218684283Y-119830429D01*
X219568594Y-119360846D02*
X219585116Y-119373520D01*
X217326987Y-120458623D02*
X217326987Y-120458623D01*
X219052810Y-119324642D02*
X219070996Y-119314715D01*
X217590248Y-119903483D02*
X217615077Y-119888635D01*
X217675237Y-120872588D02*
X217623681Y-120836719D01*
X218847117Y-121341107D02*
X218717767Y-121291627D01*
X217528054Y-120757977D02*
X217484704Y-120714908D01*
X218192617Y-121110961D02*
X218072406Y-121067535D01*
X217666381Y-119862522D02*
X217692734Y-119851375D01*
X217615077Y-119888635D02*
X217640475Y-119874962D01*
X219727780Y-119594560D02*
X219733853Y-119619778D01*
X217566053Y-119919446D02*
X217590248Y-119903483D01*
X219438334Y-119294097D02*
X219477724Y-119309164D01*
X219675961Y-119475485D02*
X219689360Y-119498255D01*
X217310617Y-120381997D02*
X217309117Y-120356126D01*
X217362554Y-120543061D02*
X217349460Y-120515667D01*
X217437636Y-120035338D02*
X217456733Y-120013923D01*
X217419606Y-120057456D02*
X217437636Y-120035338D01*
X219397730Y-119282329D02*
X219438334Y-119294097D01*
X218983246Y-119375759D02*
X219008992Y-119354279D01*
X217857446Y-119814738D02*
X217917720Y-119813857D01*
X217359405Y-120151764D02*
X217372543Y-120127429D01*
X218500929Y-119997063D02*
X218532301Y-120024789D01*
X219719778Y-119943481D02*
X219705501Y-119998917D01*
X219650625Y-120162507D02*
X219608205Y-120266677D01*
X217728808Y-120906256D02*
X217675237Y-120872588D01*
X219008992Y-119354279D02*
X219035147Y-119335547D01*
X217840558Y-120967376D02*
X217784035Y-120937818D01*
X219515550Y-119327467D02*
X219533767Y-119337811D01*
X218554229Y-120052445D02*
X218561297Y-120066107D01*
X219644243Y-119431740D02*
X219644243Y-119431740D01*
X219616158Y-119401142D02*
X219630592Y-119416072D01*
X218684283Y-119830429D02*
X218718245Y-119760382D01*
X218717767Y-121291627D02*
X218585039Y-121244387D01*
X217574499Y-120798548D02*
X217528054Y-120757977D01*
X219496854Y-119317915D02*
X219515550Y-119327467D01*
X217347643Y-120176505D02*
X217359405Y-120151764D01*
X219688935Y-120054074D02*
X219670504Y-120108693D01*
X217692734Y-119851375D02*
X217719470Y-119841579D01*
X219720346Y-119569767D02*
X219727780Y-119594560D01*
X217319489Y-120433303D02*
X217314053Y-120407742D01*
X219108768Y-119297764D02*
X219128266Y-119290723D01*
X218303719Y-119894354D02*
X218361507Y-119917911D01*
X217956051Y-121020873D02*
X217898018Y-120995029D01*
X217349460Y-120515667D02*
X217337588Y-120487525D01*
X217315621Y-120278358D02*
X217321249Y-120252579D01*
X217981047Y-119817803D02*
X218046291Y-119826130D01*
X217372543Y-120127429D02*
X217386998Y-120103559D01*
X218561297Y-120066107D02*
X218565576Y-120079584D01*
X217328503Y-120226972D02*
X217337322Y-120201594D01*
X217484704Y-120714908D02*
X217444810Y-120669241D01*
X217898018Y-120995029D02*
X217840558Y-120967376D01*
X217337588Y-120487525D02*
X217326987Y-120458623D01*
X217640475Y-119874962D02*
X217666381Y-119862522D01*
X217801361Y-119820891D02*
X217801361Y-119820891D01*
X217476834Y-119993271D02*
X217497881Y-119973436D01*
X219533767Y-119337811D02*
X219551464Y-119348940D01*
X218908792Y-119454287D02*
X218933112Y-119426003D01*
X219744439Y-119697646D02*
X219745598Y-119724231D01*
X218461248Y-119969711D02*
X218500929Y-119997063D01*
X218933112Y-119426003D02*
X218957942Y-119399748D01*
X218319861Y-121154569D02*
X218192617Y-121110961D01*
X218839211Y-119548894D02*
X218885013Y-119484356D01*
X219670504Y-120108693D02*
X219650625Y-120162507D01*
X218112317Y-119838395D02*
X218177987Y-119854151D01*
X217542551Y-119936465D02*
X217566053Y-119919446D01*
X218072406Y-121067535D02*
X218072406Y-121067535D01*
X219705501Y-119998917D02*
X219688935Y-120054074D01*
X219608205Y-120266677D02*
X219608205Y-120266677D01*
X218177987Y-119854151D02*
X218242167Y-119872952D01*
X218361507Y-119917911D02*
X218414396Y-119943179D01*
X219089664Y-119305759D02*
X219108768Y-119297764D01*
X217311682Y-120304248D02*
X217315621Y-120278358D01*
X219035147Y-119335547D02*
X219052810Y-119324642D01*
X217719470Y-119841579D02*
X217746529Y-119833194D01*
X217309117Y-120356126D02*
X217309493Y-120330190D01*
X219660941Y-119453302D02*
X219675961Y-119475485D01*
X219230136Y-119269546D02*
X219251080Y-119268060D01*
X218565576Y-120079584D02*
X218566929Y-120092821D01*
X217623681Y-120836719D02*
X217574499Y-120798548D01*
X218885013Y-119484356D02*
X218908792Y-119454287D01*
X219477724Y-119309164D02*
X219496854Y-119317915D01*
X217321249Y-120252579D02*
X217328503Y-120226972D01*
X218957942Y-119399748D02*
X218983246Y-119375759D01*
X217917720Y-119813857D02*
X217981047Y-119817803D01*
X217773846Y-119826277D02*
X217801361Y-119820891D01*
D11*
G36*
X212569074Y-150253716D02*
G01*
X212593956Y-150261264D01*
X212616886Y-150273521D01*
X212636985Y-150290015D01*
X212653479Y-150310114D01*
X212665736Y-150333044D01*
X212673284Y-150357926D01*
X212676800Y-150393626D01*
X212676800Y-151708374D01*
X212673284Y-151744074D01*
X212665736Y-151768956D01*
X212653479Y-151791886D01*
X212636985Y-151811985D01*
X212616886Y-151828479D01*
X212593956Y-151840736D01*
X212569074Y-151848284D01*
X212533374Y-151851800D01*
X209318626Y-151851800D01*
X209282926Y-151848284D01*
X209258044Y-151840736D01*
X209235114Y-151828479D01*
X209215015Y-151811985D01*
X209198521Y-151791886D01*
X209186264Y-151768956D01*
X209178716Y-151744074D01*
X209175200Y-151708374D01*
X209175200Y-150393626D01*
X209178716Y-150357926D01*
X209186264Y-150333044D01*
X209198521Y-150310114D01*
X209215015Y-150290015D01*
X209235114Y-150273521D01*
X209258044Y-150261264D01*
X209282926Y-150253716D01*
X209318626Y-150250200D01*
X212533374Y-150250200D01*
X212569074Y-150253716D01*
G37*
G36*
X236117357Y-149838514D02*
G01*
X236135716Y-149840484D01*
X236206015Y-149862481D01*
X236243963Y-149874355D01*
X236343523Y-149928693D01*
X236430568Y-150001410D01*
X236501755Y-150089711D01*
X236554347Y-150190204D01*
X236586324Y-150299026D01*
X236596456Y-150411995D01*
X236587088Y-150499291D01*
X236584354Y-150524771D01*
X236550484Y-150633017D01*
X236550483Y-150633018D01*
X236496145Y-150732577D01*
X236423428Y-150819622D01*
X236335127Y-150890809D01*
X236259819Y-150930221D01*
X235419256Y-151269831D01*
X235337706Y-151293794D01*
X235224738Y-151303926D01*
X235124064Y-151293123D01*
X235111962Y-151291824D01*
X235003718Y-151257954D01*
X235003715Y-151257953D01*
X234904155Y-151203615D01*
X234817110Y-151130898D01*
X234745923Y-151042597D01*
X234693331Y-150942104D01*
X234661354Y-150833282D01*
X234651222Y-150720314D01*
X234663324Y-150607539D01*
X234689223Y-150524770D01*
X234697194Y-150499294D01*
X234697195Y-150499291D01*
X234751533Y-150399731D01*
X234824250Y-150312686D01*
X234912551Y-150241499D01*
X234987860Y-150202087D01*
X235828421Y-149862477D01*
X235909971Y-149838514D01*
X236022940Y-149828382D01*
X236117357Y-149838514D01*
G37*
G36*
X232301651Y-146225390D02*
G01*
X232074490Y-146317169D01*
X232039753Y-146335349D01*
X232009230Y-146359956D01*
X231984094Y-146390045D01*
X231965311Y-146424459D01*
X231953603Y-146461877D01*
X231949420Y-146500860D01*
X231952922Y-146539910D01*
X231963975Y-146577525D01*
X232010174Y-146691871D01*
X232205597Y-147175560D01*
X232449087Y-147778220D01*
X232449090Y-147778229D01*
X232598335Y-148147621D01*
X232673256Y-148333057D01*
X232853039Y-148778034D01*
X232936076Y-148983559D01*
X232936079Y-148983567D01*
X233069098Y-149312800D01*
X233083450Y-149348324D01*
X233101630Y-149383061D01*
X233126237Y-149413584D01*
X233156326Y-149438720D01*
X233190740Y-149457503D01*
X233228158Y-149469211D01*
X233267141Y-149473394D01*
X233306191Y-149469892D01*
X233343807Y-149458839D01*
X233570968Y-149367060D01*
X234039826Y-150527523D01*
X232601208Y-151108762D01*
X232408995Y-150633018D01*
X232153551Y-150000773D01*
X232135373Y-149966040D01*
X232110766Y-149935517D01*
X232080677Y-149910381D01*
X232046263Y-149891598D01*
X232008845Y-149879890D01*
X231969862Y-149875707D01*
X231930812Y-149879209D01*
X231893198Y-149890261D01*
X231712394Y-149963311D01*
X231678690Y-149879890D01*
X231524491Y-149498236D01*
X231449574Y-149312809D01*
X231449571Y-149312800D01*
X231300326Y-148943408D01*
X231182712Y-148652303D01*
X231037502Y-148292897D01*
X230962585Y-148107470D01*
X230962582Y-148107461D01*
X230719087Y-147504791D01*
X230550514Y-147087558D01*
X230731316Y-147014509D01*
X230766053Y-146996329D01*
X230796576Y-146971722D01*
X230821712Y-146941633D01*
X230840495Y-146907219D01*
X230852203Y-146869801D01*
X230856386Y-146830818D01*
X230852884Y-146791768D01*
X230841831Y-146754152D01*
X230394175Y-145646166D01*
X231832793Y-145064927D01*
X232301651Y-146225390D01*
G37*
G36*
X221623754Y-148485817D02*
G01*
X221787689Y-148553721D01*
X221935227Y-148652303D01*
X222060697Y-148777773D01*
X222159279Y-148925311D01*
X222227183Y-149089246D01*
X222261800Y-149263279D01*
X222261800Y-149440721D01*
X222227183Y-149614754D01*
X222159279Y-149778689D01*
X222060697Y-149926227D01*
X221935227Y-150051697D01*
X221787689Y-150150279D01*
X221623754Y-150218183D01*
X221449721Y-150252800D01*
X221272279Y-150252800D01*
X221098246Y-150218183D01*
X220934311Y-150150279D01*
X220786773Y-150051697D01*
X220661303Y-149926227D01*
X220562721Y-149778689D01*
X220494817Y-149614754D01*
X220460200Y-149440721D01*
X220460200Y-149263279D01*
X220494817Y-149089246D01*
X220562721Y-148925311D01*
X220661303Y-148777773D01*
X220786773Y-148652303D01*
X220934311Y-148553721D01*
X221098246Y-148485817D01*
X221272279Y-148451200D01*
X221449721Y-148451200D01*
X221623754Y-148485817D01*
G37*
G36*
X219083754Y-148485817D02*
G01*
X219247689Y-148553721D01*
X219395227Y-148652303D01*
X219520697Y-148777773D01*
X219619279Y-148925311D01*
X219687183Y-149089246D01*
X219721800Y-149263279D01*
X219721800Y-149440721D01*
X219687183Y-149614754D01*
X219619279Y-149778689D01*
X219520697Y-149926227D01*
X219395227Y-150051697D01*
X219247689Y-150150279D01*
X219083754Y-150218183D01*
X218909721Y-150252800D01*
X218732279Y-150252800D01*
X218558246Y-150218183D01*
X218394311Y-150150279D01*
X218246773Y-150051697D01*
X218121303Y-149926227D01*
X218022721Y-149778689D01*
X217954817Y-149614754D01*
X217920200Y-149440721D01*
X217920200Y-149263279D01*
X217954817Y-149089246D01*
X218022721Y-148925311D01*
X218121303Y-148777773D01*
X218246773Y-148652303D01*
X218394311Y-148553721D01*
X218558246Y-148485817D01*
X218732279Y-148451200D01*
X218909721Y-148451200D01*
X219083754Y-148485817D01*
G37*
G36*
X217181800Y-150252800D02*
G01*
X215380200Y-150252800D01*
X215380200Y-148451200D01*
X217181800Y-148451200D01*
X217181800Y-150252800D01*
G37*
G36*
X235212247Y-146875825D02*
G01*
X235980684Y-148777773D01*
X235980789Y-148778035D01*
X234124938Y-149527847D01*
X233980818Y-149171137D01*
X233356396Y-147625638D01*
X233205356Y-147251800D01*
X232835116Y-146335425D01*
X232588452Y-145724910D01*
X232588452Y-145724909D01*
X234444303Y-144975097D01*
X235212247Y-146875825D01*
G37*
G36*
X206835428Y-148154519D02*
G01*
X206868155Y-148164447D01*
X206898310Y-148180565D01*
X206924742Y-148202258D01*
X206946435Y-148228690D01*
X206962553Y-148258845D01*
X206972481Y-148291572D01*
X206976800Y-148335425D01*
X206976800Y-149066575D01*
X206972481Y-149110428D01*
X206962553Y-149143155D01*
X206946435Y-149173310D01*
X206924742Y-149199742D01*
X206898310Y-149221435D01*
X206868155Y-149237553D01*
X206835428Y-149247481D01*
X206791575Y-149251800D01*
X203560425Y-149251800D01*
X203516572Y-149247481D01*
X203483845Y-149237553D01*
X203453690Y-149221435D01*
X203427258Y-149199742D01*
X203405565Y-149173310D01*
X203389447Y-149143155D01*
X203379519Y-149110428D01*
X203375200Y-149066575D01*
X203375200Y-148335425D01*
X203379519Y-148291572D01*
X203389447Y-148258845D01*
X203405565Y-148228690D01*
X203427258Y-148202258D01*
X203453690Y-148180565D01*
X203483845Y-148164447D01*
X203516572Y-148154519D01*
X203560425Y-148150200D01*
X206791575Y-148150200D01*
X206835428Y-148154519D01*
G37*
G36*
X206835428Y-146154519D02*
G01*
X206868155Y-146164447D01*
X206898310Y-146180565D01*
X206924742Y-146202258D01*
X206946435Y-146228690D01*
X206962553Y-146258845D01*
X206972481Y-146291572D01*
X206976800Y-146335425D01*
X206976800Y-147066575D01*
X206972481Y-147110428D01*
X206962553Y-147143155D01*
X206946435Y-147173310D01*
X206924742Y-147199742D01*
X206898310Y-147221435D01*
X206868155Y-147237553D01*
X206835428Y-147247481D01*
X206791575Y-147251800D01*
X203560425Y-147251800D01*
X203516572Y-147247481D01*
X203483845Y-147237553D01*
X203453690Y-147221435D01*
X203427258Y-147199742D01*
X203405565Y-147173310D01*
X203389447Y-147143155D01*
X203379519Y-147110428D01*
X203375200Y-147066575D01*
X203375200Y-146335425D01*
X203379519Y-146291572D01*
X203389447Y-146258845D01*
X203405565Y-146228690D01*
X203427258Y-146202258D01*
X203453690Y-146180565D01*
X203483845Y-146164447D01*
X203516572Y-146154519D01*
X203560425Y-146150200D01*
X206791575Y-146150200D01*
X206835428Y-146154519D01*
G37*
G36*
X221946800Y-145689800D02*
G01*
X215695200Y-145689800D01*
X215695200Y-143988200D01*
X221946800Y-143988200D01*
X221946800Y-145689800D01*
G37*
G36*
X212569074Y-143553716D02*
G01*
X212593956Y-143561264D01*
X212616886Y-143573521D01*
X212636985Y-143590015D01*
X212653479Y-143610114D01*
X212665736Y-143633044D01*
X212673284Y-143657926D01*
X212676800Y-143693626D01*
X212676800Y-145008374D01*
X212673284Y-145044074D01*
X212665736Y-145068956D01*
X212653479Y-145091886D01*
X212636985Y-145111985D01*
X212616886Y-145128479D01*
X212593956Y-145140736D01*
X212569074Y-145148284D01*
X212533374Y-145151800D01*
X209318626Y-145151800D01*
X209282926Y-145148284D01*
X209258044Y-145140736D01*
X209235114Y-145128479D01*
X209215015Y-145111985D01*
X209198521Y-145091886D01*
X209186264Y-145068956D01*
X209178716Y-145044074D01*
X209175200Y-145008374D01*
X209175200Y-143693626D01*
X209178716Y-143657926D01*
X209186264Y-143633044D01*
X209198521Y-143610114D01*
X209215015Y-143590015D01*
X209235114Y-143573521D01*
X209258044Y-143561264D01*
X209282926Y-143553716D01*
X209318626Y-143550200D01*
X212533374Y-143550200D01*
X212569074Y-143553716D01*
G37*
G36*
X233438920Y-143209150D02*
G01*
X233457279Y-143211120D01*
X233527578Y-143233117D01*
X233565526Y-143244991D01*
X233665086Y-143299329D01*
X233752131Y-143372046D01*
X233823318Y-143460347D01*
X233875910Y-143560840D01*
X233907887Y-143669662D01*
X233918019Y-143782631D01*
X233908651Y-143869927D01*
X233905917Y-143895407D01*
X233872047Y-144003653D01*
X233872046Y-144003654D01*
X233817708Y-144103213D01*
X233744991Y-144190258D01*
X233656690Y-144261445D01*
X233581382Y-144300857D01*
X232740819Y-144640467D01*
X232659269Y-144664430D01*
X232546301Y-144674562D01*
X232445627Y-144663759D01*
X232433525Y-144662460D01*
X232325281Y-144628590D01*
X232325278Y-144628589D01*
X232225718Y-144574251D01*
X232138673Y-144501534D01*
X232067486Y-144413233D01*
X232014894Y-144312740D01*
X231982917Y-144203918D01*
X231972785Y-144090950D01*
X231984887Y-143978175D01*
X232010786Y-143895406D01*
X232018757Y-143869930D01*
X232018758Y-143869927D01*
X232073096Y-143770367D01*
X232145813Y-143683322D01*
X232234114Y-143612135D01*
X232309423Y-143572723D01*
X233149984Y-143233113D01*
X233231534Y-143209150D01*
X233344503Y-143199018D01*
X233438920Y-143209150D01*
G37*
G36*
X215421800Y-143714800D02*
G01*
X213720200Y-143714800D01*
X213720200Y-137463200D01*
X215421800Y-137463200D01*
X215421800Y-143714800D01*
G37*
G36*
X223921800Y-143714800D02*
G01*
X222220200Y-143714800D01*
X222220200Y-137463200D01*
X223921800Y-137463200D01*
X223921800Y-143714800D01*
G37*
G36*
X207932662Y-140186367D02*
G01*
X207932664Y-140186368D01*
X207932665Y-140186368D01*
X208032899Y-140227885D01*
X208123114Y-140288165D01*
X208199835Y-140364886D01*
X208260115Y-140455101D01*
X208301632Y-140555335D01*
X208322800Y-140661751D01*
X208322800Y-140770249D01*
X208301632Y-140876665D01*
X208260115Y-140976899D01*
X208199835Y-141067114D01*
X208123114Y-141143835D01*
X208032899Y-141204115D01*
X207932665Y-141245632D01*
X207932664Y-141245632D01*
X207932662Y-141245633D01*
X207826249Y-141266800D01*
X207717751Y-141266800D01*
X207611338Y-141245633D01*
X207611336Y-141245632D01*
X207611335Y-141245632D01*
X207511101Y-141204115D01*
X207420886Y-141143835D01*
X207344165Y-141067114D01*
X207283885Y-140976899D01*
X207242368Y-140876665D01*
X207221200Y-140770249D01*
X207221200Y-140661751D01*
X207242368Y-140555335D01*
X207283885Y-140455101D01*
X207344165Y-140364886D01*
X207420886Y-140288165D01*
X207511101Y-140227885D01*
X207611335Y-140186368D01*
X207611336Y-140186368D01*
X207611338Y-140186367D01*
X207717751Y-140165200D01*
X207826249Y-140165200D01*
X207932662Y-140186367D01*
G37*
G36*
X210980662Y-140186367D02*
G01*
X210980664Y-140186368D01*
X210980665Y-140186368D01*
X211080899Y-140227885D01*
X211171114Y-140288165D01*
X211247835Y-140364886D01*
X211308115Y-140455101D01*
X211349632Y-140555335D01*
X211370800Y-140661751D01*
X211370800Y-140770249D01*
X211349632Y-140876665D01*
X211308115Y-140976899D01*
X211247835Y-141067114D01*
X211171114Y-141143835D01*
X211080899Y-141204115D01*
X210980665Y-141245632D01*
X210980664Y-141245632D01*
X210980662Y-141245633D01*
X210874249Y-141266800D01*
X210765751Y-141266800D01*
X210659338Y-141245633D01*
X210659336Y-141245632D01*
X210659335Y-141245632D01*
X210559101Y-141204115D01*
X210468886Y-141143835D01*
X210392165Y-141067114D01*
X210331885Y-140976899D01*
X210290368Y-140876665D01*
X210269200Y-140770249D01*
X210269200Y-140661751D01*
X210290368Y-140555335D01*
X210331885Y-140455101D01*
X210392165Y-140364886D01*
X210468886Y-140288165D01*
X210559101Y-140227885D01*
X210659335Y-140186368D01*
X210659336Y-140186368D01*
X210659338Y-140186367D01*
X210765751Y-140165200D01*
X210874249Y-140165200D01*
X210980662Y-140186367D01*
G37*
G36*
X227470491Y-138987279D02*
G01*
X227500869Y-138996494D01*
X227528865Y-139011458D01*
X227553403Y-139031597D01*
X227573542Y-139056135D01*
X227588506Y-139084131D01*
X227597721Y-139114509D01*
X227601800Y-139155926D01*
X227601800Y-139962074D01*
X227597721Y-140003491D01*
X227588506Y-140033869D01*
X227573542Y-140061865D01*
X227553403Y-140086403D01*
X227528865Y-140106542D01*
X227500869Y-140121506D01*
X227470491Y-140130721D01*
X227429074Y-140134800D01*
X226722926Y-140134800D01*
X226681509Y-140130721D01*
X226651131Y-140121506D01*
X226623135Y-140106542D01*
X226598597Y-140086403D01*
X226578458Y-140061865D01*
X226563494Y-140033869D01*
X226554279Y-140003491D01*
X226550200Y-139962074D01*
X226550200Y-139155926D01*
X226554279Y-139114509D01*
X226563494Y-139084131D01*
X226578458Y-139056135D01*
X226598597Y-139031597D01*
X226623135Y-139011458D01*
X226651131Y-138996494D01*
X226681509Y-138987279D01*
X226722926Y-138983200D01*
X227429074Y-138983200D01*
X227470491Y-138987279D01*
G37*
G36*
X227470491Y-137237279D02*
G01*
X227500869Y-137246494D01*
X227528865Y-137261458D01*
X227553403Y-137281597D01*
X227573542Y-137306135D01*
X227588506Y-137334131D01*
X227597721Y-137364509D01*
X227601800Y-137405926D01*
X227601800Y-138212074D01*
X227597721Y-138253491D01*
X227588506Y-138283869D01*
X227573542Y-138311865D01*
X227553403Y-138336403D01*
X227528865Y-138356542D01*
X227500869Y-138371506D01*
X227470491Y-138380721D01*
X227429074Y-138384800D01*
X226722926Y-138384800D01*
X226681509Y-138380721D01*
X226651131Y-138371506D01*
X226623135Y-138356542D01*
X226598597Y-138336403D01*
X226578458Y-138311865D01*
X226563494Y-138283869D01*
X226554279Y-138253491D01*
X226550200Y-138212074D01*
X226550200Y-137405926D01*
X226554279Y-137364509D01*
X226563494Y-137334131D01*
X226578458Y-137306135D01*
X226598597Y-137281597D01*
X226623135Y-137261458D01*
X226651131Y-137246494D01*
X226681509Y-137237279D01*
X226722926Y-137233200D01*
X227429074Y-137233200D01*
X227470491Y-137237279D01*
G37*
G36*
X221946800Y-137189800D02*
G01*
X215695200Y-137189800D01*
X215695200Y-135488200D01*
X221946800Y-135488200D01*
X221946800Y-137189800D01*
G37*
G36*
X231707062Y-134496767D02*
G01*
X231707064Y-134496768D01*
X231707065Y-134496768D01*
X231807299Y-134538285D01*
X231897514Y-134598565D01*
X231974235Y-134675286D01*
X232034515Y-134765501D01*
X232076032Y-134865735D01*
X232097200Y-134972151D01*
X232097200Y-135080649D01*
X232076032Y-135187065D01*
X232034515Y-135287299D01*
X231974235Y-135377514D01*
X231897514Y-135454235D01*
X231807299Y-135514515D01*
X231707065Y-135556032D01*
X231707064Y-135556032D01*
X231707062Y-135556033D01*
X231600649Y-135577200D01*
X231492151Y-135577200D01*
X231385738Y-135556033D01*
X231385736Y-135556032D01*
X231385735Y-135556032D01*
X231285501Y-135514515D01*
X231195286Y-135454235D01*
X231118565Y-135377514D01*
X231058285Y-135287299D01*
X231016768Y-135187065D01*
X230995600Y-135080649D01*
X230995600Y-134972151D01*
X231016768Y-134865735D01*
X231058285Y-134765501D01*
X231118565Y-134675286D01*
X231195286Y-134598565D01*
X231285501Y-134538285D01*
X231385735Y-134496768D01*
X231385736Y-134496768D01*
X231385738Y-134496767D01*
X231492151Y-134475600D01*
X231600649Y-134475600D01*
X231707062Y-134496767D01*
G37*
G36*
X230919662Y-132845767D02*
G01*
X230919664Y-132845768D01*
X230919665Y-132845768D01*
X231019899Y-132887285D01*
X231110114Y-132947565D01*
X231186835Y-133024286D01*
X231247115Y-133114501D01*
X231288632Y-133214735D01*
X231309800Y-133321151D01*
X231309800Y-133429649D01*
X231288632Y-133536065D01*
X231247115Y-133636299D01*
X231186835Y-133726514D01*
X231110114Y-133803235D01*
X231019899Y-133863515D01*
X230919665Y-133905032D01*
X230919664Y-133905032D01*
X230919662Y-133905033D01*
X230813249Y-133926200D01*
X230704751Y-133926200D01*
X230598338Y-133905033D01*
X230598336Y-133905032D01*
X230598335Y-133905032D01*
X230498101Y-133863515D01*
X230407886Y-133803235D01*
X230331165Y-133726514D01*
X230270885Y-133636299D01*
X230229368Y-133536065D01*
X230208200Y-133429649D01*
X230208200Y-133321151D01*
X230229368Y-133214735D01*
X230270885Y-133114501D01*
X230331165Y-133024286D01*
X230407886Y-132947565D01*
X230498101Y-132887285D01*
X230598335Y-132845768D01*
X230598336Y-132845768D01*
X230598338Y-132845767D01*
X230704751Y-132824600D01*
X230813249Y-132824600D01*
X230919662Y-132845767D01*
G37*
G36*
X220470599Y-130825206D02*
G01*
X220500248Y-130834199D01*
X220527577Y-130848807D01*
X220551533Y-130868467D01*
X220571193Y-130892423D01*
X220585801Y-130919752D01*
X220594794Y-130949401D01*
X220598800Y-130990070D01*
X220598800Y-132153930D01*
X220594794Y-132194599D01*
X220585801Y-132224248D01*
X220571193Y-132251577D01*
X220551533Y-132275533D01*
X220527577Y-132295193D01*
X220500248Y-132309801D01*
X220470599Y-132318794D01*
X220429930Y-132322800D01*
X219516070Y-132322800D01*
X219475401Y-132318794D01*
X219445752Y-132309801D01*
X219418423Y-132295193D01*
X219394467Y-132275533D01*
X219374807Y-132251577D01*
X219360199Y-132224248D01*
X219351206Y-132194599D01*
X219347200Y-132153930D01*
X219347200Y-130990070D01*
X219351206Y-130949401D01*
X219360199Y-130919752D01*
X219374807Y-130892423D01*
X219394467Y-130868467D01*
X219418423Y-130848807D01*
X219445752Y-130834199D01*
X219475401Y-130825206D01*
X219516070Y-130821200D01*
X220429930Y-130821200D01*
X220470599Y-130825206D01*
G37*
G36*
X218420599Y-130825206D02*
G01*
X218450248Y-130834199D01*
X218477577Y-130848807D01*
X218501533Y-130868467D01*
X218521193Y-130892423D01*
X218535801Y-130919752D01*
X218544794Y-130949401D01*
X218548800Y-130990070D01*
X218548800Y-132153930D01*
X218544794Y-132194599D01*
X218535801Y-132224248D01*
X218521193Y-132251577D01*
X218501533Y-132275533D01*
X218477577Y-132295193D01*
X218450248Y-132309801D01*
X218420599Y-132318794D01*
X218379930Y-132322800D01*
X217466070Y-132322800D01*
X217425401Y-132318794D01*
X217395752Y-132309801D01*
X217368423Y-132295193D01*
X217344467Y-132275533D01*
X217324807Y-132251577D01*
X217310199Y-132224248D01*
X217301206Y-132194599D01*
X217297200Y-132153930D01*
X217297200Y-130990070D01*
X217301206Y-130949401D01*
X217310199Y-130919752D01*
X217324807Y-130892423D01*
X217344467Y-130868467D01*
X217368423Y-130848807D01*
X217395752Y-130834199D01*
X217425401Y-130825206D01*
X217466070Y-130821200D01*
X218379930Y-130821200D01*
X218420599Y-130825206D01*
G37*
G36*
X245870599Y-130063206D02*
G01*
X245900248Y-130072199D01*
X245927577Y-130086807D01*
X245951533Y-130106467D01*
X245971193Y-130130423D01*
X245985801Y-130157752D01*
X245994794Y-130187401D01*
X245998800Y-130228070D01*
X245998800Y-131391930D01*
X245994794Y-131432599D01*
X245985801Y-131462248D01*
X245971193Y-131489577D01*
X245951533Y-131513533D01*
X245927577Y-131533193D01*
X245900248Y-131547801D01*
X245870599Y-131556794D01*
X245829930Y-131560800D01*
X244916070Y-131560800D01*
X244875401Y-131556794D01*
X244845752Y-131547801D01*
X244818423Y-131533193D01*
X244794467Y-131513533D01*
X244774807Y-131489577D01*
X244760199Y-131462248D01*
X244751206Y-131432599D01*
X244747200Y-131391930D01*
X244747200Y-130228070D01*
X244751206Y-130187401D01*
X244760199Y-130157752D01*
X244774807Y-130130423D01*
X244794467Y-130106467D01*
X244818423Y-130086807D01*
X244845752Y-130072199D01*
X244875401Y-130063206D01*
X244916070Y-130059200D01*
X245829930Y-130059200D01*
X245870599Y-130063206D01*
G37*
G36*
X243820599Y-130063206D02*
G01*
X243850248Y-130072199D01*
X243877577Y-130086807D01*
X243901533Y-130106467D01*
X243921193Y-130130423D01*
X243935801Y-130157752D01*
X243944794Y-130187401D01*
X243948800Y-130228070D01*
X243948800Y-131391930D01*
X243944794Y-131432599D01*
X243935801Y-131462248D01*
X243921193Y-131489577D01*
X243901533Y-131513533D01*
X243877577Y-131533193D01*
X243850248Y-131547801D01*
X243820599Y-131556794D01*
X243779930Y-131560800D01*
X242866070Y-131560800D01*
X242825401Y-131556794D01*
X242795752Y-131547801D01*
X242768423Y-131533193D01*
X242744467Y-131513533D01*
X242724807Y-131489577D01*
X242710199Y-131462248D01*
X242701206Y-131432599D01*
X242697200Y-131391930D01*
X242697200Y-130228070D01*
X242701206Y-130187401D01*
X242710199Y-130157752D01*
X242724807Y-130130423D01*
X242744467Y-130106467D01*
X242768423Y-130086807D01*
X242795752Y-130072199D01*
X242825401Y-130063206D01*
X242866070Y-130059200D01*
X243779930Y-130059200D01*
X243820599Y-130063206D01*
G37*
G36*
X220470599Y-128031206D02*
G01*
X220500248Y-128040199D01*
X220527577Y-128054807D01*
X220551533Y-128074467D01*
X220571193Y-128098423D01*
X220585801Y-128125752D01*
X220594794Y-128155401D01*
X220598800Y-128196070D01*
X220598800Y-129359930D01*
X220594794Y-129400599D01*
X220585801Y-129430248D01*
X220571193Y-129457577D01*
X220551533Y-129481533D01*
X220527577Y-129501193D01*
X220500248Y-129515801D01*
X220470599Y-129524794D01*
X220429930Y-129528800D01*
X219516070Y-129528800D01*
X219475401Y-129524794D01*
X219445752Y-129515801D01*
X219418423Y-129501193D01*
X219394467Y-129481533D01*
X219374807Y-129457577D01*
X219360199Y-129430248D01*
X219351206Y-129400599D01*
X219347200Y-129359930D01*
X219347200Y-128196070D01*
X219351206Y-128155401D01*
X219360199Y-128125752D01*
X219374807Y-128098423D01*
X219394467Y-128074467D01*
X219418423Y-128054807D01*
X219445752Y-128040199D01*
X219475401Y-128031206D01*
X219516070Y-128027200D01*
X220429930Y-128027200D01*
X220470599Y-128031206D01*
G37*
G36*
X218420599Y-128031206D02*
G01*
X218450248Y-128040199D01*
X218477577Y-128054807D01*
X218501533Y-128074467D01*
X218521193Y-128098423D01*
X218535801Y-128125752D01*
X218544794Y-128155401D01*
X218548800Y-128196070D01*
X218548800Y-129359930D01*
X218544794Y-129400599D01*
X218535801Y-129430248D01*
X218521193Y-129457577D01*
X218501533Y-129481533D01*
X218477577Y-129501193D01*
X218450248Y-129515801D01*
X218420599Y-129524794D01*
X218379930Y-129528800D01*
X217466070Y-129528800D01*
X217425401Y-129524794D01*
X217395752Y-129515801D01*
X217368423Y-129501193D01*
X217344467Y-129481533D01*
X217324807Y-129457577D01*
X217310199Y-129430248D01*
X217301206Y-129400599D01*
X217297200Y-129359930D01*
X217297200Y-128196070D01*
X217301206Y-128155401D01*
X217310199Y-128125752D01*
X217324807Y-128098423D01*
X217344467Y-128074467D01*
X217368423Y-128054807D01*
X217395752Y-128040199D01*
X217425401Y-128031206D01*
X217466070Y-128027200D01*
X218379930Y-128027200D01*
X218420599Y-128031206D01*
G37*
G36*
X243820599Y-125491206D02*
G01*
X243850248Y-125500199D01*
X243877577Y-125514807D01*
X243901533Y-125534467D01*
X243921193Y-125558423D01*
X243935801Y-125585752D01*
X243944794Y-125615401D01*
X243948800Y-125656070D01*
X243948800Y-126819930D01*
X243944794Y-126860599D01*
X243935801Y-126890248D01*
X243921193Y-126917577D01*
X243901533Y-126941533D01*
X243877577Y-126961193D01*
X243850248Y-126975801D01*
X243820599Y-126984794D01*
X243779930Y-126988800D01*
X242866070Y-126988800D01*
X242825401Y-126984794D01*
X242795752Y-126975801D01*
X242768423Y-126961193D01*
X242744467Y-126941533D01*
X242724807Y-126917577D01*
X242710199Y-126890248D01*
X242701206Y-126860599D01*
X242697200Y-126819930D01*
X242697200Y-125656070D01*
X242701206Y-125615401D01*
X242710199Y-125585752D01*
X242724807Y-125558423D01*
X242744467Y-125534467D01*
X242768423Y-125514807D01*
X242795752Y-125500199D01*
X242825401Y-125491206D01*
X242866070Y-125487200D01*
X243779930Y-125487200D01*
X243820599Y-125491206D01*
G37*
G36*
X245870599Y-125491206D02*
G01*
X245900248Y-125500199D01*
X245927577Y-125514807D01*
X245951533Y-125534467D01*
X245971193Y-125558423D01*
X245985801Y-125585752D01*
X245994794Y-125615401D01*
X245998800Y-125656070D01*
X245998800Y-126819930D01*
X245994794Y-126860599D01*
X245985801Y-126890248D01*
X245971193Y-126917577D01*
X245951533Y-126941533D01*
X245927577Y-126961193D01*
X245900248Y-126975801D01*
X245870599Y-126984794D01*
X245829930Y-126988800D01*
X244916070Y-126988800D01*
X244875401Y-126984794D01*
X244845752Y-126975801D01*
X244818423Y-126961193D01*
X244794467Y-126941533D01*
X244774807Y-126917577D01*
X244760199Y-126890248D01*
X244751206Y-126860599D01*
X244747200Y-126819930D01*
X244747200Y-125656070D01*
X244751206Y-125615401D01*
X244760199Y-125585752D01*
X244774807Y-125558423D01*
X244794467Y-125534467D01*
X244818423Y-125514807D01*
X244845752Y-125500199D01*
X244875401Y-125491206D01*
X244916070Y-125487200D01*
X245829930Y-125487200D01*
X245870599Y-125491206D01*
G37*
G36*
X247788800Y-121804800D02*
G01*
X245987200Y-121804800D01*
X245987200Y-120003200D01*
X247788800Y-120003200D01*
X247788800Y-121804800D01*
G37*
G36*
X244610754Y-120037817D02*
G01*
X244774689Y-120105721D01*
X244922227Y-120204303D01*
X245047697Y-120329773D01*
X245146279Y-120477311D01*
X245214183Y-120641246D01*
X245248800Y-120815279D01*
X245248800Y-120992721D01*
X245214183Y-121166754D01*
X245146279Y-121330689D01*
X245047697Y-121478227D01*
X244922227Y-121603697D01*
X244774689Y-121702279D01*
X244610754Y-121770183D01*
X244436721Y-121804800D01*
X244259279Y-121804800D01*
X244085246Y-121770183D01*
X243921311Y-121702279D01*
X243773773Y-121603697D01*
X243648303Y-121478227D01*
X243549721Y-121330689D01*
X243481817Y-121166754D01*
X243447200Y-120992721D01*
X243447200Y-120815279D01*
X243481817Y-120641246D01*
X243549721Y-120477311D01*
X243648303Y-120329773D01*
X243773773Y-120204303D01*
X243921311Y-120105721D01*
X244085246Y-120037817D01*
X244259279Y-120003200D01*
X244436721Y-120003200D01*
X244610754Y-120037817D01*
G37*
G36*
X242070754Y-120037817D02*
G01*
X242234689Y-120105721D01*
X242382227Y-120204303D01*
X242507697Y-120329773D01*
X242606279Y-120477311D01*
X242674183Y-120641246D01*
X242708800Y-120815279D01*
X242708800Y-120992721D01*
X242674183Y-121166754D01*
X242606279Y-121330689D01*
X242507697Y-121478227D01*
X242382227Y-121603697D01*
X242234689Y-121702279D01*
X242070754Y-121770183D01*
X241896721Y-121804800D01*
X241719279Y-121804800D01*
X241545246Y-121770183D01*
X241381311Y-121702279D01*
X241233773Y-121603697D01*
X241108303Y-121478227D01*
X241009721Y-121330689D01*
X240941817Y-121166754D01*
X240907200Y-120992721D01*
X240907200Y-120815279D01*
X240941817Y-120641246D01*
X241009721Y-120477311D01*
X241108303Y-120329773D01*
X241233773Y-120204303D01*
X241381311Y-120105721D01*
X241545246Y-120037817D01*
X241719279Y-120003200D01*
X241896721Y-120003200D01*
X242070754Y-120037817D01*
G37*
M02*
