G04 #@! TF.GenerationSoftware,KiCad,Pcbnew,5.1.5-1.fc31*
G04 #@! TF.CreationDate,2020-03-02T06:52:43+00:00*
G04 #@! TF.ProjectId,CatEars,43617445-6172-4732-9e6b-696361645f70,rev?*
G04 #@! TF.SameCoordinates,Original*
G04 #@! TF.FileFunction,Paste,Top*
G04 #@! TF.FilePolarity,Positive*
%FSLAX46Y46*%
G04 Gerber Fmt 4.6, Leading zero omitted, Abs format (unit mm)*
G04 Created by KiCad (PCBNEW 5.1.5-1.fc31) date 2020-03-02 06:52:43*
%MOMM*%
%LPD*%
G04 APERTURE LIST*
%ADD10C,0.100000*%
%ADD11R,1.500000X1.000000*%
%ADD12R,0.900000X0.800000*%
%ADD13R,0.650000X1.060000*%
G04 APERTURE END LIST*
D10*
G36*
X251974779Y-122525144D02*
G01*
X251997834Y-122528563D01*
X252020443Y-122534227D01*
X252042387Y-122542079D01*
X252063457Y-122552044D01*
X252083448Y-122564026D01*
X252102168Y-122577910D01*
X252119438Y-122593562D01*
X252135090Y-122610832D01*
X252148974Y-122629552D01*
X252160956Y-122649543D01*
X252170921Y-122670613D01*
X252178773Y-122692557D01*
X252184437Y-122715166D01*
X252187856Y-122738221D01*
X252189000Y-122761500D01*
X252189000Y-123336500D01*
X252187856Y-123359779D01*
X252184437Y-123382834D01*
X252178773Y-123405443D01*
X252170921Y-123427387D01*
X252160956Y-123448457D01*
X252148974Y-123468448D01*
X252135090Y-123487168D01*
X252119438Y-123504438D01*
X252102168Y-123520090D01*
X252083448Y-123533974D01*
X252063457Y-123545956D01*
X252042387Y-123555921D01*
X252020443Y-123563773D01*
X251997834Y-123569437D01*
X251974779Y-123572856D01*
X251951500Y-123574000D01*
X251476500Y-123574000D01*
X251453221Y-123572856D01*
X251430166Y-123569437D01*
X251407557Y-123563773D01*
X251385613Y-123555921D01*
X251364543Y-123545956D01*
X251344552Y-123533974D01*
X251325832Y-123520090D01*
X251308562Y-123504438D01*
X251292910Y-123487168D01*
X251279026Y-123468448D01*
X251267044Y-123448457D01*
X251257079Y-123427387D01*
X251249227Y-123405443D01*
X251243563Y-123382834D01*
X251240144Y-123359779D01*
X251239000Y-123336500D01*
X251239000Y-122761500D01*
X251240144Y-122738221D01*
X251243563Y-122715166D01*
X251249227Y-122692557D01*
X251257079Y-122670613D01*
X251267044Y-122649543D01*
X251279026Y-122629552D01*
X251292910Y-122610832D01*
X251308562Y-122593562D01*
X251325832Y-122577910D01*
X251344552Y-122564026D01*
X251364543Y-122552044D01*
X251385613Y-122542079D01*
X251407557Y-122534227D01*
X251430166Y-122528563D01*
X251453221Y-122525144D01*
X251476500Y-122524000D01*
X251951500Y-122524000D01*
X251974779Y-122525144D01*
G37*
G36*
X251974779Y-120775144D02*
G01*
X251997834Y-120778563D01*
X252020443Y-120784227D01*
X252042387Y-120792079D01*
X252063457Y-120802044D01*
X252083448Y-120814026D01*
X252102168Y-120827910D01*
X252119438Y-120843562D01*
X252135090Y-120860832D01*
X252148974Y-120879552D01*
X252160956Y-120899543D01*
X252170921Y-120920613D01*
X252178773Y-120942557D01*
X252184437Y-120965166D01*
X252187856Y-120988221D01*
X252189000Y-121011500D01*
X252189000Y-121586500D01*
X252187856Y-121609779D01*
X252184437Y-121632834D01*
X252178773Y-121655443D01*
X252170921Y-121677387D01*
X252160956Y-121698457D01*
X252148974Y-121718448D01*
X252135090Y-121737168D01*
X252119438Y-121754438D01*
X252102168Y-121770090D01*
X252083448Y-121783974D01*
X252063457Y-121795956D01*
X252042387Y-121805921D01*
X252020443Y-121813773D01*
X251997834Y-121819437D01*
X251974779Y-121822856D01*
X251951500Y-121824000D01*
X251476500Y-121824000D01*
X251453221Y-121822856D01*
X251430166Y-121819437D01*
X251407557Y-121813773D01*
X251385613Y-121805921D01*
X251364543Y-121795956D01*
X251344552Y-121783974D01*
X251325832Y-121770090D01*
X251308562Y-121754438D01*
X251292910Y-121737168D01*
X251279026Y-121718448D01*
X251267044Y-121698457D01*
X251257079Y-121677387D01*
X251249227Y-121655443D01*
X251243563Y-121632834D01*
X251240144Y-121609779D01*
X251239000Y-121586500D01*
X251239000Y-121011500D01*
X251240144Y-120988221D01*
X251243563Y-120965166D01*
X251249227Y-120942557D01*
X251257079Y-120920613D01*
X251267044Y-120899543D01*
X251279026Y-120879552D01*
X251292910Y-120860832D01*
X251308562Y-120843562D01*
X251325832Y-120827910D01*
X251344552Y-120814026D01*
X251364543Y-120802044D01*
X251385613Y-120792079D01*
X251407557Y-120784227D01*
X251430166Y-120778563D01*
X251453221Y-120775144D01*
X251476500Y-120774000D01*
X251951500Y-120774000D01*
X251974779Y-120775144D01*
G37*
G36*
X237242779Y-122525144D02*
G01*
X237265834Y-122528563D01*
X237288443Y-122534227D01*
X237310387Y-122542079D01*
X237331457Y-122552044D01*
X237351448Y-122564026D01*
X237370168Y-122577910D01*
X237387438Y-122593562D01*
X237403090Y-122610832D01*
X237416974Y-122629552D01*
X237428956Y-122649543D01*
X237438921Y-122670613D01*
X237446773Y-122692557D01*
X237452437Y-122715166D01*
X237455856Y-122738221D01*
X237457000Y-122761500D01*
X237457000Y-123336500D01*
X237455856Y-123359779D01*
X237452437Y-123382834D01*
X237446773Y-123405443D01*
X237438921Y-123427387D01*
X237428956Y-123448457D01*
X237416974Y-123468448D01*
X237403090Y-123487168D01*
X237387438Y-123504438D01*
X237370168Y-123520090D01*
X237351448Y-123533974D01*
X237331457Y-123545956D01*
X237310387Y-123555921D01*
X237288443Y-123563773D01*
X237265834Y-123569437D01*
X237242779Y-123572856D01*
X237219500Y-123574000D01*
X236744500Y-123574000D01*
X236721221Y-123572856D01*
X236698166Y-123569437D01*
X236675557Y-123563773D01*
X236653613Y-123555921D01*
X236632543Y-123545956D01*
X236612552Y-123533974D01*
X236593832Y-123520090D01*
X236576562Y-123504438D01*
X236560910Y-123487168D01*
X236547026Y-123468448D01*
X236535044Y-123448457D01*
X236525079Y-123427387D01*
X236517227Y-123405443D01*
X236511563Y-123382834D01*
X236508144Y-123359779D01*
X236507000Y-123336500D01*
X236507000Y-122761500D01*
X236508144Y-122738221D01*
X236511563Y-122715166D01*
X236517227Y-122692557D01*
X236525079Y-122670613D01*
X236535044Y-122649543D01*
X236547026Y-122629552D01*
X236560910Y-122610832D01*
X236576562Y-122593562D01*
X236593832Y-122577910D01*
X236612552Y-122564026D01*
X236632543Y-122552044D01*
X236653613Y-122542079D01*
X236675557Y-122534227D01*
X236698166Y-122528563D01*
X236721221Y-122525144D01*
X236744500Y-122524000D01*
X237219500Y-122524000D01*
X237242779Y-122525144D01*
G37*
G36*
X237242779Y-120775144D02*
G01*
X237265834Y-120778563D01*
X237288443Y-120784227D01*
X237310387Y-120792079D01*
X237331457Y-120802044D01*
X237351448Y-120814026D01*
X237370168Y-120827910D01*
X237387438Y-120843562D01*
X237403090Y-120860832D01*
X237416974Y-120879552D01*
X237428956Y-120899543D01*
X237438921Y-120920613D01*
X237446773Y-120942557D01*
X237452437Y-120965166D01*
X237455856Y-120988221D01*
X237457000Y-121011500D01*
X237457000Y-121586500D01*
X237455856Y-121609779D01*
X237452437Y-121632834D01*
X237446773Y-121655443D01*
X237438921Y-121677387D01*
X237428956Y-121698457D01*
X237416974Y-121718448D01*
X237403090Y-121737168D01*
X237387438Y-121754438D01*
X237370168Y-121770090D01*
X237351448Y-121783974D01*
X237331457Y-121795956D01*
X237310387Y-121805921D01*
X237288443Y-121813773D01*
X237265834Y-121819437D01*
X237242779Y-121822856D01*
X237219500Y-121824000D01*
X236744500Y-121824000D01*
X236721221Y-121822856D01*
X236698166Y-121819437D01*
X236675557Y-121813773D01*
X236653613Y-121805921D01*
X236632543Y-121795956D01*
X236612552Y-121783974D01*
X236593832Y-121770090D01*
X236576562Y-121754438D01*
X236560910Y-121737168D01*
X236547026Y-121718448D01*
X236535044Y-121698457D01*
X236525079Y-121677387D01*
X236517227Y-121655443D01*
X236511563Y-121632834D01*
X236508144Y-121609779D01*
X236507000Y-121586500D01*
X236507000Y-121011500D01*
X236508144Y-120988221D01*
X236511563Y-120965166D01*
X236517227Y-120942557D01*
X236525079Y-120920613D01*
X236535044Y-120899543D01*
X236547026Y-120879552D01*
X236560910Y-120860832D01*
X236576562Y-120843562D01*
X236593832Y-120827910D01*
X236612552Y-120814026D01*
X236632543Y-120802044D01*
X236653613Y-120792079D01*
X236675557Y-120784227D01*
X236698166Y-120778563D01*
X236721221Y-120775144D01*
X236744500Y-120774000D01*
X237219500Y-120774000D01*
X237242779Y-120775144D01*
G37*
D11*
X254344000Y-120574000D03*
X254344000Y-123774000D03*
X259244000Y-120574000D03*
X259244000Y-123774000D03*
X241898000Y-143942000D03*
X241898000Y-147142000D03*
X246798000Y-143942000D03*
X246798000Y-147142000D03*
D10*
G36*
X246640779Y-134463144D02*
G01*
X246663834Y-134466563D01*
X246686443Y-134472227D01*
X246708387Y-134480079D01*
X246729457Y-134490044D01*
X246749448Y-134502026D01*
X246768168Y-134515910D01*
X246785438Y-134531562D01*
X246801090Y-134548832D01*
X246814974Y-134567552D01*
X246826956Y-134587543D01*
X246836921Y-134608613D01*
X246844773Y-134630557D01*
X246850437Y-134653166D01*
X246853856Y-134676221D01*
X246855000Y-134699500D01*
X246855000Y-135274500D01*
X246853856Y-135297779D01*
X246850437Y-135320834D01*
X246844773Y-135343443D01*
X246836921Y-135365387D01*
X246826956Y-135386457D01*
X246814974Y-135406448D01*
X246801090Y-135425168D01*
X246785438Y-135442438D01*
X246768168Y-135458090D01*
X246749448Y-135471974D01*
X246729457Y-135483956D01*
X246708387Y-135493921D01*
X246686443Y-135501773D01*
X246663834Y-135507437D01*
X246640779Y-135510856D01*
X246617500Y-135512000D01*
X246142500Y-135512000D01*
X246119221Y-135510856D01*
X246096166Y-135507437D01*
X246073557Y-135501773D01*
X246051613Y-135493921D01*
X246030543Y-135483956D01*
X246010552Y-135471974D01*
X245991832Y-135458090D01*
X245974562Y-135442438D01*
X245958910Y-135425168D01*
X245945026Y-135406448D01*
X245933044Y-135386457D01*
X245923079Y-135365387D01*
X245915227Y-135343443D01*
X245909563Y-135320834D01*
X245906144Y-135297779D01*
X245905000Y-135274500D01*
X245905000Y-134699500D01*
X245906144Y-134676221D01*
X245909563Y-134653166D01*
X245915227Y-134630557D01*
X245923079Y-134608613D01*
X245933044Y-134587543D01*
X245945026Y-134567552D01*
X245958910Y-134548832D01*
X245974562Y-134531562D01*
X245991832Y-134515910D01*
X246010552Y-134502026D01*
X246030543Y-134490044D01*
X246051613Y-134480079D01*
X246073557Y-134472227D01*
X246096166Y-134466563D01*
X246119221Y-134463144D01*
X246142500Y-134462000D01*
X246617500Y-134462000D01*
X246640779Y-134463144D01*
G37*
G36*
X246640779Y-132713144D02*
G01*
X246663834Y-132716563D01*
X246686443Y-132722227D01*
X246708387Y-132730079D01*
X246729457Y-132740044D01*
X246749448Y-132752026D01*
X246768168Y-132765910D01*
X246785438Y-132781562D01*
X246801090Y-132798832D01*
X246814974Y-132817552D01*
X246826956Y-132837543D01*
X246836921Y-132858613D01*
X246844773Y-132880557D01*
X246850437Y-132903166D01*
X246853856Y-132926221D01*
X246855000Y-132949500D01*
X246855000Y-133524500D01*
X246853856Y-133547779D01*
X246850437Y-133570834D01*
X246844773Y-133593443D01*
X246836921Y-133615387D01*
X246826956Y-133636457D01*
X246814974Y-133656448D01*
X246801090Y-133675168D01*
X246785438Y-133692438D01*
X246768168Y-133708090D01*
X246749448Y-133721974D01*
X246729457Y-133733956D01*
X246708387Y-133743921D01*
X246686443Y-133751773D01*
X246663834Y-133757437D01*
X246640779Y-133760856D01*
X246617500Y-133762000D01*
X246142500Y-133762000D01*
X246119221Y-133760856D01*
X246096166Y-133757437D01*
X246073557Y-133751773D01*
X246051613Y-133743921D01*
X246030543Y-133733956D01*
X246010552Y-133721974D01*
X245991832Y-133708090D01*
X245974562Y-133692438D01*
X245958910Y-133675168D01*
X245945026Y-133656448D01*
X245933044Y-133636457D01*
X245923079Y-133615387D01*
X245915227Y-133593443D01*
X245909563Y-133570834D01*
X245906144Y-133547779D01*
X245905000Y-133524500D01*
X245905000Y-132949500D01*
X245906144Y-132926221D01*
X245909563Y-132903166D01*
X245915227Y-132880557D01*
X245923079Y-132858613D01*
X245933044Y-132837543D01*
X245945026Y-132817552D01*
X245958910Y-132798832D01*
X245974562Y-132781562D01*
X245991832Y-132765910D01*
X246010552Y-132752026D01*
X246030543Y-132740044D01*
X246051613Y-132730079D01*
X246073557Y-132722227D01*
X246096166Y-132716563D01*
X246119221Y-132713144D01*
X246142500Y-132712000D01*
X246617500Y-132712000D01*
X246640779Y-132713144D01*
G37*
G36*
X245533779Y-141258144D02*
G01*
X245556834Y-141261563D01*
X245579443Y-141267227D01*
X245601387Y-141275079D01*
X245622457Y-141285044D01*
X245642448Y-141297026D01*
X245661168Y-141310910D01*
X245678438Y-141326562D01*
X245694090Y-141343832D01*
X245707974Y-141362552D01*
X245719956Y-141382543D01*
X245729921Y-141403613D01*
X245737773Y-141425557D01*
X245743437Y-141448166D01*
X245746856Y-141471221D01*
X245748000Y-141494500D01*
X245748000Y-141969500D01*
X245746856Y-141992779D01*
X245743437Y-142015834D01*
X245737773Y-142038443D01*
X245729921Y-142060387D01*
X245719956Y-142081457D01*
X245707974Y-142101448D01*
X245694090Y-142120168D01*
X245678438Y-142137438D01*
X245661168Y-142153090D01*
X245642448Y-142166974D01*
X245622457Y-142178956D01*
X245601387Y-142188921D01*
X245579443Y-142196773D01*
X245556834Y-142202437D01*
X245533779Y-142205856D01*
X245510500Y-142207000D01*
X244935500Y-142207000D01*
X244912221Y-142205856D01*
X244889166Y-142202437D01*
X244866557Y-142196773D01*
X244844613Y-142188921D01*
X244823543Y-142178956D01*
X244803552Y-142166974D01*
X244784832Y-142153090D01*
X244767562Y-142137438D01*
X244751910Y-142120168D01*
X244738026Y-142101448D01*
X244726044Y-142081457D01*
X244716079Y-142060387D01*
X244708227Y-142038443D01*
X244702563Y-142015834D01*
X244699144Y-141992779D01*
X244698000Y-141969500D01*
X244698000Y-141494500D01*
X244699144Y-141471221D01*
X244702563Y-141448166D01*
X244708227Y-141425557D01*
X244716079Y-141403613D01*
X244726044Y-141382543D01*
X244738026Y-141362552D01*
X244751910Y-141343832D01*
X244767562Y-141326562D01*
X244784832Y-141310910D01*
X244803552Y-141297026D01*
X244823543Y-141285044D01*
X244844613Y-141275079D01*
X244866557Y-141267227D01*
X244889166Y-141261563D01*
X244912221Y-141258144D01*
X244935500Y-141257000D01*
X245510500Y-141257000D01*
X245533779Y-141258144D01*
G37*
G36*
X243783779Y-141258144D02*
G01*
X243806834Y-141261563D01*
X243829443Y-141267227D01*
X243851387Y-141275079D01*
X243872457Y-141285044D01*
X243892448Y-141297026D01*
X243911168Y-141310910D01*
X243928438Y-141326562D01*
X243944090Y-141343832D01*
X243957974Y-141362552D01*
X243969956Y-141382543D01*
X243979921Y-141403613D01*
X243987773Y-141425557D01*
X243993437Y-141448166D01*
X243996856Y-141471221D01*
X243998000Y-141494500D01*
X243998000Y-141969500D01*
X243996856Y-141992779D01*
X243993437Y-142015834D01*
X243987773Y-142038443D01*
X243979921Y-142060387D01*
X243969956Y-142081457D01*
X243957974Y-142101448D01*
X243944090Y-142120168D01*
X243928438Y-142137438D01*
X243911168Y-142153090D01*
X243892448Y-142166974D01*
X243872457Y-142178956D01*
X243851387Y-142188921D01*
X243829443Y-142196773D01*
X243806834Y-142202437D01*
X243783779Y-142205856D01*
X243760500Y-142207000D01*
X243185500Y-142207000D01*
X243162221Y-142205856D01*
X243139166Y-142202437D01*
X243116557Y-142196773D01*
X243094613Y-142188921D01*
X243073543Y-142178956D01*
X243053552Y-142166974D01*
X243034832Y-142153090D01*
X243017562Y-142137438D01*
X243001910Y-142120168D01*
X242988026Y-142101448D01*
X242976044Y-142081457D01*
X242966079Y-142060387D01*
X242958227Y-142038443D01*
X242952563Y-142015834D01*
X242949144Y-141992779D01*
X242948000Y-141969500D01*
X242948000Y-141494500D01*
X242949144Y-141471221D01*
X242952563Y-141448166D01*
X242958227Y-141425557D01*
X242966079Y-141403613D01*
X242976044Y-141382543D01*
X242988026Y-141362552D01*
X243001910Y-141343832D01*
X243017562Y-141326562D01*
X243034832Y-141310910D01*
X243053552Y-141297026D01*
X243073543Y-141285044D01*
X243094613Y-141275079D01*
X243116557Y-141267227D01*
X243139166Y-141261563D01*
X243162221Y-141258144D01*
X243185500Y-141257000D01*
X243760500Y-141257000D01*
X243783779Y-141258144D01*
G37*
G36*
X242576779Y-134463144D02*
G01*
X242599834Y-134466563D01*
X242622443Y-134472227D01*
X242644387Y-134480079D01*
X242665457Y-134490044D01*
X242685448Y-134502026D01*
X242704168Y-134515910D01*
X242721438Y-134531562D01*
X242737090Y-134548832D01*
X242750974Y-134567552D01*
X242762956Y-134587543D01*
X242772921Y-134608613D01*
X242780773Y-134630557D01*
X242786437Y-134653166D01*
X242789856Y-134676221D01*
X242791000Y-134699500D01*
X242791000Y-135274500D01*
X242789856Y-135297779D01*
X242786437Y-135320834D01*
X242780773Y-135343443D01*
X242772921Y-135365387D01*
X242762956Y-135386457D01*
X242750974Y-135406448D01*
X242737090Y-135425168D01*
X242721438Y-135442438D01*
X242704168Y-135458090D01*
X242685448Y-135471974D01*
X242665457Y-135483956D01*
X242644387Y-135493921D01*
X242622443Y-135501773D01*
X242599834Y-135507437D01*
X242576779Y-135510856D01*
X242553500Y-135512000D01*
X242078500Y-135512000D01*
X242055221Y-135510856D01*
X242032166Y-135507437D01*
X242009557Y-135501773D01*
X241987613Y-135493921D01*
X241966543Y-135483956D01*
X241946552Y-135471974D01*
X241927832Y-135458090D01*
X241910562Y-135442438D01*
X241894910Y-135425168D01*
X241881026Y-135406448D01*
X241869044Y-135386457D01*
X241859079Y-135365387D01*
X241851227Y-135343443D01*
X241845563Y-135320834D01*
X241842144Y-135297779D01*
X241841000Y-135274500D01*
X241841000Y-134699500D01*
X241842144Y-134676221D01*
X241845563Y-134653166D01*
X241851227Y-134630557D01*
X241859079Y-134608613D01*
X241869044Y-134587543D01*
X241881026Y-134567552D01*
X241894910Y-134548832D01*
X241910562Y-134531562D01*
X241927832Y-134515910D01*
X241946552Y-134502026D01*
X241966543Y-134490044D01*
X241987613Y-134480079D01*
X242009557Y-134472227D01*
X242032166Y-134466563D01*
X242055221Y-134463144D01*
X242078500Y-134462000D01*
X242553500Y-134462000D01*
X242576779Y-134463144D01*
G37*
G36*
X242576779Y-132713144D02*
G01*
X242599834Y-132716563D01*
X242622443Y-132722227D01*
X242644387Y-132730079D01*
X242665457Y-132740044D01*
X242685448Y-132752026D01*
X242704168Y-132765910D01*
X242721438Y-132781562D01*
X242737090Y-132798832D01*
X242750974Y-132817552D01*
X242762956Y-132837543D01*
X242772921Y-132858613D01*
X242780773Y-132880557D01*
X242786437Y-132903166D01*
X242789856Y-132926221D01*
X242791000Y-132949500D01*
X242791000Y-133524500D01*
X242789856Y-133547779D01*
X242786437Y-133570834D01*
X242780773Y-133593443D01*
X242772921Y-133615387D01*
X242762956Y-133636457D01*
X242750974Y-133656448D01*
X242737090Y-133675168D01*
X242721438Y-133692438D01*
X242704168Y-133708090D01*
X242685448Y-133721974D01*
X242665457Y-133733956D01*
X242644387Y-133743921D01*
X242622443Y-133751773D01*
X242599834Y-133757437D01*
X242576779Y-133760856D01*
X242553500Y-133762000D01*
X242078500Y-133762000D01*
X242055221Y-133760856D01*
X242032166Y-133757437D01*
X242009557Y-133751773D01*
X241987613Y-133743921D01*
X241966543Y-133733956D01*
X241946552Y-133721974D01*
X241927832Y-133708090D01*
X241910562Y-133692438D01*
X241894910Y-133675168D01*
X241881026Y-133656448D01*
X241869044Y-133636457D01*
X241859079Y-133615387D01*
X241851227Y-133593443D01*
X241845563Y-133570834D01*
X241842144Y-133547779D01*
X241841000Y-133524500D01*
X241841000Y-132949500D01*
X241842144Y-132926221D01*
X241845563Y-132903166D01*
X241851227Y-132880557D01*
X241859079Y-132858613D01*
X241869044Y-132837543D01*
X241881026Y-132817552D01*
X241894910Y-132798832D01*
X241910562Y-132781562D01*
X241927832Y-132765910D01*
X241946552Y-132752026D01*
X241966543Y-132740044D01*
X241987613Y-132730079D01*
X242009557Y-132722227D01*
X242032166Y-132716563D01*
X242055221Y-132713144D01*
X242078500Y-132712000D01*
X242553500Y-132712000D01*
X242576779Y-132713144D01*
G37*
D11*
X248756000Y-132512000D03*
X248756000Y-135712000D03*
X253656000Y-132512000D03*
X253656000Y-135712000D03*
X209386000Y-134290000D03*
X209386000Y-137490000D03*
X214286000Y-134290000D03*
X214286000Y-137490000D03*
D12*
X214773000Y-144907000D03*
X216773000Y-143957000D03*
X216773000Y-145857000D03*
D10*
G36*
X227944279Y-140242144D02*
G01*
X227967334Y-140245563D01*
X227989943Y-140251227D01*
X228011887Y-140259079D01*
X228032957Y-140269044D01*
X228052948Y-140281026D01*
X228071668Y-140294910D01*
X228088938Y-140310562D01*
X228104590Y-140327832D01*
X228118474Y-140346552D01*
X228130456Y-140366543D01*
X228140421Y-140387613D01*
X228148273Y-140409557D01*
X228153937Y-140432166D01*
X228157356Y-140455221D01*
X228158500Y-140478500D01*
X228158500Y-140953500D01*
X228157356Y-140976779D01*
X228153937Y-140999834D01*
X228148273Y-141022443D01*
X228140421Y-141044387D01*
X228130456Y-141065457D01*
X228118474Y-141085448D01*
X228104590Y-141104168D01*
X228088938Y-141121438D01*
X228071668Y-141137090D01*
X228052948Y-141150974D01*
X228032957Y-141162956D01*
X228011887Y-141172921D01*
X227989943Y-141180773D01*
X227967334Y-141186437D01*
X227944279Y-141189856D01*
X227921000Y-141191000D01*
X227346000Y-141191000D01*
X227322721Y-141189856D01*
X227299666Y-141186437D01*
X227277057Y-141180773D01*
X227255113Y-141172921D01*
X227234043Y-141162956D01*
X227214052Y-141150974D01*
X227195332Y-141137090D01*
X227178062Y-141121438D01*
X227162410Y-141104168D01*
X227148526Y-141085448D01*
X227136544Y-141065457D01*
X227126579Y-141044387D01*
X227118727Y-141022443D01*
X227113063Y-140999834D01*
X227109644Y-140976779D01*
X227108500Y-140953500D01*
X227108500Y-140478500D01*
X227109644Y-140455221D01*
X227113063Y-140432166D01*
X227118727Y-140409557D01*
X227126579Y-140387613D01*
X227136544Y-140366543D01*
X227148526Y-140346552D01*
X227162410Y-140327832D01*
X227178062Y-140310562D01*
X227195332Y-140294910D01*
X227214052Y-140281026D01*
X227234043Y-140269044D01*
X227255113Y-140259079D01*
X227277057Y-140251227D01*
X227299666Y-140245563D01*
X227322721Y-140242144D01*
X227346000Y-140241000D01*
X227921000Y-140241000D01*
X227944279Y-140242144D01*
G37*
G36*
X226194279Y-140242144D02*
G01*
X226217334Y-140245563D01*
X226239943Y-140251227D01*
X226261887Y-140259079D01*
X226282957Y-140269044D01*
X226302948Y-140281026D01*
X226321668Y-140294910D01*
X226338938Y-140310562D01*
X226354590Y-140327832D01*
X226368474Y-140346552D01*
X226380456Y-140366543D01*
X226390421Y-140387613D01*
X226398273Y-140409557D01*
X226403937Y-140432166D01*
X226407356Y-140455221D01*
X226408500Y-140478500D01*
X226408500Y-140953500D01*
X226407356Y-140976779D01*
X226403937Y-140999834D01*
X226398273Y-141022443D01*
X226390421Y-141044387D01*
X226380456Y-141065457D01*
X226368474Y-141085448D01*
X226354590Y-141104168D01*
X226338938Y-141121438D01*
X226321668Y-141137090D01*
X226302948Y-141150974D01*
X226282957Y-141162956D01*
X226261887Y-141172921D01*
X226239943Y-141180773D01*
X226217334Y-141186437D01*
X226194279Y-141189856D01*
X226171000Y-141191000D01*
X225596000Y-141191000D01*
X225572721Y-141189856D01*
X225549666Y-141186437D01*
X225527057Y-141180773D01*
X225505113Y-141172921D01*
X225484043Y-141162956D01*
X225464052Y-141150974D01*
X225445332Y-141137090D01*
X225428062Y-141121438D01*
X225412410Y-141104168D01*
X225398526Y-141085448D01*
X225386544Y-141065457D01*
X225376579Y-141044387D01*
X225368727Y-141022443D01*
X225363063Y-140999834D01*
X225359644Y-140976779D01*
X225358500Y-140953500D01*
X225358500Y-140478500D01*
X225359644Y-140455221D01*
X225363063Y-140432166D01*
X225368727Y-140409557D01*
X225376579Y-140387613D01*
X225386544Y-140366543D01*
X225398526Y-140346552D01*
X225412410Y-140327832D01*
X225428062Y-140310562D01*
X225445332Y-140294910D01*
X225464052Y-140281026D01*
X225484043Y-140269044D01*
X225505113Y-140259079D01*
X225527057Y-140251227D01*
X225549666Y-140245563D01*
X225572721Y-140242144D01*
X225596000Y-140241000D01*
X226171000Y-140241000D01*
X226194279Y-140242144D01*
G37*
G36*
X216795779Y-135987144D02*
G01*
X216818834Y-135990563D01*
X216841443Y-135996227D01*
X216863387Y-136004079D01*
X216884457Y-136014044D01*
X216904448Y-136026026D01*
X216923168Y-136039910D01*
X216940438Y-136055562D01*
X216956090Y-136072832D01*
X216969974Y-136091552D01*
X216981956Y-136111543D01*
X216991921Y-136132613D01*
X216999773Y-136154557D01*
X217005437Y-136177166D01*
X217008856Y-136200221D01*
X217010000Y-136223500D01*
X217010000Y-136798500D01*
X217008856Y-136821779D01*
X217005437Y-136844834D01*
X216999773Y-136867443D01*
X216991921Y-136889387D01*
X216981956Y-136910457D01*
X216969974Y-136930448D01*
X216956090Y-136949168D01*
X216940438Y-136966438D01*
X216923168Y-136982090D01*
X216904448Y-136995974D01*
X216884457Y-137007956D01*
X216863387Y-137017921D01*
X216841443Y-137025773D01*
X216818834Y-137031437D01*
X216795779Y-137034856D01*
X216772500Y-137036000D01*
X216297500Y-137036000D01*
X216274221Y-137034856D01*
X216251166Y-137031437D01*
X216228557Y-137025773D01*
X216206613Y-137017921D01*
X216185543Y-137007956D01*
X216165552Y-136995974D01*
X216146832Y-136982090D01*
X216129562Y-136966438D01*
X216113910Y-136949168D01*
X216100026Y-136930448D01*
X216088044Y-136910457D01*
X216078079Y-136889387D01*
X216070227Y-136867443D01*
X216064563Y-136844834D01*
X216061144Y-136821779D01*
X216060000Y-136798500D01*
X216060000Y-136223500D01*
X216061144Y-136200221D01*
X216064563Y-136177166D01*
X216070227Y-136154557D01*
X216078079Y-136132613D01*
X216088044Y-136111543D01*
X216100026Y-136091552D01*
X216113910Y-136072832D01*
X216129562Y-136055562D01*
X216146832Y-136039910D01*
X216165552Y-136026026D01*
X216185543Y-136014044D01*
X216206613Y-136004079D01*
X216228557Y-135996227D01*
X216251166Y-135990563D01*
X216274221Y-135987144D01*
X216297500Y-135986000D01*
X216772500Y-135986000D01*
X216795779Y-135987144D01*
G37*
G36*
X216795779Y-134237144D02*
G01*
X216818834Y-134240563D01*
X216841443Y-134246227D01*
X216863387Y-134254079D01*
X216884457Y-134264044D01*
X216904448Y-134276026D01*
X216923168Y-134289910D01*
X216940438Y-134305562D01*
X216956090Y-134322832D01*
X216969974Y-134341552D01*
X216981956Y-134361543D01*
X216991921Y-134382613D01*
X216999773Y-134404557D01*
X217005437Y-134427166D01*
X217008856Y-134450221D01*
X217010000Y-134473500D01*
X217010000Y-135048500D01*
X217008856Y-135071779D01*
X217005437Y-135094834D01*
X216999773Y-135117443D01*
X216991921Y-135139387D01*
X216981956Y-135160457D01*
X216969974Y-135180448D01*
X216956090Y-135199168D01*
X216940438Y-135216438D01*
X216923168Y-135232090D01*
X216904448Y-135245974D01*
X216884457Y-135257956D01*
X216863387Y-135267921D01*
X216841443Y-135275773D01*
X216818834Y-135281437D01*
X216795779Y-135284856D01*
X216772500Y-135286000D01*
X216297500Y-135286000D01*
X216274221Y-135284856D01*
X216251166Y-135281437D01*
X216228557Y-135275773D01*
X216206613Y-135267921D01*
X216185543Y-135257956D01*
X216165552Y-135245974D01*
X216146832Y-135232090D01*
X216129562Y-135216438D01*
X216113910Y-135199168D01*
X216100026Y-135180448D01*
X216088044Y-135160457D01*
X216078079Y-135139387D01*
X216070227Y-135117443D01*
X216064563Y-135094834D01*
X216061144Y-135071779D01*
X216060000Y-135048500D01*
X216060000Y-134473500D01*
X216061144Y-134450221D01*
X216064563Y-134427166D01*
X216070227Y-134404557D01*
X216078079Y-134382613D01*
X216088044Y-134361543D01*
X216100026Y-134341552D01*
X216113910Y-134322832D01*
X216129562Y-134305562D01*
X216146832Y-134289910D01*
X216165552Y-134276026D01*
X216185543Y-134264044D01*
X216206613Y-134254079D01*
X216228557Y-134246227D01*
X216251166Y-134240563D01*
X216274221Y-134237144D01*
X216297500Y-134236000D01*
X216772500Y-134236000D01*
X216795779Y-134237144D01*
G37*
D13*
X220660000Y-146007000D03*
X218760000Y-146007000D03*
X218760000Y-143807000D03*
X219710000Y-143807000D03*
X220660000Y-143807000D03*
D10*
G36*
X218129779Y-128050144D02*
G01*
X218152834Y-128053563D01*
X218175443Y-128059227D01*
X218197387Y-128067079D01*
X218218457Y-128077044D01*
X218238448Y-128089026D01*
X218257168Y-128102910D01*
X218274438Y-128118562D01*
X218290090Y-128135832D01*
X218303974Y-128154552D01*
X218315956Y-128174543D01*
X218325921Y-128195613D01*
X218333773Y-128217557D01*
X218339437Y-128240166D01*
X218342856Y-128263221D01*
X218344000Y-128286500D01*
X218344000Y-128761500D01*
X218342856Y-128784779D01*
X218339437Y-128807834D01*
X218333773Y-128830443D01*
X218325921Y-128852387D01*
X218315956Y-128873457D01*
X218303974Y-128893448D01*
X218290090Y-128912168D01*
X218274438Y-128929438D01*
X218257168Y-128945090D01*
X218238448Y-128958974D01*
X218218457Y-128970956D01*
X218197387Y-128980921D01*
X218175443Y-128988773D01*
X218152834Y-128994437D01*
X218129779Y-128997856D01*
X218106500Y-128999000D01*
X217531500Y-128999000D01*
X217508221Y-128997856D01*
X217485166Y-128994437D01*
X217462557Y-128988773D01*
X217440613Y-128980921D01*
X217419543Y-128970956D01*
X217399552Y-128958974D01*
X217380832Y-128945090D01*
X217363562Y-128929438D01*
X217347910Y-128912168D01*
X217334026Y-128893448D01*
X217322044Y-128873457D01*
X217312079Y-128852387D01*
X217304227Y-128830443D01*
X217298563Y-128807834D01*
X217295144Y-128784779D01*
X217294000Y-128761500D01*
X217294000Y-128286500D01*
X217295144Y-128263221D01*
X217298563Y-128240166D01*
X217304227Y-128217557D01*
X217312079Y-128195613D01*
X217322044Y-128174543D01*
X217334026Y-128154552D01*
X217347910Y-128135832D01*
X217363562Y-128118562D01*
X217380832Y-128102910D01*
X217399552Y-128089026D01*
X217419543Y-128077044D01*
X217440613Y-128067079D01*
X217462557Y-128059227D01*
X217485166Y-128053563D01*
X217508221Y-128050144D01*
X217531500Y-128049000D01*
X218106500Y-128049000D01*
X218129779Y-128050144D01*
G37*
G36*
X219879779Y-128050144D02*
G01*
X219902834Y-128053563D01*
X219925443Y-128059227D01*
X219947387Y-128067079D01*
X219968457Y-128077044D01*
X219988448Y-128089026D01*
X220007168Y-128102910D01*
X220024438Y-128118562D01*
X220040090Y-128135832D01*
X220053974Y-128154552D01*
X220065956Y-128174543D01*
X220075921Y-128195613D01*
X220083773Y-128217557D01*
X220089437Y-128240166D01*
X220092856Y-128263221D01*
X220094000Y-128286500D01*
X220094000Y-128761500D01*
X220092856Y-128784779D01*
X220089437Y-128807834D01*
X220083773Y-128830443D01*
X220075921Y-128852387D01*
X220065956Y-128873457D01*
X220053974Y-128893448D01*
X220040090Y-128912168D01*
X220024438Y-128929438D01*
X220007168Y-128945090D01*
X219988448Y-128958974D01*
X219968457Y-128970956D01*
X219947387Y-128980921D01*
X219925443Y-128988773D01*
X219902834Y-128994437D01*
X219879779Y-128997856D01*
X219856500Y-128999000D01*
X219281500Y-128999000D01*
X219258221Y-128997856D01*
X219235166Y-128994437D01*
X219212557Y-128988773D01*
X219190613Y-128980921D01*
X219169543Y-128970956D01*
X219149552Y-128958974D01*
X219130832Y-128945090D01*
X219113562Y-128929438D01*
X219097910Y-128912168D01*
X219084026Y-128893448D01*
X219072044Y-128873457D01*
X219062079Y-128852387D01*
X219054227Y-128830443D01*
X219048563Y-128807834D01*
X219045144Y-128784779D01*
X219044000Y-128761500D01*
X219044000Y-128286500D01*
X219045144Y-128263221D01*
X219048563Y-128240166D01*
X219054227Y-128217557D01*
X219062079Y-128195613D01*
X219072044Y-128174543D01*
X219084026Y-128154552D01*
X219097910Y-128135832D01*
X219113562Y-128118562D01*
X219130832Y-128102910D01*
X219149552Y-128089026D01*
X219169543Y-128077044D01*
X219190613Y-128067079D01*
X219212557Y-128059227D01*
X219235166Y-128053563D01*
X219258221Y-128050144D01*
X219281500Y-128049000D01*
X219856500Y-128049000D01*
X219879779Y-128050144D01*
G37*
G36*
X226701779Y-147099644D02*
G01*
X226724834Y-147103063D01*
X226747443Y-147108727D01*
X226769387Y-147116579D01*
X226790457Y-147126544D01*
X226810448Y-147138526D01*
X226829168Y-147152410D01*
X226846438Y-147168062D01*
X226862090Y-147185332D01*
X226875974Y-147204052D01*
X226887956Y-147224043D01*
X226897921Y-147245113D01*
X226905773Y-147267057D01*
X226911437Y-147289666D01*
X226914856Y-147312721D01*
X226916000Y-147336000D01*
X226916000Y-147911000D01*
X226914856Y-147934279D01*
X226911437Y-147957334D01*
X226905773Y-147979943D01*
X226897921Y-148001887D01*
X226887956Y-148022957D01*
X226875974Y-148042948D01*
X226862090Y-148061668D01*
X226846438Y-148078938D01*
X226829168Y-148094590D01*
X226810448Y-148108474D01*
X226790457Y-148120456D01*
X226769387Y-148130421D01*
X226747443Y-148138273D01*
X226724834Y-148143937D01*
X226701779Y-148147356D01*
X226678500Y-148148500D01*
X226203500Y-148148500D01*
X226180221Y-148147356D01*
X226157166Y-148143937D01*
X226134557Y-148138273D01*
X226112613Y-148130421D01*
X226091543Y-148120456D01*
X226071552Y-148108474D01*
X226052832Y-148094590D01*
X226035562Y-148078938D01*
X226019910Y-148061668D01*
X226006026Y-148042948D01*
X225994044Y-148022957D01*
X225984079Y-148001887D01*
X225976227Y-147979943D01*
X225970563Y-147957334D01*
X225967144Y-147934279D01*
X225966000Y-147911000D01*
X225966000Y-147336000D01*
X225967144Y-147312721D01*
X225970563Y-147289666D01*
X225976227Y-147267057D01*
X225984079Y-147245113D01*
X225994044Y-147224043D01*
X226006026Y-147204052D01*
X226019910Y-147185332D01*
X226035562Y-147168062D01*
X226052832Y-147152410D01*
X226071552Y-147138526D01*
X226091543Y-147126544D01*
X226112613Y-147116579D01*
X226134557Y-147108727D01*
X226157166Y-147103063D01*
X226180221Y-147099644D01*
X226203500Y-147098500D01*
X226678500Y-147098500D01*
X226701779Y-147099644D01*
G37*
G36*
X226701779Y-145349644D02*
G01*
X226724834Y-145353063D01*
X226747443Y-145358727D01*
X226769387Y-145366579D01*
X226790457Y-145376544D01*
X226810448Y-145388526D01*
X226829168Y-145402410D01*
X226846438Y-145418062D01*
X226862090Y-145435332D01*
X226875974Y-145454052D01*
X226887956Y-145474043D01*
X226897921Y-145495113D01*
X226905773Y-145517057D01*
X226911437Y-145539666D01*
X226914856Y-145562721D01*
X226916000Y-145586000D01*
X226916000Y-146161000D01*
X226914856Y-146184279D01*
X226911437Y-146207334D01*
X226905773Y-146229943D01*
X226897921Y-146251887D01*
X226887956Y-146272957D01*
X226875974Y-146292948D01*
X226862090Y-146311668D01*
X226846438Y-146328938D01*
X226829168Y-146344590D01*
X226810448Y-146358474D01*
X226790457Y-146370456D01*
X226769387Y-146380421D01*
X226747443Y-146388273D01*
X226724834Y-146393937D01*
X226701779Y-146397356D01*
X226678500Y-146398500D01*
X226203500Y-146398500D01*
X226180221Y-146397356D01*
X226157166Y-146393937D01*
X226134557Y-146388273D01*
X226112613Y-146380421D01*
X226091543Y-146370456D01*
X226071552Y-146358474D01*
X226052832Y-146344590D01*
X226035562Y-146328938D01*
X226019910Y-146311668D01*
X226006026Y-146292948D01*
X225994044Y-146272957D01*
X225984079Y-146251887D01*
X225976227Y-146229943D01*
X225970563Y-146207334D01*
X225967144Y-146184279D01*
X225966000Y-146161000D01*
X225966000Y-145586000D01*
X225967144Y-145562721D01*
X225970563Y-145539666D01*
X225976227Y-145517057D01*
X225984079Y-145495113D01*
X225994044Y-145474043D01*
X226006026Y-145454052D01*
X226019910Y-145435332D01*
X226035562Y-145418062D01*
X226052832Y-145402410D01*
X226071552Y-145388526D01*
X226091543Y-145376544D01*
X226112613Y-145366579D01*
X226134557Y-145358727D01*
X226157166Y-145353063D01*
X226180221Y-145349644D01*
X226203500Y-145348500D01*
X226678500Y-145348500D01*
X226701779Y-145349644D01*
G37*
G36*
X224197779Y-140242144D02*
G01*
X224220834Y-140245563D01*
X224243443Y-140251227D01*
X224265387Y-140259079D01*
X224286457Y-140269044D01*
X224306448Y-140281026D01*
X224325168Y-140294910D01*
X224342438Y-140310562D01*
X224358090Y-140327832D01*
X224371974Y-140346552D01*
X224383956Y-140366543D01*
X224393921Y-140387613D01*
X224401773Y-140409557D01*
X224407437Y-140432166D01*
X224410856Y-140455221D01*
X224412000Y-140478500D01*
X224412000Y-140953500D01*
X224410856Y-140976779D01*
X224407437Y-140999834D01*
X224401773Y-141022443D01*
X224393921Y-141044387D01*
X224383956Y-141065457D01*
X224371974Y-141085448D01*
X224358090Y-141104168D01*
X224342438Y-141121438D01*
X224325168Y-141137090D01*
X224306448Y-141150974D01*
X224286457Y-141162956D01*
X224265387Y-141172921D01*
X224243443Y-141180773D01*
X224220834Y-141186437D01*
X224197779Y-141189856D01*
X224174500Y-141191000D01*
X223599500Y-141191000D01*
X223576221Y-141189856D01*
X223553166Y-141186437D01*
X223530557Y-141180773D01*
X223508613Y-141172921D01*
X223487543Y-141162956D01*
X223467552Y-141150974D01*
X223448832Y-141137090D01*
X223431562Y-141121438D01*
X223415910Y-141104168D01*
X223402026Y-141085448D01*
X223390044Y-141065457D01*
X223380079Y-141044387D01*
X223372227Y-141022443D01*
X223366563Y-140999834D01*
X223363144Y-140976779D01*
X223362000Y-140953500D01*
X223362000Y-140478500D01*
X223363144Y-140455221D01*
X223366563Y-140432166D01*
X223372227Y-140409557D01*
X223380079Y-140387613D01*
X223390044Y-140366543D01*
X223402026Y-140346552D01*
X223415910Y-140327832D01*
X223431562Y-140310562D01*
X223448832Y-140294910D01*
X223467552Y-140281026D01*
X223487543Y-140269044D01*
X223508613Y-140259079D01*
X223530557Y-140251227D01*
X223553166Y-140245563D01*
X223576221Y-140242144D01*
X223599500Y-140241000D01*
X224174500Y-140241000D01*
X224197779Y-140242144D01*
G37*
G36*
X222447779Y-140242144D02*
G01*
X222470834Y-140245563D01*
X222493443Y-140251227D01*
X222515387Y-140259079D01*
X222536457Y-140269044D01*
X222556448Y-140281026D01*
X222575168Y-140294910D01*
X222592438Y-140310562D01*
X222608090Y-140327832D01*
X222621974Y-140346552D01*
X222633956Y-140366543D01*
X222643921Y-140387613D01*
X222651773Y-140409557D01*
X222657437Y-140432166D01*
X222660856Y-140455221D01*
X222662000Y-140478500D01*
X222662000Y-140953500D01*
X222660856Y-140976779D01*
X222657437Y-140999834D01*
X222651773Y-141022443D01*
X222643921Y-141044387D01*
X222633956Y-141065457D01*
X222621974Y-141085448D01*
X222608090Y-141104168D01*
X222592438Y-141121438D01*
X222575168Y-141137090D01*
X222556448Y-141150974D01*
X222536457Y-141162956D01*
X222515387Y-141172921D01*
X222493443Y-141180773D01*
X222470834Y-141186437D01*
X222447779Y-141189856D01*
X222424500Y-141191000D01*
X221849500Y-141191000D01*
X221826221Y-141189856D01*
X221803166Y-141186437D01*
X221780557Y-141180773D01*
X221758613Y-141172921D01*
X221737543Y-141162956D01*
X221717552Y-141150974D01*
X221698832Y-141137090D01*
X221681562Y-141121438D01*
X221665910Y-141104168D01*
X221652026Y-141085448D01*
X221640044Y-141065457D01*
X221630079Y-141044387D01*
X221622227Y-141022443D01*
X221616563Y-140999834D01*
X221613144Y-140976779D01*
X221612000Y-140953500D01*
X221612000Y-140478500D01*
X221613144Y-140455221D01*
X221616563Y-140432166D01*
X221622227Y-140409557D01*
X221630079Y-140387613D01*
X221640044Y-140366543D01*
X221652026Y-140346552D01*
X221665910Y-140327832D01*
X221681562Y-140310562D01*
X221698832Y-140294910D01*
X221717552Y-140281026D01*
X221737543Y-140269044D01*
X221758613Y-140259079D01*
X221780557Y-140251227D01*
X221803166Y-140245563D01*
X221826221Y-140242144D01*
X221849500Y-140241000D01*
X222424500Y-140241000D01*
X222447779Y-140242144D01*
G37*
D11*
X221144000Y-126060000D03*
X221144000Y-122860000D03*
X216244000Y-126060000D03*
X216244000Y-122860000D03*
X203798000Y-146228000D03*
X203798000Y-149428000D03*
X208698000Y-146228000D03*
X208698000Y-149428000D03*
D10*
G36*
X226194279Y-141766144D02*
G01*
X226217334Y-141769563D01*
X226239943Y-141775227D01*
X226261887Y-141783079D01*
X226282957Y-141793044D01*
X226302948Y-141805026D01*
X226321668Y-141818910D01*
X226338938Y-141834562D01*
X226354590Y-141851832D01*
X226368474Y-141870552D01*
X226380456Y-141890543D01*
X226390421Y-141911613D01*
X226398273Y-141933557D01*
X226403937Y-141956166D01*
X226407356Y-141979221D01*
X226408500Y-142002500D01*
X226408500Y-142477500D01*
X226407356Y-142500779D01*
X226403937Y-142523834D01*
X226398273Y-142546443D01*
X226390421Y-142568387D01*
X226380456Y-142589457D01*
X226368474Y-142609448D01*
X226354590Y-142628168D01*
X226338938Y-142645438D01*
X226321668Y-142661090D01*
X226302948Y-142674974D01*
X226282957Y-142686956D01*
X226261887Y-142696921D01*
X226239943Y-142704773D01*
X226217334Y-142710437D01*
X226194279Y-142713856D01*
X226171000Y-142715000D01*
X225596000Y-142715000D01*
X225572721Y-142713856D01*
X225549666Y-142710437D01*
X225527057Y-142704773D01*
X225505113Y-142696921D01*
X225484043Y-142686956D01*
X225464052Y-142674974D01*
X225445332Y-142661090D01*
X225428062Y-142645438D01*
X225412410Y-142628168D01*
X225398526Y-142609448D01*
X225386544Y-142589457D01*
X225376579Y-142568387D01*
X225368727Y-142546443D01*
X225363063Y-142523834D01*
X225359644Y-142500779D01*
X225358500Y-142477500D01*
X225358500Y-142002500D01*
X225359644Y-141979221D01*
X225363063Y-141956166D01*
X225368727Y-141933557D01*
X225376579Y-141911613D01*
X225386544Y-141890543D01*
X225398526Y-141870552D01*
X225412410Y-141851832D01*
X225428062Y-141834562D01*
X225445332Y-141818910D01*
X225464052Y-141805026D01*
X225484043Y-141793044D01*
X225505113Y-141783079D01*
X225527057Y-141775227D01*
X225549666Y-141769563D01*
X225572721Y-141766144D01*
X225596000Y-141765000D01*
X226171000Y-141765000D01*
X226194279Y-141766144D01*
G37*
G36*
X227944279Y-141766144D02*
G01*
X227967334Y-141769563D01*
X227989943Y-141775227D01*
X228011887Y-141783079D01*
X228032957Y-141793044D01*
X228052948Y-141805026D01*
X228071668Y-141818910D01*
X228088938Y-141834562D01*
X228104590Y-141851832D01*
X228118474Y-141870552D01*
X228130456Y-141890543D01*
X228140421Y-141911613D01*
X228148273Y-141933557D01*
X228153937Y-141956166D01*
X228157356Y-141979221D01*
X228158500Y-142002500D01*
X228158500Y-142477500D01*
X228157356Y-142500779D01*
X228153937Y-142523834D01*
X228148273Y-142546443D01*
X228140421Y-142568387D01*
X228130456Y-142589457D01*
X228118474Y-142609448D01*
X228104590Y-142628168D01*
X228088938Y-142645438D01*
X228071668Y-142661090D01*
X228052948Y-142674974D01*
X228032957Y-142686956D01*
X228011887Y-142696921D01*
X227989943Y-142704773D01*
X227967334Y-142710437D01*
X227944279Y-142713856D01*
X227921000Y-142715000D01*
X227346000Y-142715000D01*
X227322721Y-142713856D01*
X227299666Y-142710437D01*
X227277057Y-142704773D01*
X227255113Y-142696921D01*
X227234043Y-142686956D01*
X227214052Y-142674974D01*
X227195332Y-142661090D01*
X227178062Y-142645438D01*
X227162410Y-142628168D01*
X227148526Y-142609448D01*
X227136544Y-142589457D01*
X227126579Y-142568387D01*
X227118727Y-142546443D01*
X227113063Y-142523834D01*
X227109644Y-142500779D01*
X227108500Y-142477500D01*
X227108500Y-142002500D01*
X227109644Y-141979221D01*
X227113063Y-141956166D01*
X227118727Y-141933557D01*
X227126579Y-141911613D01*
X227136544Y-141890543D01*
X227148526Y-141870552D01*
X227162410Y-141851832D01*
X227178062Y-141834562D01*
X227195332Y-141818910D01*
X227214052Y-141805026D01*
X227234043Y-141793044D01*
X227255113Y-141783079D01*
X227277057Y-141775227D01*
X227299666Y-141769563D01*
X227322721Y-141766144D01*
X227346000Y-141765000D01*
X227921000Y-141765000D01*
X227944279Y-141766144D01*
G37*
G36*
X211207779Y-147036144D02*
G01*
X211230834Y-147039563D01*
X211253443Y-147045227D01*
X211275387Y-147053079D01*
X211296457Y-147063044D01*
X211316448Y-147075026D01*
X211335168Y-147088910D01*
X211352438Y-147104562D01*
X211368090Y-147121832D01*
X211381974Y-147140552D01*
X211393956Y-147160543D01*
X211403921Y-147181613D01*
X211411773Y-147203557D01*
X211417437Y-147226166D01*
X211420856Y-147249221D01*
X211422000Y-147272500D01*
X211422000Y-147847500D01*
X211420856Y-147870779D01*
X211417437Y-147893834D01*
X211411773Y-147916443D01*
X211403921Y-147938387D01*
X211393956Y-147959457D01*
X211381974Y-147979448D01*
X211368090Y-147998168D01*
X211352438Y-148015438D01*
X211335168Y-148031090D01*
X211316448Y-148044974D01*
X211296457Y-148056956D01*
X211275387Y-148066921D01*
X211253443Y-148074773D01*
X211230834Y-148080437D01*
X211207779Y-148083856D01*
X211184500Y-148085000D01*
X210709500Y-148085000D01*
X210686221Y-148083856D01*
X210663166Y-148080437D01*
X210640557Y-148074773D01*
X210618613Y-148066921D01*
X210597543Y-148056956D01*
X210577552Y-148044974D01*
X210558832Y-148031090D01*
X210541562Y-148015438D01*
X210525910Y-147998168D01*
X210512026Y-147979448D01*
X210500044Y-147959457D01*
X210490079Y-147938387D01*
X210482227Y-147916443D01*
X210476563Y-147893834D01*
X210473144Y-147870779D01*
X210472000Y-147847500D01*
X210472000Y-147272500D01*
X210473144Y-147249221D01*
X210476563Y-147226166D01*
X210482227Y-147203557D01*
X210490079Y-147181613D01*
X210500044Y-147160543D01*
X210512026Y-147140552D01*
X210525910Y-147121832D01*
X210541562Y-147104562D01*
X210558832Y-147088910D01*
X210577552Y-147075026D01*
X210597543Y-147063044D01*
X210618613Y-147053079D01*
X210640557Y-147045227D01*
X210663166Y-147039563D01*
X210686221Y-147036144D01*
X210709500Y-147035000D01*
X211184500Y-147035000D01*
X211207779Y-147036144D01*
G37*
G36*
X211207779Y-145286144D02*
G01*
X211230834Y-145289563D01*
X211253443Y-145295227D01*
X211275387Y-145303079D01*
X211296457Y-145313044D01*
X211316448Y-145325026D01*
X211335168Y-145338910D01*
X211352438Y-145354562D01*
X211368090Y-145371832D01*
X211381974Y-145390552D01*
X211393956Y-145410543D01*
X211403921Y-145431613D01*
X211411773Y-145453557D01*
X211417437Y-145476166D01*
X211420856Y-145499221D01*
X211422000Y-145522500D01*
X211422000Y-146097500D01*
X211420856Y-146120779D01*
X211417437Y-146143834D01*
X211411773Y-146166443D01*
X211403921Y-146188387D01*
X211393956Y-146209457D01*
X211381974Y-146229448D01*
X211368090Y-146248168D01*
X211352438Y-146265438D01*
X211335168Y-146281090D01*
X211316448Y-146294974D01*
X211296457Y-146306956D01*
X211275387Y-146316921D01*
X211253443Y-146324773D01*
X211230834Y-146330437D01*
X211207779Y-146333856D01*
X211184500Y-146335000D01*
X210709500Y-146335000D01*
X210686221Y-146333856D01*
X210663166Y-146330437D01*
X210640557Y-146324773D01*
X210618613Y-146316921D01*
X210597543Y-146306956D01*
X210577552Y-146294974D01*
X210558832Y-146281090D01*
X210541562Y-146265438D01*
X210525910Y-146248168D01*
X210512026Y-146229448D01*
X210500044Y-146209457D01*
X210490079Y-146188387D01*
X210482227Y-146166443D01*
X210476563Y-146143834D01*
X210473144Y-146120779D01*
X210472000Y-146097500D01*
X210472000Y-145522500D01*
X210473144Y-145499221D01*
X210476563Y-145476166D01*
X210482227Y-145453557D01*
X210490079Y-145431613D01*
X210500044Y-145410543D01*
X210512026Y-145390552D01*
X210525910Y-145371832D01*
X210541562Y-145354562D01*
X210558832Y-145338910D01*
X210577552Y-145325026D01*
X210597543Y-145313044D01*
X210618613Y-145303079D01*
X210640557Y-145295227D01*
X210663166Y-145289563D01*
X210686221Y-145286144D01*
X210709500Y-145285000D01*
X211184500Y-145285000D01*
X211207779Y-145286144D01*
G37*
G36*
X221050279Y-135987144D02*
G01*
X221073334Y-135990563D01*
X221095943Y-135996227D01*
X221117887Y-136004079D01*
X221138957Y-136014044D01*
X221158948Y-136026026D01*
X221177668Y-136039910D01*
X221194938Y-136055562D01*
X221210590Y-136072832D01*
X221224474Y-136091552D01*
X221236456Y-136111543D01*
X221246421Y-136132613D01*
X221254273Y-136154557D01*
X221259937Y-136177166D01*
X221263356Y-136200221D01*
X221264500Y-136223500D01*
X221264500Y-136798500D01*
X221263356Y-136821779D01*
X221259937Y-136844834D01*
X221254273Y-136867443D01*
X221246421Y-136889387D01*
X221236456Y-136910457D01*
X221224474Y-136930448D01*
X221210590Y-136949168D01*
X221194938Y-136966438D01*
X221177668Y-136982090D01*
X221158948Y-136995974D01*
X221138957Y-137007956D01*
X221117887Y-137017921D01*
X221095943Y-137025773D01*
X221073334Y-137031437D01*
X221050279Y-137034856D01*
X221027000Y-137036000D01*
X220552000Y-137036000D01*
X220528721Y-137034856D01*
X220505666Y-137031437D01*
X220483057Y-137025773D01*
X220461113Y-137017921D01*
X220440043Y-137007956D01*
X220420052Y-136995974D01*
X220401332Y-136982090D01*
X220384062Y-136966438D01*
X220368410Y-136949168D01*
X220354526Y-136930448D01*
X220342544Y-136910457D01*
X220332579Y-136889387D01*
X220324727Y-136867443D01*
X220319063Y-136844834D01*
X220315644Y-136821779D01*
X220314500Y-136798500D01*
X220314500Y-136223500D01*
X220315644Y-136200221D01*
X220319063Y-136177166D01*
X220324727Y-136154557D01*
X220332579Y-136132613D01*
X220342544Y-136111543D01*
X220354526Y-136091552D01*
X220368410Y-136072832D01*
X220384062Y-136055562D01*
X220401332Y-136039910D01*
X220420052Y-136026026D01*
X220440043Y-136014044D01*
X220461113Y-136004079D01*
X220483057Y-135996227D01*
X220505666Y-135990563D01*
X220528721Y-135987144D01*
X220552000Y-135986000D01*
X221027000Y-135986000D01*
X221050279Y-135987144D01*
G37*
G36*
X221050279Y-134237144D02*
G01*
X221073334Y-134240563D01*
X221095943Y-134246227D01*
X221117887Y-134254079D01*
X221138957Y-134264044D01*
X221158948Y-134276026D01*
X221177668Y-134289910D01*
X221194938Y-134305562D01*
X221210590Y-134322832D01*
X221224474Y-134341552D01*
X221236456Y-134361543D01*
X221246421Y-134382613D01*
X221254273Y-134404557D01*
X221259937Y-134427166D01*
X221263356Y-134450221D01*
X221264500Y-134473500D01*
X221264500Y-135048500D01*
X221263356Y-135071779D01*
X221259937Y-135094834D01*
X221254273Y-135117443D01*
X221246421Y-135139387D01*
X221236456Y-135160457D01*
X221224474Y-135180448D01*
X221210590Y-135199168D01*
X221194938Y-135216438D01*
X221177668Y-135232090D01*
X221158948Y-135245974D01*
X221138957Y-135257956D01*
X221117887Y-135267921D01*
X221095943Y-135275773D01*
X221073334Y-135281437D01*
X221050279Y-135284856D01*
X221027000Y-135286000D01*
X220552000Y-135286000D01*
X220528721Y-135284856D01*
X220505666Y-135281437D01*
X220483057Y-135275773D01*
X220461113Y-135267921D01*
X220440043Y-135257956D01*
X220420052Y-135245974D01*
X220401332Y-135232090D01*
X220384062Y-135216438D01*
X220368410Y-135199168D01*
X220354526Y-135180448D01*
X220342544Y-135160457D01*
X220332579Y-135139387D01*
X220324727Y-135117443D01*
X220319063Y-135094834D01*
X220315644Y-135071779D01*
X220314500Y-135048500D01*
X220314500Y-134473500D01*
X220315644Y-134450221D01*
X220319063Y-134427166D01*
X220324727Y-134404557D01*
X220332579Y-134382613D01*
X220342544Y-134361543D01*
X220354526Y-134341552D01*
X220368410Y-134322832D01*
X220384062Y-134305562D01*
X220401332Y-134289910D01*
X220420052Y-134276026D01*
X220440043Y-134264044D01*
X220461113Y-134254079D01*
X220483057Y-134246227D01*
X220505666Y-134240563D01*
X220528721Y-134237144D01*
X220552000Y-134236000D01*
X221027000Y-134236000D01*
X221050279Y-134237144D01*
G37*
G36*
X213620779Y-147699144D02*
G01*
X213643834Y-147702563D01*
X213666443Y-147708227D01*
X213688387Y-147716079D01*
X213709457Y-147726044D01*
X213729448Y-147738026D01*
X213748168Y-147751910D01*
X213765438Y-147767562D01*
X213781090Y-147784832D01*
X213794974Y-147803552D01*
X213806956Y-147823543D01*
X213816921Y-147844613D01*
X213824773Y-147866557D01*
X213830437Y-147889166D01*
X213833856Y-147912221D01*
X213835000Y-147935500D01*
X213835000Y-148510500D01*
X213833856Y-148533779D01*
X213830437Y-148556834D01*
X213824773Y-148579443D01*
X213816921Y-148601387D01*
X213806956Y-148622457D01*
X213794974Y-148642448D01*
X213781090Y-148661168D01*
X213765438Y-148678438D01*
X213748168Y-148694090D01*
X213729448Y-148707974D01*
X213709457Y-148719956D01*
X213688387Y-148729921D01*
X213666443Y-148737773D01*
X213643834Y-148743437D01*
X213620779Y-148746856D01*
X213597500Y-148748000D01*
X213122500Y-148748000D01*
X213099221Y-148746856D01*
X213076166Y-148743437D01*
X213053557Y-148737773D01*
X213031613Y-148729921D01*
X213010543Y-148719956D01*
X212990552Y-148707974D01*
X212971832Y-148694090D01*
X212954562Y-148678438D01*
X212938910Y-148661168D01*
X212925026Y-148642448D01*
X212913044Y-148622457D01*
X212903079Y-148601387D01*
X212895227Y-148579443D01*
X212889563Y-148556834D01*
X212886144Y-148533779D01*
X212885000Y-148510500D01*
X212885000Y-147935500D01*
X212886144Y-147912221D01*
X212889563Y-147889166D01*
X212895227Y-147866557D01*
X212903079Y-147844613D01*
X212913044Y-147823543D01*
X212925026Y-147803552D01*
X212938910Y-147784832D01*
X212954562Y-147767562D01*
X212971832Y-147751910D01*
X212990552Y-147738026D01*
X213010543Y-147726044D01*
X213031613Y-147716079D01*
X213053557Y-147708227D01*
X213076166Y-147702563D01*
X213099221Y-147699144D01*
X213122500Y-147698000D01*
X213597500Y-147698000D01*
X213620779Y-147699144D01*
G37*
G36*
X213620779Y-149449144D02*
G01*
X213643834Y-149452563D01*
X213666443Y-149458227D01*
X213688387Y-149466079D01*
X213709457Y-149476044D01*
X213729448Y-149488026D01*
X213748168Y-149501910D01*
X213765438Y-149517562D01*
X213781090Y-149534832D01*
X213794974Y-149553552D01*
X213806956Y-149573543D01*
X213816921Y-149594613D01*
X213824773Y-149616557D01*
X213830437Y-149639166D01*
X213833856Y-149662221D01*
X213835000Y-149685500D01*
X213835000Y-150260500D01*
X213833856Y-150283779D01*
X213830437Y-150306834D01*
X213824773Y-150329443D01*
X213816921Y-150351387D01*
X213806956Y-150372457D01*
X213794974Y-150392448D01*
X213781090Y-150411168D01*
X213765438Y-150428438D01*
X213748168Y-150444090D01*
X213729448Y-150457974D01*
X213709457Y-150469956D01*
X213688387Y-150479921D01*
X213666443Y-150487773D01*
X213643834Y-150493437D01*
X213620779Y-150496856D01*
X213597500Y-150498000D01*
X213122500Y-150498000D01*
X213099221Y-150496856D01*
X213076166Y-150493437D01*
X213053557Y-150487773D01*
X213031613Y-150479921D01*
X213010543Y-150469956D01*
X212990552Y-150457974D01*
X212971832Y-150444090D01*
X212954562Y-150428438D01*
X212938910Y-150411168D01*
X212925026Y-150392448D01*
X212913044Y-150372457D01*
X212903079Y-150351387D01*
X212895227Y-150329443D01*
X212889563Y-150306834D01*
X212886144Y-150283779D01*
X212885000Y-150260500D01*
X212885000Y-149685500D01*
X212886144Y-149662221D01*
X212889563Y-149639166D01*
X212895227Y-149616557D01*
X212903079Y-149594613D01*
X212913044Y-149573543D01*
X212925026Y-149553552D01*
X212938910Y-149534832D01*
X212954562Y-149517562D01*
X212971832Y-149501910D01*
X212990552Y-149488026D01*
X213010543Y-149476044D01*
X213031613Y-149466079D01*
X213053557Y-149458227D01*
X213076166Y-149452563D01*
X213099221Y-149449144D01*
X213122500Y-149448000D01*
X213597500Y-149448000D01*
X213620779Y-149449144D01*
G37*
G36*
X209516505Y-142564204D02*
G01*
X209540773Y-142567804D01*
X209564572Y-142573765D01*
X209587671Y-142582030D01*
X209609850Y-142592520D01*
X209630893Y-142605132D01*
X209650599Y-142619747D01*
X209668777Y-142636223D01*
X209685253Y-142654401D01*
X209699868Y-142674107D01*
X209712480Y-142695150D01*
X209722970Y-142717329D01*
X209731235Y-142740428D01*
X209737196Y-142764227D01*
X209740796Y-142788495D01*
X209742000Y-142812999D01*
X209742000Y-143463001D01*
X209740796Y-143487505D01*
X209737196Y-143511773D01*
X209731235Y-143535572D01*
X209722970Y-143558671D01*
X209712480Y-143580850D01*
X209699868Y-143601893D01*
X209685253Y-143621599D01*
X209668777Y-143639777D01*
X209650599Y-143656253D01*
X209630893Y-143670868D01*
X209609850Y-143683480D01*
X209587671Y-143693970D01*
X209564572Y-143702235D01*
X209540773Y-143708196D01*
X209516505Y-143711796D01*
X209492001Y-143713000D01*
X208591999Y-143713000D01*
X208567495Y-143711796D01*
X208543227Y-143708196D01*
X208519428Y-143702235D01*
X208496329Y-143693970D01*
X208474150Y-143683480D01*
X208453107Y-143670868D01*
X208433401Y-143656253D01*
X208415223Y-143639777D01*
X208398747Y-143621599D01*
X208384132Y-143601893D01*
X208371520Y-143580850D01*
X208361030Y-143558671D01*
X208352765Y-143535572D01*
X208346804Y-143511773D01*
X208343204Y-143487505D01*
X208342000Y-143463001D01*
X208342000Y-142812999D01*
X208343204Y-142788495D01*
X208346804Y-142764227D01*
X208352765Y-142740428D01*
X208361030Y-142717329D01*
X208371520Y-142695150D01*
X208384132Y-142674107D01*
X208398747Y-142654401D01*
X208415223Y-142636223D01*
X208433401Y-142619747D01*
X208453107Y-142605132D01*
X208474150Y-142592520D01*
X208496329Y-142582030D01*
X208519428Y-142573765D01*
X208543227Y-142567804D01*
X208567495Y-142564204D01*
X208591999Y-142563000D01*
X209492001Y-142563000D01*
X209516505Y-142564204D01*
G37*
G36*
X209516505Y-140514204D02*
G01*
X209540773Y-140517804D01*
X209564572Y-140523765D01*
X209587671Y-140532030D01*
X209609850Y-140542520D01*
X209630893Y-140555132D01*
X209650599Y-140569747D01*
X209668777Y-140586223D01*
X209685253Y-140604401D01*
X209699868Y-140624107D01*
X209712480Y-140645150D01*
X209722970Y-140667329D01*
X209731235Y-140690428D01*
X209737196Y-140714227D01*
X209740796Y-140738495D01*
X209742000Y-140762999D01*
X209742000Y-141413001D01*
X209740796Y-141437505D01*
X209737196Y-141461773D01*
X209731235Y-141485572D01*
X209722970Y-141508671D01*
X209712480Y-141530850D01*
X209699868Y-141551893D01*
X209685253Y-141571599D01*
X209668777Y-141589777D01*
X209650599Y-141606253D01*
X209630893Y-141620868D01*
X209609850Y-141633480D01*
X209587671Y-141643970D01*
X209564572Y-141652235D01*
X209540773Y-141658196D01*
X209516505Y-141661796D01*
X209492001Y-141663000D01*
X208591999Y-141663000D01*
X208567495Y-141661796D01*
X208543227Y-141658196D01*
X208519428Y-141652235D01*
X208496329Y-141643970D01*
X208474150Y-141633480D01*
X208453107Y-141620868D01*
X208433401Y-141606253D01*
X208415223Y-141589777D01*
X208398747Y-141571599D01*
X208384132Y-141551893D01*
X208371520Y-141530850D01*
X208361030Y-141508671D01*
X208352765Y-141485572D01*
X208346804Y-141461773D01*
X208343204Y-141437505D01*
X208342000Y-141413001D01*
X208342000Y-140762999D01*
X208343204Y-140738495D01*
X208346804Y-140714227D01*
X208352765Y-140690428D01*
X208361030Y-140667329D01*
X208371520Y-140645150D01*
X208384132Y-140624107D01*
X208398747Y-140604401D01*
X208415223Y-140586223D01*
X208433401Y-140569747D01*
X208453107Y-140555132D01*
X208474150Y-140542520D01*
X208496329Y-140532030D01*
X208519428Y-140523765D01*
X208543227Y-140517804D01*
X208567495Y-140514204D01*
X208591999Y-140513000D01*
X209492001Y-140513000D01*
X209516505Y-140514204D01*
G37*
D12*
X224647000Y-144843500D03*
X222647000Y-145793500D03*
X222647000Y-143893500D03*
D11*
X228690000Y-146228000D03*
X228690000Y-149428000D03*
X233590000Y-146228000D03*
X233590000Y-149428000D03*
X234352000Y-123774000D03*
X234352000Y-120574000D03*
X229452000Y-123774000D03*
X229452000Y-120574000D03*
X239940000Y-135712000D03*
X239940000Y-132512000D03*
X235040000Y-135712000D03*
X235040000Y-132512000D03*
X223102000Y-134290000D03*
X223102000Y-137490000D03*
X228002000Y-134290000D03*
X228002000Y-137490000D03*
M02*
