G04 #@! TF.GenerationSoftware,KiCad,Pcbnew,5.1.5-1.fc31*
G04 #@! TF.CreationDate,2020-03-01T23:37:20+00:00*
G04 #@! TF.ProjectId,CatEars,43617445-6172-4732-9e6b-696361645f70,rev?*
G04 #@! TF.SameCoordinates,Original*
G04 #@! TF.FileFunction,Paste,Bot*
G04 #@! TF.FilePolarity,Positive*
%FSLAX46Y46*%
G04 Gerber Fmt 4.6, Leading zero omitted, Abs format (unit mm)*
G04 Created by KiCad (PCBNEW 5.1.5-1.fc31) date 2020-03-01 23:37:20*
%MOMM*%
%LPD*%
G04 APERTURE LIST*
%ADD10C,0.100000*%
%ADD11R,0.550000X1.600000*%
%ADD12R,1.600000X0.550000*%
G04 APERTURE END LIST*
D10*
G36*
X245722505Y-125539204D02*
G01*
X245746773Y-125542804D01*
X245770572Y-125548765D01*
X245793671Y-125557030D01*
X245815850Y-125567520D01*
X245836893Y-125580132D01*
X245856599Y-125594747D01*
X245874777Y-125611223D01*
X245891253Y-125629401D01*
X245905868Y-125649107D01*
X245918480Y-125670150D01*
X245928970Y-125692329D01*
X245937235Y-125715428D01*
X245943196Y-125739227D01*
X245946796Y-125763495D01*
X245948000Y-125787999D01*
X245948000Y-126688001D01*
X245946796Y-126712505D01*
X245943196Y-126736773D01*
X245937235Y-126760572D01*
X245928970Y-126783671D01*
X245918480Y-126805850D01*
X245905868Y-126826893D01*
X245891253Y-126846599D01*
X245874777Y-126864777D01*
X245856599Y-126881253D01*
X245836893Y-126895868D01*
X245815850Y-126908480D01*
X245793671Y-126918970D01*
X245770572Y-126927235D01*
X245746773Y-126933196D01*
X245722505Y-126936796D01*
X245698001Y-126938000D01*
X245047999Y-126938000D01*
X245023495Y-126936796D01*
X244999227Y-126933196D01*
X244975428Y-126927235D01*
X244952329Y-126918970D01*
X244930150Y-126908480D01*
X244909107Y-126895868D01*
X244889401Y-126881253D01*
X244871223Y-126864777D01*
X244854747Y-126846599D01*
X244840132Y-126826893D01*
X244827520Y-126805850D01*
X244817030Y-126783671D01*
X244808765Y-126760572D01*
X244802804Y-126736773D01*
X244799204Y-126712505D01*
X244798000Y-126688001D01*
X244798000Y-125787999D01*
X244799204Y-125763495D01*
X244802804Y-125739227D01*
X244808765Y-125715428D01*
X244817030Y-125692329D01*
X244827520Y-125670150D01*
X244840132Y-125649107D01*
X244854747Y-125629401D01*
X244871223Y-125611223D01*
X244889401Y-125594747D01*
X244909107Y-125580132D01*
X244930150Y-125567520D01*
X244952329Y-125557030D01*
X244975428Y-125548765D01*
X244999227Y-125542804D01*
X245023495Y-125539204D01*
X245047999Y-125538000D01*
X245698001Y-125538000D01*
X245722505Y-125539204D01*
G37*
G36*
X243672505Y-125539204D02*
G01*
X243696773Y-125542804D01*
X243720572Y-125548765D01*
X243743671Y-125557030D01*
X243765850Y-125567520D01*
X243786893Y-125580132D01*
X243806599Y-125594747D01*
X243824777Y-125611223D01*
X243841253Y-125629401D01*
X243855868Y-125649107D01*
X243868480Y-125670150D01*
X243878970Y-125692329D01*
X243887235Y-125715428D01*
X243893196Y-125739227D01*
X243896796Y-125763495D01*
X243898000Y-125787999D01*
X243898000Y-126688001D01*
X243896796Y-126712505D01*
X243893196Y-126736773D01*
X243887235Y-126760572D01*
X243878970Y-126783671D01*
X243868480Y-126805850D01*
X243855868Y-126826893D01*
X243841253Y-126846599D01*
X243824777Y-126864777D01*
X243806599Y-126881253D01*
X243786893Y-126895868D01*
X243765850Y-126908480D01*
X243743671Y-126918970D01*
X243720572Y-126927235D01*
X243696773Y-126933196D01*
X243672505Y-126936796D01*
X243648001Y-126938000D01*
X242997999Y-126938000D01*
X242973495Y-126936796D01*
X242949227Y-126933196D01*
X242925428Y-126927235D01*
X242902329Y-126918970D01*
X242880150Y-126908480D01*
X242859107Y-126895868D01*
X242839401Y-126881253D01*
X242821223Y-126864777D01*
X242804747Y-126846599D01*
X242790132Y-126826893D01*
X242777520Y-126805850D01*
X242767030Y-126783671D01*
X242758765Y-126760572D01*
X242752804Y-126736773D01*
X242749204Y-126712505D01*
X242748000Y-126688001D01*
X242748000Y-125787999D01*
X242749204Y-125763495D01*
X242752804Y-125739227D01*
X242758765Y-125715428D01*
X242767030Y-125692329D01*
X242777520Y-125670150D01*
X242790132Y-125649107D01*
X242804747Y-125629401D01*
X242821223Y-125611223D01*
X242839401Y-125594747D01*
X242859107Y-125580132D01*
X242880150Y-125567520D01*
X242902329Y-125557030D01*
X242925428Y-125548765D01*
X242949227Y-125542804D01*
X242973495Y-125539204D01*
X242997999Y-125538000D01*
X243648001Y-125538000D01*
X243672505Y-125539204D01*
G37*
G36*
X243672505Y-130111204D02*
G01*
X243696773Y-130114804D01*
X243720572Y-130120765D01*
X243743671Y-130129030D01*
X243765850Y-130139520D01*
X243786893Y-130152132D01*
X243806599Y-130166747D01*
X243824777Y-130183223D01*
X243841253Y-130201401D01*
X243855868Y-130221107D01*
X243868480Y-130242150D01*
X243878970Y-130264329D01*
X243887235Y-130287428D01*
X243893196Y-130311227D01*
X243896796Y-130335495D01*
X243898000Y-130359999D01*
X243898000Y-131260001D01*
X243896796Y-131284505D01*
X243893196Y-131308773D01*
X243887235Y-131332572D01*
X243878970Y-131355671D01*
X243868480Y-131377850D01*
X243855868Y-131398893D01*
X243841253Y-131418599D01*
X243824777Y-131436777D01*
X243806599Y-131453253D01*
X243786893Y-131467868D01*
X243765850Y-131480480D01*
X243743671Y-131490970D01*
X243720572Y-131499235D01*
X243696773Y-131505196D01*
X243672505Y-131508796D01*
X243648001Y-131510000D01*
X242997999Y-131510000D01*
X242973495Y-131508796D01*
X242949227Y-131505196D01*
X242925428Y-131499235D01*
X242902329Y-131490970D01*
X242880150Y-131480480D01*
X242859107Y-131467868D01*
X242839401Y-131453253D01*
X242821223Y-131436777D01*
X242804747Y-131418599D01*
X242790132Y-131398893D01*
X242777520Y-131377850D01*
X242767030Y-131355671D01*
X242758765Y-131332572D01*
X242752804Y-131308773D01*
X242749204Y-131284505D01*
X242748000Y-131260001D01*
X242748000Y-130359999D01*
X242749204Y-130335495D01*
X242752804Y-130311227D01*
X242758765Y-130287428D01*
X242767030Y-130264329D01*
X242777520Y-130242150D01*
X242790132Y-130221107D01*
X242804747Y-130201401D01*
X242821223Y-130183223D01*
X242839401Y-130166747D01*
X242859107Y-130152132D01*
X242880150Y-130139520D01*
X242902329Y-130129030D01*
X242925428Y-130120765D01*
X242949227Y-130114804D01*
X242973495Y-130111204D01*
X242997999Y-130110000D01*
X243648001Y-130110000D01*
X243672505Y-130111204D01*
G37*
G36*
X245722505Y-130111204D02*
G01*
X245746773Y-130114804D01*
X245770572Y-130120765D01*
X245793671Y-130129030D01*
X245815850Y-130139520D01*
X245836893Y-130152132D01*
X245856599Y-130166747D01*
X245874777Y-130183223D01*
X245891253Y-130201401D01*
X245905868Y-130221107D01*
X245918480Y-130242150D01*
X245928970Y-130264329D01*
X245937235Y-130287428D01*
X245943196Y-130311227D01*
X245946796Y-130335495D01*
X245948000Y-130359999D01*
X245948000Y-131260001D01*
X245946796Y-131284505D01*
X245943196Y-131308773D01*
X245937235Y-131332572D01*
X245928970Y-131355671D01*
X245918480Y-131377850D01*
X245905868Y-131398893D01*
X245891253Y-131418599D01*
X245874777Y-131436777D01*
X245856599Y-131453253D01*
X245836893Y-131467868D01*
X245815850Y-131480480D01*
X245793671Y-131490970D01*
X245770572Y-131499235D01*
X245746773Y-131505196D01*
X245722505Y-131508796D01*
X245698001Y-131510000D01*
X245047999Y-131510000D01*
X245023495Y-131508796D01*
X244999227Y-131505196D01*
X244975428Y-131499235D01*
X244952329Y-131490970D01*
X244930150Y-131480480D01*
X244909107Y-131467868D01*
X244889401Y-131453253D01*
X244871223Y-131436777D01*
X244854747Y-131418599D01*
X244840132Y-131398893D01*
X244827520Y-131377850D01*
X244817030Y-131355671D01*
X244808765Y-131332572D01*
X244802804Y-131308773D01*
X244799204Y-131284505D01*
X244798000Y-131260001D01*
X244798000Y-130359999D01*
X244799204Y-130335495D01*
X244802804Y-130311227D01*
X244808765Y-130287428D01*
X244817030Y-130264329D01*
X244827520Y-130242150D01*
X244840132Y-130221107D01*
X244854747Y-130201401D01*
X244871223Y-130183223D01*
X244889401Y-130166747D01*
X244909107Y-130152132D01*
X244930150Y-130139520D01*
X244952329Y-130129030D01*
X244975428Y-130120765D01*
X244999227Y-130114804D01*
X245023495Y-130111204D01*
X245047999Y-130110000D01*
X245698001Y-130110000D01*
X245722505Y-130111204D01*
G37*
G36*
X212591004Y-149667204D02*
G01*
X212615273Y-149670804D01*
X212639071Y-149676765D01*
X212662171Y-149685030D01*
X212684349Y-149695520D01*
X212705393Y-149708133D01*
X212725098Y-149722747D01*
X212743277Y-149739223D01*
X212759753Y-149757402D01*
X212774367Y-149777107D01*
X212786980Y-149798151D01*
X212797470Y-149820329D01*
X212805735Y-149843429D01*
X212811696Y-149867227D01*
X212815296Y-149891496D01*
X212816500Y-149916000D01*
X212816500Y-150916000D01*
X212815296Y-150940504D01*
X212811696Y-150964773D01*
X212805735Y-150988571D01*
X212797470Y-151011671D01*
X212786980Y-151033849D01*
X212774367Y-151054893D01*
X212759753Y-151074598D01*
X212743277Y-151092777D01*
X212725098Y-151109253D01*
X212705393Y-151123867D01*
X212684349Y-151136480D01*
X212662171Y-151146970D01*
X212639071Y-151155235D01*
X212615273Y-151161196D01*
X212591004Y-151164796D01*
X212566500Y-151166000D01*
X209666500Y-151166000D01*
X209641996Y-151164796D01*
X209617727Y-151161196D01*
X209593929Y-151155235D01*
X209570829Y-151146970D01*
X209548651Y-151136480D01*
X209527607Y-151123867D01*
X209507902Y-151109253D01*
X209489723Y-151092777D01*
X209473247Y-151074598D01*
X209458633Y-151054893D01*
X209446020Y-151033849D01*
X209435530Y-151011671D01*
X209427265Y-150988571D01*
X209421304Y-150964773D01*
X209417704Y-150940504D01*
X209416500Y-150916000D01*
X209416500Y-149916000D01*
X209417704Y-149891496D01*
X209421304Y-149867227D01*
X209427265Y-149843429D01*
X209435530Y-149820329D01*
X209446020Y-149798151D01*
X209458633Y-149777107D01*
X209473247Y-149757402D01*
X209489723Y-149739223D01*
X209507902Y-149722747D01*
X209527607Y-149708133D01*
X209548651Y-149695520D01*
X209570829Y-149685030D01*
X209593929Y-149676765D01*
X209617727Y-149670804D01*
X209641996Y-149667204D01*
X209666500Y-149666000D01*
X212566500Y-149666000D01*
X212591004Y-149667204D01*
G37*
G36*
X212591004Y-142967204D02*
G01*
X212615273Y-142970804D01*
X212639071Y-142976765D01*
X212662171Y-142985030D01*
X212684349Y-142995520D01*
X212705393Y-143008133D01*
X212725098Y-143022747D01*
X212743277Y-143039223D01*
X212759753Y-143057402D01*
X212774367Y-143077107D01*
X212786980Y-143098151D01*
X212797470Y-143120329D01*
X212805735Y-143143429D01*
X212811696Y-143167227D01*
X212815296Y-143191496D01*
X212816500Y-143216000D01*
X212816500Y-144216000D01*
X212815296Y-144240504D01*
X212811696Y-144264773D01*
X212805735Y-144288571D01*
X212797470Y-144311671D01*
X212786980Y-144333849D01*
X212774367Y-144354893D01*
X212759753Y-144374598D01*
X212743277Y-144392777D01*
X212725098Y-144409253D01*
X212705393Y-144423867D01*
X212684349Y-144436480D01*
X212662171Y-144446970D01*
X212639071Y-144455235D01*
X212615273Y-144461196D01*
X212591004Y-144464796D01*
X212566500Y-144466000D01*
X209666500Y-144466000D01*
X209641996Y-144464796D01*
X209617727Y-144461196D01*
X209593929Y-144455235D01*
X209570829Y-144446970D01*
X209548651Y-144436480D01*
X209527607Y-144423867D01*
X209507902Y-144409253D01*
X209489723Y-144392777D01*
X209473247Y-144374598D01*
X209458633Y-144354893D01*
X209446020Y-144333849D01*
X209435530Y-144311671D01*
X209427265Y-144288571D01*
X209421304Y-144264773D01*
X209417704Y-144240504D01*
X209416500Y-144216000D01*
X209416500Y-143216000D01*
X209417704Y-143191496D01*
X209421304Y-143167227D01*
X209427265Y-143143429D01*
X209435530Y-143120329D01*
X209446020Y-143098151D01*
X209458633Y-143077107D01*
X209473247Y-143057402D01*
X209489723Y-143039223D01*
X209507902Y-143022747D01*
X209527607Y-143008133D01*
X209548651Y-142995520D01*
X209570829Y-142985030D01*
X209593929Y-142976765D01*
X209617727Y-142970804D01*
X209641996Y-142967204D01*
X209666500Y-142966000D01*
X212566500Y-142966000D01*
X212591004Y-142967204D01*
G37*
G36*
X206891004Y-147567204D02*
G01*
X206915273Y-147570804D01*
X206939071Y-147576765D01*
X206962171Y-147585030D01*
X206984349Y-147595520D01*
X207005393Y-147608133D01*
X207025098Y-147622747D01*
X207043277Y-147639223D01*
X207059753Y-147657402D01*
X207074367Y-147677107D01*
X207086980Y-147698151D01*
X207097470Y-147720329D01*
X207105735Y-147743429D01*
X207111696Y-147767227D01*
X207115296Y-147791496D01*
X207116500Y-147816000D01*
X207116500Y-148316000D01*
X207115296Y-148340504D01*
X207111696Y-148364773D01*
X207105735Y-148388571D01*
X207097470Y-148411671D01*
X207086980Y-148433849D01*
X207074367Y-148454893D01*
X207059753Y-148474598D01*
X207043277Y-148492777D01*
X207025098Y-148509253D01*
X207005393Y-148523867D01*
X206984349Y-148536480D01*
X206962171Y-148546970D01*
X206939071Y-148555235D01*
X206915273Y-148561196D01*
X206891004Y-148564796D01*
X206866500Y-148566000D01*
X203866500Y-148566000D01*
X203841996Y-148564796D01*
X203817727Y-148561196D01*
X203793929Y-148555235D01*
X203770829Y-148546970D01*
X203748651Y-148536480D01*
X203727607Y-148523867D01*
X203707902Y-148509253D01*
X203689723Y-148492777D01*
X203673247Y-148474598D01*
X203658633Y-148454893D01*
X203646020Y-148433849D01*
X203635530Y-148411671D01*
X203627265Y-148388571D01*
X203621304Y-148364773D01*
X203617704Y-148340504D01*
X203616500Y-148316000D01*
X203616500Y-147816000D01*
X203617704Y-147791496D01*
X203621304Y-147767227D01*
X203627265Y-147743429D01*
X203635530Y-147720329D01*
X203646020Y-147698151D01*
X203658633Y-147677107D01*
X203673247Y-147657402D01*
X203689723Y-147639223D01*
X203707902Y-147622747D01*
X203727607Y-147608133D01*
X203748651Y-147595520D01*
X203770829Y-147585030D01*
X203793929Y-147576765D01*
X203817727Y-147570804D01*
X203841996Y-147567204D01*
X203866500Y-147566000D01*
X206866500Y-147566000D01*
X206891004Y-147567204D01*
G37*
G36*
X206891004Y-145567204D02*
G01*
X206915273Y-145570804D01*
X206939071Y-145576765D01*
X206962171Y-145585030D01*
X206984349Y-145595520D01*
X207005393Y-145608133D01*
X207025098Y-145622747D01*
X207043277Y-145639223D01*
X207059753Y-145657402D01*
X207074367Y-145677107D01*
X207086980Y-145698151D01*
X207097470Y-145720329D01*
X207105735Y-145743429D01*
X207111696Y-145767227D01*
X207115296Y-145791496D01*
X207116500Y-145816000D01*
X207116500Y-146316000D01*
X207115296Y-146340504D01*
X207111696Y-146364773D01*
X207105735Y-146388571D01*
X207097470Y-146411671D01*
X207086980Y-146433849D01*
X207074367Y-146454893D01*
X207059753Y-146474598D01*
X207043277Y-146492777D01*
X207025098Y-146509253D01*
X207005393Y-146523867D01*
X206984349Y-146536480D01*
X206962171Y-146546970D01*
X206939071Y-146555235D01*
X206915273Y-146561196D01*
X206891004Y-146564796D01*
X206866500Y-146566000D01*
X203866500Y-146566000D01*
X203841996Y-146564796D01*
X203817727Y-146561196D01*
X203793929Y-146555235D01*
X203770829Y-146546970D01*
X203748651Y-146536480D01*
X203727607Y-146523867D01*
X203707902Y-146509253D01*
X203689723Y-146492777D01*
X203673247Y-146474598D01*
X203658633Y-146454893D01*
X203646020Y-146433849D01*
X203635530Y-146411671D01*
X203627265Y-146388571D01*
X203621304Y-146364773D01*
X203617704Y-146340504D01*
X203616500Y-146316000D01*
X203616500Y-145816000D01*
X203617704Y-145791496D01*
X203621304Y-145767227D01*
X203627265Y-145743429D01*
X203635530Y-145720329D01*
X203646020Y-145698151D01*
X203658633Y-145677107D01*
X203673247Y-145657402D01*
X203689723Y-145639223D01*
X203707902Y-145622747D01*
X203727607Y-145608133D01*
X203748651Y-145595520D01*
X203770829Y-145585030D01*
X203793929Y-145576765D01*
X203817727Y-145570804D01*
X203841996Y-145567204D01*
X203866500Y-145566000D01*
X206866500Y-145566000D01*
X206891004Y-145567204D01*
G37*
G36*
X218272505Y-126301204D02*
G01*
X218296773Y-126304804D01*
X218320572Y-126310765D01*
X218343671Y-126319030D01*
X218365850Y-126329520D01*
X218386893Y-126342132D01*
X218406599Y-126356747D01*
X218424777Y-126373223D01*
X218441253Y-126391401D01*
X218455868Y-126411107D01*
X218468480Y-126432150D01*
X218478970Y-126454329D01*
X218487235Y-126477428D01*
X218493196Y-126501227D01*
X218496796Y-126525495D01*
X218498000Y-126549999D01*
X218498000Y-127450001D01*
X218496796Y-127474505D01*
X218493196Y-127498773D01*
X218487235Y-127522572D01*
X218478970Y-127545671D01*
X218468480Y-127567850D01*
X218455868Y-127588893D01*
X218441253Y-127608599D01*
X218424777Y-127626777D01*
X218406599Y-127643253D01*
X218386893Y-127657868D01*
X218365850Y-127670480D01*
X218343671Y-127680970D01*
X218320572Y-127689235D01*
X218296773Y-127695196D01*
X218272505Y-127698796D01*
X218248001Y-127700000D01*
X217597999Y-127700000D01*
X217573495Y-127698796D01*
X217549227Y-127695196D01*
X217525428Y-127689235D01*
X217502329Y-127680970D01*
X217480150Y-127670480D01*
X217459107Y-127657868D01*
X217439401Y-127643253D01*
X217421223Y-127626777D01*
X217404747Y-127608599D01*
X217390132Y-127588893D01*
X217377520Y-127567850D01*
X217367030Y-127545671D01*
X217358765Y-127522572D01*
X217352804Y-127498773D01*
X217349204Y-127474505D01*
X217348000Y-127450001D01*
X217348000Y-126549999D01*
X217349204Y-126525495D01*
X217352804Y-126501227D01*
X217358765Y-126477428D01*
X217367030Y-126454329D01*
X217377520Y-126432150D01*
X217390132Y-126411107D01*
X217404747Y-126391401D01*
X217421223Y-126373223D01*
X217439401Y-126356747D01*
X217459107Y-126342132D01*
X217480150Y-126329520D01*
X217502329Y-126319030D01*
X217525428Y-126310765D01*
X217549227Y-126304804D01*
X217573495Y-126301204D01*
X217597999Y-126300000D01*
X218248001Y-126300000D01*
X218272505Y-126301204D01*
G37*
G36*
X220322505Y-126301204D02*
G01*
X220346773Y-126304804D01*
X220370572Y-126310765D01*
X220393671Y-126319030D01*
X220415850Y-126329520D01*
X220436893Y-126342132D01*
X220456599Y-126356747D01*
X220474777Y-126373223D01*
X220491253Y-126391401D01*
X220505868Y-126411107D01*
X220518480Y-126432150D01*
X220528970Y-126454329D01*
X220537235Y-126477428D01*
X220543196Y-126501227D01*
X220546796Y-126525495D01*
X220548000Y-126549999D01*
X220548000Y-127450001D01*
X220546796Y-127474505D01*
X220543196Y-127498773D01*
X220537235Y-127522572D01*
X220528970Y-127545671D01*
X220518480Y-127567850D01*
X220505868Y-127588893D01*
X220491253Y-127608599D01*
X220474777Y-127626777D01*
X220456599Y-127643253D01*
X220436893Y-127657868D01*
X220415850Y-127670480D01*
X220393671Y-127680970D01*
X220370572Y-127689235D01*
X220346773Y-127695196D01*
X220322505Y-127698796D01*
X220298001Y-127700000D01*
X219647999Y-127700000D01*
X219623495Y-127698796D01*
X219599227Y-127695196D01*
X219575428Y-127689235D01*
X219552329Y-127680970D01*
X219530150Y-127670480D01*
X219509107Y-127657868D01*
X219489401Y-127643253D01*
X219471223Y-127626777D01*
X219454747Y-127608599D01*
X219440132Y-127588893D01*
X219427520Y-127567850D01*
X219417030Y-127545671D01*
X219408765Y-127522572D01*
X219402804Y-127498773D01*
X219399204Y-127474505D01*
X219398000Y-127450001D01*
X219398000Y-126549999D01*
X219399204Y-126525495D01*
X219402804Y-126501227D01*
X219408765Y-126477428D01*
X219417030Y-126454329D01*
X219427520Y-126432150D01*
X219440132Y-126411107D01*
X219454747Y-126391401D01*
X219471223Y-126373223D01*
X219489401Y-126356747D01*
X219509107Y-126342132D01*
X219530150Y-126329520D01*
X219552329Y-126319030D01*
X219575428Y-126310765D01*
X219599227Y-126304804D01*
X219623495Y-126301204D01*
X219647999Y-126300000D01*
X220298001Y-126300000D01*
X220322505Y-126301204D01*
G37*
G36*
X218272505Y-128460204D02*
G01*
X218296773Y-128463804D01*
X218320572Y-128469765D01*
X218343671Y-128478030D01*
X218365850Y-128488520D01*
X218386893Y-128501132D01*
X218406599Y-128515747D01*
X218424777Y-128532223D01*
X218441253Y-128550401D01*
X218455868Y-128570107D01*
X218468480Y-128591150D01*
X218478970Y-128613329D01*
X218487235Y-128636428D01*
X218493196Y-128660227D01*
X218496796Y-128684495D01*
X218498000Y-128708999D01*
X218498000Y-129609001D01*
X218496796Y-129633505D01*
X218493196Y-129657773D01*
X218487235Y-129681572D01*
X218478970Y-129704671D01*
X218468480Y-129726850D01*
X218455868Y-129747893D01*
X218441253Y-129767599D01*
X218424777Y-129785777D01*
X218406599Y-129802253D01*
X218386893Y-129816868D01*
X218365850Y-129829480D01*
X218343671Y-129839970D01*
X218320572Y-129848235D01*
X218296773Y-129854196D01*
X218272505Y-129857796D01*
X218248001Y-129859000D01*
X217597999Y-129859000D01*
X217573495Y-129857796D01*
X217549227Y-129854196D01*
X217525428Y-129848235D01*
X217502329Y-129839970D01*
X217480150Y-129829480D01*
X217459107Y-129816868D01*
X217439401Y-129802253D01*
X217421223Y-129785777D01*
X217404747Y-129767599D01*
X217390132Y-129747893D01*
X217377520Y-129726850D01*
X217367030Y-129704671D01*
X217358765Y-129681572D01*
X217352804Y-129657773D01*
X217349204Y-129633505D01*
X217348000Y-129609001D01*
X217348000Y-128708999D01*
X217349204Y-128684495D01*
X217352804Y-128660227D01*
X217358765Y-128636428D01*
X217367030Y-128613329D01*
X217377520Y-128591150D01*
X217390132Y-128570107D01*
X217404747Y-128550401D01*
X217421223Y-128532223D01*
X217439401Y-128515747D01*
X217459107Y-128501132D01*
X217480150Y-128488520D01*
X217502329Y-128478030D01*
X217525428Y-128469765D01*
X217549227Y-128463804D01*
X217573495Y-128460204D01*
X217597999Y-128459000D01*
X218248001Y-128459000D01*
X218272505Y-128460204D01*
G37*
G36*
X220322505Y-128460204D02*
G01*
X220346773Y-128463804D01*
X220370572Y-128469765D01*
X220393671Y-128478030D01*
X220415850Y-128488520D01*
X220436893Y-128501132D01*
X220456599Y-128515747D01*
X220474777Y-128532223D01*
X220491253Y-128550401D01*
X220505868Y-128570107D01*
X220518480Y-128591150D01*
X220528970Y-128613329D01*
X220537235Y-128636428D01*
X220543196Y-128660227D01*
X220546796Y-128684495D01*
X220548000Y-128708999D01*
X220548000Y-129609001D01*
X220546796Y-129633505D01*
X220543196Y-129657773D01*
X220537235Y-129681572D01*
X220528970Y-129704671D01*
X220518480Y-129726850D01*
X220505868Y-129747893D01*
X220491253Y-129767599D01*
X220474777Y-129785777D01*
X220456599Y-129802253D01*
X220436893Y-129816868D01*
X220415850Y-129829480D01*
X220393671Y-129839970D01*
X220370572Y-129848235D01*
X220346773Y-129854196D01*
X220322505Y-129857796D01*
X220298001Y-129859000D01*
X219647999Y-129859000D01*
X219623495Y-129857796D01*
X219599227Y-129854196D01*
X219575428Y-129848235D01*
X219552329Y-129839970D01*
X219530150Y-129829480D01*
X219509107Y-129816868D01*
X219489401Y-129802253D01*
X219471223Y-129785777D01*
X219454747Y-129767599D01*
X219440132Y-129747893D01*
X219427520Y-129726850D01*
X219417030Y-129704671D01*
X219408765Y-129681572D01*
X219402804Y-129657773D01*
X219399204Y-129633505D01*
X219398000Y-129609001D01*
X219398000Y-128708999D01*
X219399204Y-128684495D01*
X219402804Y-128660227D01*
X219408765Y-128636428D01*
X219417030Y-128613329D01*
X219427520Y-128591150D01*
X219440132Y-128570107D01*
X219454747Y-128550401D01*
X219471223Y-128532223D01*
X219489401Y-128515747D01*
X219509107Y-128501132D01*
X219530150Y-128488520D01*
X219552329Y-128478030D01*
X219575428Y-128469765D01*
X219599227Y-128463804D01*
X219623495Y-128460204D01*
X219647999Y-128459000D01*
X220298001Y-128459000D01*
X220322505Y-128460204D01*
G37*
D11*
X219450000Y-141791000D03*
X220250000Y-141791000D03*
X221050000Y-141791000D03*
X221850000Y-141791000D03*
X222650000Y-141791000D03*
X223450000Y-141791000D03*
X224250000Y-141791000D03*
X225050000Y-141791000D03*
D12*
X226500000Y-140341000D03*
X226500000Y-139541000D03*
X226500000Y-138741000D03*
X226500000Y-137941000D03*
X226500000Y-137141000D03*
X226500000Y-136341000D03*
X226500000Y-135541000D03*
X226500000Y-134741000D03*
D11*
X225050000Y-133291000D03*
X224250000Y-133291000D03*
X223450000Y-133291000D03*
X222650000Y-133291000D03*
X221850000Y-133291000D03*
X221050000Y-133291000D03*
X220250000Y-133291000D03*
X219450000Y-133291000D03*
D12*
X218000000Y-134741000D03*
X218000000Y-135541000D03*
X218000000Y-136341000D03*
X218000000Y-137141000D03*
X218000000Y-137941000D03*
X218000000Y-138741000D03*
X218000000Y-139541000D03*
X218000000Y-140341000D03*
D10*
G36*
X230460306Y-145674237D02*
G01*
X231804723Y-145131058D01*
X232235520Y-146197319D01*
X230891103Y-146740498D01*
X230460306Y-145674237D01*
G37*
G36*
X232198481Y-149976370D02*
G01*
X233542898Y-149433191D01*
X233973695Y-150499452D01*
X232629278Y-151042631D01*
X232198481Y-149976370D01*
G37*
G36*
X232654583Y-145752980D02*
G01*
X234416232Y-145041228D01*
X235071793Y-146663800D01*
X233310144Y-147375552D01*
X232654583Y-145752980D01*
G37*
G36*
X231103633Y-148320968D02*
G01*
X232401690Y-147796519D01*
X232551533Y-148167392D01*
X231253476Y-148691841D01*
X231103633Y-148320968D01*
G37*
G36*
X231347128Y-148923637D02*
G01*
X232645185Y-148399188D01*
X232795028Y-148770061D01*
X231496971Y-149294510D01*
X231347128Y-148923637D01*
G37*
G36*
X231590622Y-149526307D02*
G01*
X232888679Y-149001858D01*
X233038522Y-149372731D01*
X231740465Y-149897180D01*
X231590622Y-149526307D01*
G37*
G36*
X230616645Y-147115629D02*
G01*
X231914702Y-146591180D01*
X232064545Y-146962053D01*
X230766488Y-147486502D01*
X230616645Y-147115629D01*
G37*
G36*
X230860139Y-147718298D02*
G01*
X232158196Y-147193849D01*
X232308039Y-147564722D01*
X231009982Y-148089171D01*
X230860139Y-147718298D01*
G37*
G36*
X233497448Y-147839144D02*
G01*
X235259097Y-147127392D01*
X235914658Y-148749964D01*
X234153009Y-149461716D01*
X233497448Y-147839144D01*
G37*
M02*
