M48
; DRILL file {KiCad 5.1.5-1.fc31} date Sun 01 Mar 2020 23:37:24 GMT
; FORMAT={-:-/ absolute / inch / decimal}
; #@! TF.CreationDate,2020-03-01T23:37:24+00:00
; #@! TF.GenerationSoftware,Kicad,Pcbnew,5.1.5-1.fc31
; #@! TF.FileFunction,Plated,1,2,PTH
FMAT,2
INCH
T1C0.0157
T2C0.0177
T3C0.0394
%
G90
G05
T1
X8.0675Y-5.6425
X8.1575Y-5.8975
X8.4125Y-5.184
X8.4474Y-5.37
X8.4625Y-5.215
X8.4725Y-5.755
X8.5249Y-5.2599
X8.595Y-5.2075
X8.61Y-4.645
X8.645Y-5.3475
X8.6675Y-4.8925
X8.7025Y-5.145
X8.705Y-5.5325
X8.735Y-5.4975
X8.74Y-5.34
X8.7548Y-5.3028
X8.79Y-5.526
X8.855Y-5.0375
X8.86Y-5.815
X8.9175Y-5.575
X8.925Y-5.85
X9.0258Y-5.7108
X9.115Y-5.91
X9.4625Y-4.85
X9.5025Y-5.3175
X9.6325Y-5.21
X9.66Y-4.9225
T3
X9.52Y-4.76
X9.62Y-4.76
X9.72Y-4.76
X8.66Y-5.9275
X8.76Y-5.9275
X8.86Y-5.9275
T2
G00X9.1565Y-5.6727
M15
G01X9.1857Y-5.6609
M16
G05
G00X9.2911Y-5.9219
M15
G01X9.2619Y-5.9337
M16
G05
T0
M30
