G04 #@! TF.GenerationSoftware,KiCad,Pcbnew,5.1.5-1.fc31*
G04 #@! TF.CreationDate,2020-03-02T06:52:43+00:00*
G04 #@! TF.ProjectId,CatEars,43617445-6172-4732-9e6b-696361645f70,rev?*
G04 #@! TF.SameCoordinates,Original*
G04 #@! TF.FileFunction,Soldermask,Bot*
G04 #@! TF.FilePolarity,Negative*
%FSLAX46Y46*%
G04 Gerber Fmt 4.6, Leading zero omitted, Abs format (unit mm)*
G04 Created by KiCad (PCBNEW 5.1.5-1.fc31) date 2020-03-02 06:52:43*
%MOMM*%
%LPD*%
G04 APERTURE LIST*
%ADD10C,0.200642*%
%ADD11C,0.100000*%
G04 APERTURE END LIST*
D10*
X217337322Y-120201594D02*
X217347643Y-120176505D01*
X219608205Y-120266677D02*
X219102449Y-121448822D01*
X219733853Y-119619778D02*
X219738619Y-119645388D01*
X219630592Y-119416072D02*
X219644243Y-119431740D01*
X219551464Y-119348940D02*
X219568594Y-119360846D01*
X219701190Y-119521580D02*
X219711500Y-119545429D01*
X218755563Y-119688830D02*
X218795974Y-119617693D01*
X219689360Y-119498255D02*
X219701190Y-119521580D01*
X219148114Y-119284628D02*
X219168269Y-119279471D01*
X219585116Y-119373520D02*
X219600986Y-119386954D01*
X218585039Y-121244387D02*
X218319861Y-121154569D01*
X218566929Y-120092821D02*
X218565208Y-120105762D01*
X218242167Y-119872952D02*
X218303719Y-119894354D01*
X219128266Y-119290723D02*
X219148114Y-119284628D01*
X219739784Y-119832832D02*
X219731345Y-119888032D01*
X219731345Y-119888032D02*
X219719778Y-119943481D01*
X217386998Y-120103559D02*
X217402706Y-120080216D01*
X219251080Y-119268060D02*
X219272112Y-119267469D01*
X218046291Y-119826130D02*
X218112317Y-119838395D01*
X217497881Y-119973436D02*
X217519806Y-119954481D01*
X218414396Y-119943179D02*
X218461248Y-119969711D01*
X217801361Y-119820891D02*
X217857446Y-119814738D01*
X217402706Y-120080216D02*
X217419606Y-120057456D01*
X218072406Y-121067535D02*
X218014301Y-121045009D01*
X217376827Y-120569720D02*
X217362554Y-120543061D01*
X217314053Y-120407742D02*
X217310617Y-120381997D01*
X219085272Y-121448850D02*
X219029114Y-121420656D01*
X219029114Y-121420656D02*
X218970487Y-121393344D01*
X218970487Y-121393344D02*
X218847117Y-121341107D01*
X219209323Y-119271938D02*
X219230136Y-119269546D01*
X217784035Y-120937818D02*
X217728808Y-120906256D01*
X219738619Y-119645388D02*
X219742131Y-119671354D01*
X218795974Y-119617693D02*
X218839211Y-119548894D01*
X219711500Y-119545429D02*
X219720346Y-119569767D01*
X219070996Y-119314715D02*
X219089664Y-119305759D01*
X218587302Y-120057077D02*
X218627490Y-119958307D01*
X219272112Y-119267469D02*
X219314271Y-119268950D01*
X218562784Y-120117005D02*
X218565835Y-120111358D01*
X218565835Y-120111358D02*
X218587302Y-120057077D01*
X217408731Y-120620878D02*
X217376827Y-120569720D01*
X219600986Y-119386954D02*
X219616158Y-119401142D01*
X218014301Y-121045009D02*
X217956051Y-121020873D01*
X217309493Y-120330190D02*
X217311682Y-120304248D01*
X217519806Y-119954481D02*
X217542551Y-119936465D01*
X218544518Y-120038654D02*
X218554229Y-120052445D01*
X219742131Y-119671354D02*
X219744439Y-119697646D01*
X217746529Y-119833194D02*
X217773846Y-119826277D01*
X217444810Y-120669241D02*
X217408731Y-120620878D01*
X217326987Y-120458623D02*
X217319489Y-120433303D01*
X219356259Y-119273926D02*
X219397730Y-119282329D01*
X217456733Y-120013923D02*
X217476834Y-119993271D01*
X219644243Y-119431740D02*
X219660941Y-119453302D01*
X219035147Y-119335547D02*
X219035147Y-119335547D01*
X218565208Y-120105762D02*
X218562784Y-120117005D01*
X219744675Y-119778144D02*
X219739784Y-119832832D01*
X218565208Y-120105762D02*
X218565208Y-120105762D01*
X219168269Y-119279471D02*
X219188686Y-119275244D01*
X218718245Y-119760382D02*
X218755563Y-119688830D01*
X219314271Y-119268950D02*
X219356259Y-119273926D01*
X218532301Y-120024789D02*
X218544518Y-120038654D01*
X219188686Y-119275244D02*
X219209323Y-119271938D01*
X219745598Y-119724231D02*
X219744675Y-119778144D01*
X218627490Y-119958307D02*
X218684283Y-119830429D01*
X219568594Y-119360846D02*
X219585116Y-119373520D01*
X217326987Y-120458623D02*
X217326987Y-120458623D01*
X219052810Y-119324642D02*
X219070996Y-119314715D01*
X217590248Y-119903483D02*
X217615077Y-119888635D01*
X217675237Y-120872588D02*
X217623681Y-120836719D01*
X218847117Y-121341107D02*
X218717767Y-121291627D01*
X217528054Y-120757977D02*
X217484704Y-120714908D01*
X218192617Y-121110961D02*
X218072406Y-121067535D01*
X217666381Y-119862522D02*
X217692734Y-119851375D01*
X217615077Y-119888635D02*
X217640475Y-119874962D01*
X219727780Y-119594560D02*
X219733853Y-119619778D01*
X217566053Y-119919446D02*
X217590248Y-119903483D01*
X219438334Y-119294097D02*
X219477724Y-119309164D01*
X219675961Y-119475485D02*
X219689360Y-119498255D01*
X217310617Y-120381997D02*
X217309117Y-120356126D01*
X217362554Y-120543061D02*
X217349460Y-120515667D01*
X217437636Y-120035338D02*
X217456733Y-120013923D01*
X217419606Y-120057456D02*
X217437636Y-120035338D01*
X219397730Y-119282329D02*
X219438334Y-119294097D01*
X218983246Y-119375759D02*
X219008992Y-119354279D01*
X217857446Y-119814738D02*
X217917720Y-119813857D01*
X217359405Y-120151764D02*
X217372543Y-120127429D01*
X218500929Y-119997063D02*
X218532301Y-120024789D01*
X219719778Y-119943481D02*
X219705501Y-119998917D01*
X219650625Y-120162507D02*
X219608205Y-120266677D01*
X217728808Y-120906256D02*
X217675237Y-120872588D01*
X219008992Y-119354279D02*
X219035147Y-119335547D01*
X217840558Y-120967376D02*
X217784035Y-120937818D01*
X219515550Y-119327467D02*
X219533767Y-119337811D01*
X218554229Y-120052445D02*
X218561297Y-120066107D01*
X219644243Y-119431740D02*
X219644243Y-119431740D01*
X219616158Y-119401142D02*
X219630592Y-119416072D01*
X218684283Y-119830429D02*
X218718245Y-119760382D01*
X218717767Y-121291627D02*
X218585039Y-121244387D01*
X217574499Y-120798548D02*
X217528054Y-120757977D01*
X219496854Y-119317915D02*
X219515550Y-119327467D01*
X217347643Y-120176505D02*
X217359405Y-120151764D01*
X219688935Y-120054074D02*
X219670504Y-120108693D01*
X217692734Y-119851375D02*
X217719470Y-119841579D01*
X219720346Y-119569767D02*
X219727780Y-119594560D01*
X217319489Y-120433303D02*
X217314053Y-120407742D01*
X219108768Y-119297764D02*
X219128266Y-119290723D01*
X218303719Y-119894354D02*
X218361507Y-119917911D01*
X217956051Y-121020873D02*
X217898018Y-120995029D01*
X217349460Y-120515667D02*
X217337588Y-120487525D01*
X217315621Y-120278358D02*
X217321249Y-120252579D01*
X217981047Y-119817803D02*
X218046291Y-119826130D01*
X217372543Y-120127429D02*
X217386998Y-120103559D01*
X218561297Y-120066107D02*
X218565576Y-120079584D01*
X217328503Y-120226972D02*
X217337322Y-120201594D01*
X217484704Y-120714908D02*
X217444810Y-120669241D01*
X217898018Y-120995029D02*
X217840558Y-120967376D01*
X217337588Y-120487525D02*
X217326987Y-120458623D01*
X217640475Y-119874962D02*
X217666381Y-119862522D01*
X217801361Y-119820891D02*
X217801361Y-119820891D01*
X217476834Y-119993271D02*
X217497881Y-119973436D01*
X219533767Y-119337811D02*
X219551464Y-119348940D01*
X218908792Y-119454287D02*
X218933112Y-119426003D01*
X219744439Y-119697646D02*
X219745598Y-119724231D01*
X218461248Y-119969711D02*
X218500929Y-119997063D01*
X218933112Y-119426003D02*
X218957942Y-119399748D01*
X218319861Y-121154569D02*
X218192617Y-121110961D01*
X218839211Y-119548894D02*
X218885013Y-119484356D01*
X219670504Y-120108693D02*
X219650625Y-120162507D01*
X218112317Y-119838395D02*
X218177987Y-119854151D01*
X217542551Y-119936465D02*
X217566053Y-119919446D01*
X218072406Y-121067535D02*
X218072406Y-121067535D01*
X219705501Y-119998917D02*
X219688935Y-120054074D01*
X219608205Y-120266677D02*
X219608205Y-120266677D01*
X218177987Y-119854151D02*
X218242167Y-119872952D01*
X218361507Y-119917911D02*
X218414396Y-119943179D01*
X219089664Y-119305759D02*
X219108768Y-119297764D01*
X217311682Y-120304248D02*
X217315621Y-120278358D01*
X219035147Y-119335547D02*
X219052810Y-119324642D01*
X217719470Y-119841579D02*
X217746529Y-119833194D01*
X217309117Y-120356126D02*
X217309493Y-120330190D01*
X219660941Y-119453302D02*
X219675961Y-119475485D01*
X219230136Y-119269546D02*
X219251080Y-119268060D01*
X218565576Y-120079584D02*
X218566929Y-120092821D01*
X217623681Y-120836719D02*
X217574499Y-120798548D01*
X218885013Y-119484356D02*
X218908792Y-119454287D01*
X219477724Y-119309164D02*
X219496854Y-119317915D01*
X217321249Y-120252579D02*
X217328503Y-120226972D01*
X218957942Y-119399748D02*
X218983246Y-119375759D01*
X217917720Y-119813857D02*
X217981047Y-119817803D01*
X217773846Y-119826277D02*
X217801361Y-119820891D01*
D11*
G36*
X220226754Y-149692317D02*
G01*
X220390689Y-149760221D01*
X220538227Y-149858803D01*
X220663697Y-149984273D01*
X220762279Y-150131811D01*
X220830183Y-150295746D01*
X220864800Y-150469779D01*
X220864800Y-150647221D01*
X220830183Y-150821254D01*
X220762279Y-150985189D01*
X220663697Y-151132727D01*
X220538227Y-151258197D01*
X220390689Y-151356779D01*
X220226754Y-151424683D01*
X220052721Y-151459300D01*
X219875279Y-151459300D01*
X219701246Y-151424683D01*
X219537311Y-151356779D01*
X219389773Y-151258197D01*
X219264303Y-151132727D01*
X219165721Y-150985189D01*
X219097817Y-150821254D01*
X219063200Y-150647221D01*
X219063200Y-150469779D01*
X219097817Y-150295746D01*
X219165721Y-150131811D01*
X219264303Y-149984273D01*
X219389773Y-149858803D01*
X219537311Y-149760221D01*
X219701246Y-149692317D01*
X219875279Y-149657700D01*
X220052721Y-149657700D01*
X220226754Y-149692317D01*
G37*
G36*
X222766754Y-149692317D02*
G01*
X222930689Y-149760221D01*
X223078227Y-149858803D01*
X223203697Y-149984273D01*
X223302279Y-150131811D01*
X223370183Y-150295746D01*
X223404800Y-150469779D01*
X223404800Y-150647221D01*
X223370183Y-150821254D01*
X223302279Y-150985189D01*
X223203697Y-151132727D01*
X223078227Y-151258197D01*
X222930689Y-151356779D01*
X222766754Y-151424683D01*
X222592721Y-151459300D01*
X222415279Y-151459300D01*
X222241246Y-151424683D01*
X222077311Y-151356779D01*
X221929773Y-151258197D01*
X221804303Y-151132727D01*
X221705721Y-150985189D01*
X221637817Y-150821254D01*
X221603200Y-150647221D01*
X221603200Y-150469779D01*
X221637817Y-150295746D01*
X221705721Y-150131811D01*
X221804303Y-149984273D01*
X221929773Y-149858803D01*
X222077311Y-149760221D01*
X222241246Y-149692317D01*
X222415279Y-149657700D01*
X222592721Y-149657700D01*
X222766754Y-149692317D01*
G37*
G36*
X225944800Y-151459300D02*
G01*
X224143200Y-151459300D01*
X224143200Y-149657700D01*
X225944800Y-149657700D01*
X225944800Y-151459300D01*
G37*
G36*
X236117357Y-149838514D02*
G01*
X236135716Y-149840484D01*
X236206015Y-149862481D01*
X236243963Y-149874355D01*
X236343523Y-149928693D01*
X236430568Y-150001410D01*
X236501755Y-150089711D01*
X236554347Y-150190204D01*
X236586324Y-150299026D01*
X236596456Y-150411995D01*
X236590255Y-150469779D01*
X236584354Y-150524771D01*
X236550484Y-150633017D01*
X236550483Y-150633018D01*
X236496145Y-150732577D01*
X236423428Y-150819622D01*
X236335127Y-150890809D01*
X236259819Y-150930221D01*
X235419256Y-151269831D01*
X235337706Y-151293794D01*
X235224738Y-151303926D01*
X235124064Y-151293123D01*
X235111962Y-151291824D01*
X235003718Y-151257954D01*
X235003715Y-151257953D01*
X234904155Y-151203615D01*
X234817110Y-151130898D01*
X234745923Y-151042597D01*
X234693331Y-150942104D01*
X234661354Y-150833282D01*
X234651222Y-150720314D01*
X234663324Y-150607539D01*
X234689223Y-150524770D01*
X234697194Y-150499294D01*
X234697195Y-150499291D01*
X234751533Y-150399731D01*
X234824250Y-150312686D01*
X234912551Y-150241499D01*
X234987860Y-150202087D01*
X235828421Y-149862477D01*
X235909971Y-149838514D01*
X236022940Y-149828382D01*
X236117357Y-149838514D01*
G37*
G36*
X212759574Y-149618716D02*
G01*
X212784456Y-149626264D01*
X212807386Y-149638521D01*
X212827485Y-149655015D01*
X212843979Y-149675114D01*
X212856236Y-149698044D01*
X212863784Y-149722926D01*
X212867300Y-149758626D01*
X212867300Y-151073374D01*
X212863784Y-151109074D01*
X212856236Y-151133956D01*
X212843979Y-151156886D01*
X212827485Y-151176985D01*
X212807386Y-151193479D01*
X212784456Y-151205736D01*
X212759574Y-151213284D01*
X212723874Y-151216800D01*
X209509126Y-151216800D01*
X209473426Y-151213284D01*
X209448544Y-151205736D01*
X209425614Y-151193479D01*
X209405515Y-151176985D01*
X209389021Y-151156886D01*
X209376764Y-151133956D01*
X209369216Y-151109074D01*
X209365700Y-151073374D01*
X209365700Y-149758626D01*
X209369216Y-149722926D01*
X209376764Y-149698044D01*
X209389021Y-149675114D01*
X209405515Y-149655015D01*
X209425614Y-149638521D01*
X209448544Y-149626264D01*
X209473426Y-149618716D01*
X209509126Y-149615200D01*
X212723874Y-149615200D01*
X212759574Y-149618716D01*
G37*
G36*
X232301651Y-146225390D02*
G01*
X232074490Y-146317169D01*
X232039753Y-146335349D01*
X232009230Y-146359956D01*
X231984094Y-146390045D01*
X231965311Y-146424459D01*
X231953603Y-146461877D01*
X231949420Y-146500860D01*
X231952922Y-146539910D01*
X231963975Y-146577525D01*
X232010174Y-146691871D01*
X232205597Y-147175560D01*
X232313117Y-147441683D01*
X232355089Y-147545565D01*
X232449087Y-147778220D01*
X232449090Y-147778229D01*
X232598335Y-148147621D01*
X232673256Y-148333057D01*
X232853039Y-148778034D01*
X232936076Y-148983559D01*
X232936079Y-148983567D01*
X233069098Y-149312800D01*
X233083450Y-149348324D01*
X233101630Y-149383061D01*
X233126237Y-149413584D01*
X233156326Y-149438720D01*
X233190740Y-149457503D01*
X233228158Y-149469211D01*
X233267141Y-149473394D01*
X233306191Y-149469892D01*
X233343807Y-149458839D01*
X233570968Y-149367060D01*
X234039826Y-150527523D01*
X232601208Y-151108762D01*
X232408995Y-150633018D01*
X232153551Y-150000773D01*
X232135373Y-149966040D01*
X232110766Y-149935517D01*
X232080677Y-149910381D01*
X232046263Y-149891598D01*
X232008845Y-149879890D01*
X231969862Y-149875707D01*
X231930812Y-149879209D01*
X231893198Y-149890261D01*
X231712394Y-149963311D01*
X231678690Y-149879890D01*
X231524491Y-149498236D01*
X231449574Y-149312809D01*
X231449571Y-149312800D01*
X231300326Y-148943408D01*
X231166230Y-148611508D01*
X231037502Y-148292897D01*
X230962585Y-148107470D01*
X230962582Y-148107461D01*
X230842833Y-147811073D01*
X230794008Y-147690227D01*
X230719087Y-147504791D01*
X230550514Y-147087558D01*
X230731316Y-147014509D01*
X230766053Y-146996329D01*
X230796576Y-146971722D01*
X230821712Y-146941633D01*
X230840495Y-146907219D01*
X230852203Y-146869801D01*
X230856386Y-146830818D01*
X230852884Y-146791768D01*
X230841831Y-146754152D01*
X230730192Y-146477835D01*
X230394175Y-145646166D01*
X231832793Y-145064927D01*
X232301651Y-146225390D01*
G37*
G36*
X235212247Y-146875825D02*
G01*
X235840811Y-148431575D01*
X235980789Y-148778035D01*
X234124938Y-149527847D01*
X233905035Y-148983568D01*
X233356396Y-147625638D01*
X233174553Y-147175560D01*
X232899348Y-146494404D01*
X232588452Y-145724910D01*
X232588452Y-145724909D01*
X234444303Y-144975097D01*
X235212247Y-146875825D01*
G37*
G36*
X207025928Y-147519519D02*
G01*
X207058655Y-147529447D01*
X207088810Y-147545565D01*
X207115242Y-147567258D01*
X207136935Y-147593690D01*
X207153053Y-147623845D01*
X207162981Y-147656572D01*
X207167300Y-147700425D01*
X207167300Y-148431575D01*
X207162981Y-148475428D01*
X207153053Y-148508155D01*
X207136935Y-148538310D01*
X207115242Y-148564742D01*
X207088810Y-148586435D01*
X207058655Y-148602553D01*
X207025928Y-148612481D01*
X206982075Y-148616800D01*
X203750925Y-148616800D01*
X203707072Y-148612481D01*
X203674345Y-148602553D01*
X203644190Y-148586435D01*
X203617758Y-148564742D01*
X203596065Y-148538310D01*
X203579947Y-148508155D01*
X203570019Y-148475428D01*
X203565700Y-148431575D01*
X203565700Y-147700425D01*
X203570019Y-147656572D01*
X203579947Y-147623845D01*
X203596065Y-147593690D01*
X203617758Y-147567258D01*
X203644190Y-147545565D01*
X203674345Y-147529447D01*
X203707072Y-147519519D01*
X203750925Y-147515200D01*
X206982075Y-147515200D01*
X207025928Y-147519519D01*
G37*
G36*
X207025928Y-145519519D02*
G01*
X207058655Y-145529447D01*
X207088810Y-145545565D01*
X207115242Y-145567258D01*
X207136935Y-145593690D01*
X207153053Y-145623845D01*
X207162981Y-145656572D01*
X207167300Y-145700425D01*
X207167300Y-146431575D01*
X207162981Y-146475428D01*
X207153053Y-146508155D01*
X207136935Y-146538310D01*
X207115242Y-146564742D01*
X207088810Y-146586435D01*
X207058655Y-146602553D01*
X207025928Y-146612481D01*
X206982075Y-146616800D01*
X203750925Y-146616800D01*
X203707072Y-146612481D01*
X203674345Y-146602553D01*
X203644190Y-146586435D01*
X203617758Y-146564742D01*
X203596065Y-146538310D01*
X203579947Y-146508155D01*
X203570019Y-146475428D01*
X203565700Y-146431575D01*
X203565700Y-145700425D01*
X203570019Y-145656572D01*
X203579947Y-145623845D01*
X203596065Y-145593690D01*
X203617758Y-145567258D01*
X203644190Y-145545565D01*
X203674345Y-145529447D01*
X203707072Y-145519519D01*
X203750925Y-145515200D01*
X206982075Y-145515200D01*
X207025928Y-145519519D01*
G37*
G36*
X217330662Y-145520367D02*
G01*
X217330664Y-145520368D01*
X217330665Y-145520368D01*
X217430899Y-145561885D01*
X217521114Y-145622165D01*
X217597835Y-145698886D01*
X217658115Y-145789101D01*
X217699632Y-145889335D01*
X217720800Y-145995751D01*
X217720800Y-146104249D01*
X217699632Y-146210665D01*
X217658115Y-146310899D01*
X217597835Y-146401114D01*
X217521114Y-146477835D01*
X217430899Y-146538115D01*
X217330665Y-146579632D01*
X217330664Y-146579632D01*
X217330662Y-146579633D01*
X217224249Y-146600800D01*
X217115751Y-146600800D01*
X217009338Y-146579633D01*
X217009336Y-146579632D01*
X217009335Y-146579632D01*
X216909101Y-146538115D01*
X216818886Y-146477835D01*
X216742165Y-146401114D01*
X216681885Y-146310899D01*
X216640368Y-146210665D01*
X216619200Y-146104249D01*
X216619200Y-145995751D01*
X216640368Y-145889335D01*
X216681885Y-145789101D01*
X216742165Y-145698886D01*
X216818886Y-145622165D01*
X216909101Y-145561885D01*
X217009335Y-145520368D01*
X217009336Y-145520368D01*
X217009338Y-145520367D01*
X217115751Y-145499200D01*
X217224249Y-145499200D01*
X217330662Y-145520367D01*
G37*
G36*
X222410662Y-145520367D02*
G01*
X222410664Y-145520368D01*
X222410665Y-145520368D01*
X222510899Y-145561885D01*
X222601114Y-145622165D01*
X222677835Y-145698886D01*
X222738115Y-145789101D01*
X222779632Y-145889335D01*
X222800800Y-145995751D01*
X222800800Y-146104249D01*
X222779632Y-146210665D01*
X222738115Y-146310899D01*
X222677835Y-146401114D01*
X222601114Y-146477835D01*
X222510899Y-146538115D01*
X222410665Y-146579632D01*
X222410664Y-146579632D01*
X222410662Y-146579633D01*
X222304249Y-146600800D01*
X222195751Y-146600800D01*
X222089338Y-146579633D01*
X222089336Y-146579632D01*
X222089335Y-146579632D01*
X221989101Y-146538115D01*
X221898886Y-146477835D01*
X221822165Y-146401114D01*
X221761885Y-146310899D01*
X221720368Y-146210665D01*
X221699200Y-146104249D01*
X221699200Y-145995751D01*
X221720368Y-145889335D01*
X221761885Y-145789101D01*
X221822165Y-145698886D01*
X221898886Y-145622165D01*
X221989101Y-145561885D01*
X222089335Y-145520368D01*
X222089336Y-145520368D01*
X222089338Y-145520367D01*
X222195751Y-145499200D01*
X222304249Y-145499200D01*
X222410662Y-145520367D01*
G37*
G36*
X219870662Y-145520367D02*
G01*
X219870664Y-145520368D01*
X219870665Y-145520368D01*
X219970899Y-145561885D01*
X220061114Y-145622165D01*
X220137835Y-145698886D01*
X220198115Y-145789101D01*
X220239632Y-145889335D01*
X220260800Y-145995751D01*
X220260800Y-146104249D01*
X220239632Y-146210665D01*
X220198115Y-146310899D01*
X220137835Y-146401114D01*
X220061114Y-146477835D01*
X219970899Y-146538115D01*
X219870665Y-146579632D01*
X219870664Y-146579632D01*
X219870662Y-146579633D01*
X219764249Y-146600800D01*
X219655751Y-146600800D01*
X219549338Y-146579633D01*
X219549336Y-146579632D01*
X219549335Y-146579632D01*
X219449101Y-146538115D01*
X219358886Y-146477835D01*
X219282165Y-146401114D01*
X219221885Y-146310899D01*
X219180368Y-146210665D01*
X219159200Y-146104249D01*
X219159200Y-145995751D01*
X219180368Y-145889335D01*
X219221885Y-145789101D01*
X219282165Y-145698886D01*
X219358886Y-145622165D01*
X219449101Y-145561885D01*
X219549335Y-145520368D01*
X219549336Y-145520368D01*
X219549338Y-145520367D01*
X219655751Y-145499200D01*
X219764249Y-145499200D01*
X219870662Y-145520367D01*
G37*
G36*
X224950662Y-145520367D02*
G01*
X224950664Y-145520368D01*
X224950665Y-145520368D01*
X225050899Y-145561885D01*
X225141114Y-145622165D01*
X225217835Y-145698886D01*
X225278115Y-145789101D01*
X225319632Y-145889335D01*
X225340800Y-145995751D01*
X225340800Y-146104249D01*
X225319632Y-146210665D01*
X225278115Y-146310899D01*
X225217835Y-146401114D01*
X225141114Y-146477835D01*
X225050899Y-146538115D01*
X224950665Y-146579632D01*
X224950664Y-146579632D01*
X224950662Y-146579633D01*
X224844249Y-146600800D01*
X224735751Y-146600800D01*
X224629338Y-146579633D01*
X224629336Y-146579632D01*
X224629335Y-146579632D01*
X224529101Y-146538115D01*
X224438886Y-146477835D01*
X224362165Y-146401114D01*
X224301885Y-146310899D01*
X224260368Y-146210665D01*
X224239200Y-146104249D01*
X224239200Y-145995751D01*
X224260368Y-145889335D01*
X224301885Y-145789101D01*
X224362165Y-145698886D01*
X224438886Y-145622165D01*
X224529101Y-145561885D01*
X224629335Y-145520368D01*
X224629336Y-145520368D01*
X224629338Y-145520367D01*
X224735751Y-145499200D01*
X224844249Y-145499200D01*
X224950662Y-145520367D01*
G37*
G36*
X233438920Y-143209150D02*
G01*
X233457279Y-143211120D01*
X233527578Y-143233117D01*
X233565526Y-143244991D01*
X233665086Y-143299329D01*
X233752131Y-143372046D01*
X233823318Y-143460347D01*
X233875910Y-143560840D01*
X233907887Y-143669662D01*
X233918019Y-143782631D01*
X233908651Y-143869927D01*
X233905917Y-143895407D01*
X233872047Y-144003653D01*
X233872046Y-144003654D01*
X233817708Y-144103213D01*
X233744991Y-144190258D01*
X233656690Y-144261445D01*
X233581382Y-144300857D01*
X232740819Y-144640467D01*
X232659269Y-144664430D01*
X232546301Y-144674562D01*
X232445627Y-144663759D01*
X232433525Y-144662460D01*
X232325281Y-144628590D01*
X232325278Y-144628589D01*
X232225718Y-144574251D01*
X232138673Y-144501534D01*
X232067486Y-144413233D01*
X232014894Y-144312740D01*
X231982917Y-144203918D01*
X231972785Y-144090950D01*
X231984887Y-143978175D01*
X232010786Y-143895406D01*
X232018757Y-143869930D01*
X232018758Y-143869927D01*
X232073096Y-143770367D01*
X232145813Y-143683322D01*
X232234114Y-143612135D01*
X232309423Y-143572723D01*
X233149984Y-143233113D01*
X233231534Y-143209150D01*
X233344503Y-143199018D01*
X233438920Y-143209150D01*
G37*
G36*
X212759574Y-142918716D02*
G01*
X212784456Y-142926264D01*
X212807386Y-142938521D01*
X212827485Y-142955015D01*
X212843979Y-142975114D01*
X212856236Y-142998044D01*
X212863784Y-143022926D01*
X212867300Y-143058626D01*
X212867300Y-144373374D01*
X212863784Y-144409074D01*
X212856236Y-144433956D01*
X212843979Y-144456886D01*
X212827485Y-144476985D01*
X212807386Y-144493479D01*
X212784456Y-144505736D01*
X212759574Y-144513284D01*
X212723874Y-144516800D01*
X209509126Y-144516800D01*
X209473426Y-144513284D01*
X209448544Y-144505736D01*
X209425614Y-144493479D01*
X209405515Y-144476985D01*
X209389021Y-144456886D01*
X209376764Y-144433956D01*
X209369216Y-144409074D01*
X209365700Y-144373374D01*
X209365700Y-143058626D01*
X209369216Y-143022926D01*
X209376764Y-142998044D01*
X209389021Y-142975114D01*
X209405515Y-142955015D01*
X209425614Y-142938521D01*
X209448544Y-142926264D01*
X209473426Y-142918716D01*
X209509126Y-142915200D01*
X212723874Y-142915200D01*
X212759574Y-142918716D01*
G37*
G36*
X225375800Y-142641800D02*
G01*
X219124200Y-142641800D01*
X219124200Y-140940200D01*
X225375800Y-140940200D01*
X225375800Y-142641800D01*
G37*
G36*
X211756800Y-141655300D02*
G01*
X210655200Y-141655300D01*
X210655200Y-139853700D01*
X211756800Y-139853700D01*
X211756800Y-141655300D01*
G37*
G36*
X215556800Y-141655300D02*
G01*
X214455200Y-141655300D01*
X214455200Y-139853700D01*
X215556800Y-139853700D01*
X215556800Y-141655300D01*
G37*
G36*
X218850800Y-140666800D02*
G01*
X217149200Y-140666800D01*
X217149200Y-134415200D01*
X218850800Y-134415200D01*
X218850800Y-140666800D01*
G37*
G36*
X227350800Y-140666800D02*
G01*
X225649200Y-140666800D01*
X225649200Y-134415200D01*
X227350800Y-134415200D01*
X227350800Y-140666800D01*
G37*
G36*
X229928683Y-132610480D02*
G01*
X229957741Y-132616260D01*
X230011777Y-132638643D01*
X230012482Y-132638935D01*
X230029078Y-132650024D01*
X230061749Y-132671854D01*
X230103646Y-132713751D01*
X230136566Y-132763020D01*
X230159240Y-132817759D01*
X230170800Y-132875875D01*
X230170800Y-132935125D01*
X230159240Y-132993241D01*
X230136566Y-133047980D01*
X230096989Y-133107212D01*
X230087243Y-133119088D01*
X230068761Y-133153665D01*
X230057380Y-133191183D01*
X230053537Y-133230201D01*
X230057380Y-133269219D01*
X230068761Y-133306737D01*
X230087243Y-133341314D01*
X230112115Y-133371622D01*
X230142423Y-133396494D01*
X230177000Y-133414976D01*
X230214518Y-133426357D01*
X230253536Y-133430200D01*
X230280626Y-133430200D01*
X230309683Y-133435980D01*
X230338741Y-133441760D01*
X230392777Y-133464143D01*
X230393482Y-133464435D01*
X230423064Y-133484201D01*
X230442749Y-133497354D01*
X230484646Y-133539251D01*
X230517566Y-133588520D01*
X230540240Y-133643259D01*
X230551800Y-133701375D01*
X230551800Y-133760625D01*
X230540240Y-133818741D01*
X230517566Y-133873480D01*
X230477989Y-133932712D01*
X230468243Y-133944588D01*
X230449761Y-133979165D01*
X230438380Y-134016683D01*
X230434537Y-134055701D01*
X230438380Y-134094719D01*
X230449761Y-134132237D01*
X230468243Y-134166814D01*
X230493115Y-134197122D01*
X230523423Y-134221994D01*
X230558000Y-134240476D01*
X230595518Y-134251857D01*
X230634536Y-134255700D01*
X230661626Y-134255700D01*
X230690683Y-134261480D01*
X230719741Y-134267260D01*
X230774480Y-134289934D01*
X230774482Y-134289935D01*
X230808389Y-134312591D01*
X230823749Y-134322854D01*
X230865646Y-134364751D01*
X230898566Y-134414020D01*
X230921240Y-134468759D01*
X230932800Y-134526875D01*
X230932800Y-134586125D01*
X230921240Y-134644241D01*
X230898566Y-134698980D01*
X230858989Y-134758212D01*
X230849243Y-134770088D01*
X230830761Y-134804665D01*
X230819380Y-134842183D01*
X230815537Y-134881201D01*
X230819380Y-134920219D01*
X230830761Y-134957737D01*
X230849243Y-134992314D01*
X230874115Y-135022622D01*
X230904423Y-135047494D01*
X230939000Y-135065976D01*
X230976518Y-135077357D01*
X231015536Y-135081200D01*
X231042626Y-135081200D01*
X231071683Y-135086980D01*
X231100741Y-135092760D01*
X231154777Y-135115143D01*
X231155482Y-135115435D01*
X231185064Y-135135201D01*
X231204749Y-135148354D01*
X231246646Y-135190251D01*
X231279566Y-135239520D01*
X231302240Y-135294259D01*
X231313800Y-135352375D01*
X231313800Y-135411625D01*
X231302240Y-135469741D01*
X231279566Y-135524480D01*
X231239989Y-135583712D01*
X231230243Y-135595588D01*
X231211761Y-135630165D01*
X231200380Y-135667683D01*
X231196537Y-135706701D01*
X231200380Y-135745719D01*
X231211761Y-135783237D01*
X231230243Y-135817814D01*
X231255115Y-135848122D01*
X231285423Y-135872994D01*
X231320000Y-135891476D01*
X231357518Y-135902857D01*
X231396536Y-135906700D01*
X231423626Y-135906700D01*
X231452683Y-135912480D01*
X231481741Y-135918260D01*
X231536480Y-135940934D01*
X231536482Y-135940935D01*
X231585749Y-135973854D01*
X231627646Y-136015751D01*
X231660565Y-136065018D01*
X231683240Y-136119760D01*
X231694800Y-136177874D01*
X231694800Y-136237126D01*
X231683240Y-136295240D01*
X231660565Y-136349982D01*
X231627646Y-136399249D01*
X231585749Y-136441146D01*
X231536482Y-136474065D01*
X231536481Y-136474066D01*
X231536480Y-136474066D01*
X231481741Y-136496740D01*
X231452683Y-136502520D01*
X231423626Y-136508300D01*
X231364374Y-136508300D01*
X231335317Y-136502520D01*
X231306259Y-136496740D01*
X231251520Y-136474066D01*
X231251519Y-136474066D01*
X231251518Y-136474065D01*
X231202251Y-136441146D01*
X231160354Y-136399249D01*
X231127435Y-136349982D01*
X231104760Y-136295240D01*
X231093200Y-136237126D01*
X231093200Y-136177874D01*
X231104760Y-136119760D01*
X231127435Y-136065018D01*
X231160354Y-136015751D01*
X231167011Y-136005788D01*
X231176757Y-135993912D01*
X231195239Y-135959335D01*
X231206620Y-135921817D01*
X231210463Y-135882799D01*
X231206620Y-135843781D01*
X231195239Y-135806263D01*
X231176757Y-135771686D01*
X231151885Y-135741378D01*
X231121577Y-135716506D01*
X231087000Y-135698024D01*
X231049482Y-135686643D01*
X231010464Y-135682800D01*
X230983374Y-135682800D01*
X230954317Y-135677020D01*
X230925259Y-135671240D01*
X230870520Y-135648566D01*
X230870519Y-135648566D01*
X230870518Y-135648565D01*
X230821251Y-135615646D01*
X230779354Y-135573749D01*
X230746435Y-135524482D01*
X230723760Y-135469740D01*
X230712200Y-135411626D01*
X230712200Y-135352374D01*
X230723760Y-135294260D01*
X230746435Y-135239518D01*
X230779354Y-135190251D01*
X230786011Y-135180288D01*
X230795757Y-135168412D01*
X230814239Y-135133835D01*
X230825620Y-135096317D01*
X230829463Y-135057299D01*
X230825620Y-135018281D01*
X230814239Y-134980763D01*
X230795757Y-134946186D01*
X230770885Y-134915878D01*
X230740577Y-134891006D01*
X230706000Y-134872524D01*
X230668482Y-134861143D01*
X230629464Y-134857300D01*
X230602374Y-134857300D01*
X230573317Y-134851520D01*
X230544259Y-134845740D01*
X230489520Y-134823066D01*
X230489519Y-134823066D01*
X230489518Y-134823065D01*
X230440251Y-134790146D01*
X230398354Y-134748249D01*
X230365435Y-134698982D01*
X230342760Y-134644240D01*
X230331200Y-134586126D01*
X230331200Y-134526874D01*
X230342760Y-134468760D01*
X230365435Y-134414018D01*
X230398354Y-134364751D01*
X230405011Y-134354788D01*
X230414757Y-134342912D01*
X230433239Y-134308335D01*
X230444620Y-134270817D01*
X230448463Y-134231799D01*
X230444620Y-134192781D01*
X230433239Y-134155263D01*
X230414757Y-134120686D01*
X230389885Y-134090378D01*
X230359577Y-134065506D01*
X230325000Y-134047024D01*
X230287482Y-134035643D01*
X230248464Y-134031800D01*
X230221374Y-134031800D01*
X230192317Y-134026020D01*
X230163259Y-134020240D01*
X230108520Y-133997566D01*
X230108519Y-133997566D01*
X230108518Y-133997565D01*
X230059251Y-133964646D01*
X230017354Y-133922749D01*
X229984435Y-133873482D01*
X229961760Y-133818740D01*
X229950200Y-133760626D01*
X229950200Y-133701374D01*
X229961760Y-133643260D01*
X229984435Y-133588518D01*
X230017354Y-133539251D01*
X230024011Y-133529288D01*
X230033757Y-133517412D01*
X230052239Y-133482835D01*
X230063620Y-133445317D01*
X230067463Y-133406299D01*
X230063620Y-133367281D01*
X230052239Y-133329763D01*
X230033757Y-133295186D01*
X230008885Y-133264878D01*
X229978577Y-133240006D01*
X229944000Y-133221524D01*
X229906482Y-133210143D01*
X229867464Y-133206300D01*
X229840374Y-133206300D01*
X229811317Y-133200520D01*
X229782259Y-133194740D01*
X229727520Y-133172066D01*
X229727519Y-133172066D01*
X229727518Y-133172065D01*
X229678251Y-133139146D01*
X229636354Y-133097249D01*
X229603435Y-133047982D01*
X229580760Y-132993240D01*
X229569200Y-132935126D01*
X229569200Y-132875874D01*
X229580760Y-132817760D01*
X229603435Y-132763018D01*
X229636354Y-132713751D01*
X229678251Y-132671854D01*
X229727518Y-132638935D01*
X229728223Y-132638643D01*
X229782259Y-132616260D01*
X229811317Y-132610480D01*
X229840374Y-132604700D01*
X229899626Y-132604700D01*
X229928683Y-132610480D01*
G37*
G36*
X231854033Y-134478884D02*
G01*
X231888610Y-134497366D01*
X231926128Y-134508747D01*
X231965146Y-134512590D01*
X231994494Y-134509700D01*
X232058626Y-134509700D01*
X232073154Y-134512590D01*
X232116741Y-134521260D01*
X232171480Y-134543934D01*
X232171482Y-134543935D01*
X232194694Y-134559445D01*
X232220749Y-134576854D01*
X232262646Y-134618751D01*
X232295566Y-134668020D01*
X232318240Y-134722759D01*
X232329800Y-134780875D01*
X232329800Y-134840125D01*
X232318240Y-134898241D01*
X232295566Y-134952980D01*
X232255989Y-135012212D01*
X232246243Y-135024088D01*
X232227761Y-135058665D01*
X232216380Y-135096183D01*
X232212537Y-135135201D01*
X232216380Y-135174219D01*
X232227761Y-135211737D01*
X232246243Y-135246314D01*
X232271115Y-135276622D01*
X232301423Y-135301494D01*
X232336000Y-135319976D01*
X232373518Y-135331357D01*
X232412536Y-135335200D01*
X232439626Y-135335200D01*
X232468683Y-135340980D01*
X232497741Y-135346760D01*
X232552480Y-135369434D01*
X232552482Y-135369435D01*
X232601749Y-135402354D01*
X232643646Y-135444251D01*
X232676565Y-135493518D01*
X232699240Y-135548260D01*
X232710800Y-135606374D01*
X232710800Y-135665626D01*
X232699240Y-135723740D01*
X232676565Y-135778482D01*
X232643646Y-135827749D01*
X232601749Y-135869646D01*
X232552482Y-135902565D01*
X232552481Y-135902566D01*
X232552480Y-135902566D01*
X232497741Y-135925240D01*
X232468683Y-135931020D01*
X232439626Y-135936800D01*
X232380374Y-135936800D01*
X232351317Y-135931020D01*
X232322259Y-135925240D01*
X232267520Y-135902566D01*
X232267519Y-135902566D01*
X232267518Y-135902565D01*
X232218251Y-135869646D01*
X232176354Y-135827749D01*
X232143435Y-135778482D01*
X232120760Y-135723740D01*
X232109200Y-135665626D01*
X232109200Y-135606374D01*
X232120760Y-135548260D01*
X232143435Y-135493518D01*
X232176354Y-135444251D01*
X232183011Y-135434288D01*
X232192757Y-135422412D01*
X232211239Y-135387835D01*
X232222620Y-135350317D01*
X232226463Y-135311299D01*
X232222620Y-135272281D01*
X232211239Y-135234763D01*
X232192757Y-135200186D01*
X232167885Y-135169878D01*
X232137577Y-135145006D01*
X232103000Y-135126524D01*
X232065482Y-135115143D01*
X232026464Y-135111300D01*
X231999374Y-135111300D01*
X231970317Y-135105520D01*
X231941259Y-135099740D01*
X231886520Y-135077066D01*
X231886519Y-135077066D01*
X231886518Y-135077065D01*
X231837251Y-135044146D01*
X231795354Y-135002249D01*
X231762435Y-134952982D01*
X231739760Y-134898240D01*
X231728200Y-134840126D01*
X231728200Y-134780874D01*
X231739760Y-134722760D01*
X231762435Y-134668018D01*
X231795354Y-134618751D01*
X231799739Y-134612188D01*
X231814647Y-134594022D01*
X231833129Y-134559445D01*
X231844510Y-134521927D01*
X231848353Y-134482909D01*
X231847422Y-134473459D01*
X231854033Y-134478884D01*
G37*
G36*
X211756800Y-135355300D02*
G01*
X210655200Y-135355300D01*
X210655200Y-133553700D01*
X211756800Y-133553700D01*
X211756800Y-135355300D01*
G37*
G36*
X215556800Y-135355300D02*
G01*
X214455200Y-135355300D01*
X214455200Y-133553700D01*
X215556800Y-133553700D01*
X215556800Y-135355300D01*
G37*
G36*
X230881183Y-132038980D02*
G01*
X230910241Y-132044760D01*
X230964980Y-132067434D01*
X230964982Y-132067435D01*
X231014249Y-132100354D01*
X231056146Y-132142251D01*
X231089066Y-132191520D01*
X231111740Y-132246259D01*
X231123300Y-132304375D01*
X231123300Y-132363625D01*
X231111740Y-132421741D01*
X231089066Y-132476480D01*
X231049489Y-132535712D01*
X231039743Y-132547588D01*
X231021261Y-132582165D01*
X231009880Y-132619683D01*
X231006037Y-132658701D01*
X231009880Y-132697719D01*
X231021261Y-132735237D01*
X231039743Y-132769814D01*
X231064615Y-132800122D01*
X231094923Y-132824994D01*
X231129500Y-132843476D01*
X231167018Y-132854857D01*
X231206036Y-132858700D01*
X231233126Y-132858700D01*
X231262183Y-132864480D01*
X231291241Y-132870260D01*
X231345980Y-132892934D01*
X231345982Y-132892935D01*
X231395249Y-132925854D01*
X231437146Y-132967751D01*
X231470066Y-133017020D01*
X231492740Y-133071759D01*
X231504300Y-133129875D01*
X231504300Y-133189125D01*
X231492740Y-133247241D01*
X231470066Y-133301980D01*
X231430489Y-133361212D01*
X231420743Y-133373088D01*
X231402261Y-133407665D01*
X231390880Y-133445183D01*
X231387037Y-133484201D01*
X231390880Y-133523219D01*
X231402261Y-133560737D01*
X231420743Y-133595314D01*
X231445615Y-133625622D01*
X231475923Y-133650494D01*
X231510500Y-133668976D01*
X231548018Y-133680357D01*
X231587036Y-133684200D01*
X231614126Y-133684200D01*
X231643183Y-133689980D01*
X231672241Y-133695760D01*
X231726980Y-133718434D01*
X231726982Y-133718435D01*
X231776249Y-133751354D01*
X231818146Y-133793251D01*
X231851066Y-133842520D01*
X231873740Y-133897259D01*
X231885300Y-133955375D01*
X231885300Y-134014625D01*
X231873740Y-134072741D01*
X231851066Y-134127480D01*
X231813761Y-134183312D01*
X231798853Y-134201478D01*
X231780371Y-134236055D01*
X231768990Y-134273573D01*
X231765147Y-134312591D01*
X231766078Y-134322041D01*
X231759467Y-134316616D01*
X231724890Y-134298134D01*
X231687372Y-134286753D01*
X231648354Y-134282910D01*
X231619006Y-134285800D01*
X231554874Y-134285800D01*
X231525817Y-134280020D01*
X231496759Y-134274240D01*
X231442020Y-134251566D01*
X231442019Y-134251566D01*
X231442018Y-134251565D01*
X231392751Y-134218646D01*
X231350854Y-134176749D01*
X231317935Y-134127482D01*
X231295260Y-134072740D01*
X231283700Y-134014626D01*
X231283700Y-133955374D01*
X231295260Y-133897260D01*
X231317935Y-133842518D01*
X231350854Y-133793251D01*
X231357511Y-133783288D01*
X231367257Y-133771412D01*
X231385739Y-133736835D01*
X231397120Y-133699317D01*
X231400963Y-133660299D01*
X231397120Y-133621281D01*
X231385739Y-133583763D01*
X231367257Y-133549186D01*
X231342385Y-133518878D01*
X231312077Y-133494006D01*
X231277500Y-133475524D01*
X231239982Y-133464143D01*
X231200964Y-133460300D01*
X231173874Y-133460300D01*
X231144817Y-133454520D01*
X231115759Y-133448740D01*
X231061020Y-133426066D01*
X231061019Y-133426066D01*
X231061018Y-133426065D01*
X231011751Y-133393146D01*
X230969854Y-133351249D01*
X230936935Y-133301982D01*
X230914260Y-133247240D01*
X230902700Y-133189126D01*
X230902700Y-133129874D01*
X230914260Y-133071760D01*
X230936935Y-133017018D01*
X230969854Y-132967751D01*
X230976511Y-132957788D01*
X230986257Y-132945912D01*
X231004739Y-132911335D01*
X231016120Y-132873817D01*
X231019963Y-132834799D01*
X231016120Y-132795781D01*
X231004739Y-132758263D01*
X230986257Y-132723686D01*
X230961385Y-132693378D01*
X230931077Y-132668506D01*
X230896500Y-132650024D01*
X230858982Y-132638643D01*
X230819964Y-132634800D01*
X230792874Y-132634800D01*
X230763817Y-132629020D01*
X230734759Y-132623240D01*
X230680020Y-132600566D01*
X230680019Y-132600566D01*
X230680018Y-132600565D01*
X230630751Y-132567646D01*
X230588854Y-132525749D01*
X230555935Y-132476482D01*
X230533260Y-132421740D01*
X230521700Y-132363626D01*
X230521700Y-132304374D01*
X230533260Y-132246260D01*
X230555935Y-132191518D01*
X230588854Y-132142251D01*
X230630751Y-132100354D01*
X230680018Y-132067435D01*
X230680020Y-132067434D01*
X230734759Y-132044760D01*
X230763817Y-132038980D01*
X230792874Y-132033200D01*
X230852126Y-132033200D01*
X230881183Y-132038980D01*
G37*
G36*
X225375800Y-134141800D02*
G01*
X219124200Y-134141800D01*
X219124200Y-132440200D01*
X225375800Y-132440200D01*
X225375800Y-134141800D01*
G37*
G36*
X245870599Y-130063206D02*
G01*
X245900248Y-130072199D01*
X245927577Y-130086807D01*
X245951533Y-130106467D01*
X245971193Y-130130423D01*
X245985801Y-130157752D01*
X245994794Y-130187401D01*
X245998800Y-130228070D01*
X245998800Y-131391930D01*
X245994794Y-131432599D01*
X245985801Y-131462248D01*
X245971193Y-131489577D01*
X245951533Y-131513533D01*
X245927577Y-131533193D01*
X245900248Y-131547801D01*
X245870599Y-131556794D01*
X245829930Y-131560800D01*
X244916070Y-131560800D01*
X244875401Y-131556794D01*
X244845752Y-131547801D01*
X244818423Y-131533193D01*
X244794467Y-131513533D01*
X244774807Y-131489577D01*
X244760199Y-131462248D01*
X244751206Y-131432599D01*
X244747200Y-131391930D01*
X244747200Y-130228070D01*
X244751206Y-130187401D01*
X244760199Y-130157752D01*
X244774807Y-130130423D01*
X244794467Y-130106467D01*
X244818423Y-130086807D01*
X244845752Y-130072199D01*
X244875401Y-130063206D01*
X244916070Y-130059200D01*
X245829930Y-130059200D01*
X245870599Y-130063206D01*
G37*
G36*
X243820599Y-130063206D02*
G01*
X243850248Y-130072199D01*
X243877577Y-130086807D01*
X243901533Y-130106467D01*
X243921193Y-130130423D01*
X243935801Y-130157752D01*
X243944794Y-130187401D01*
X243948800Y-130228070D01*
X243948800Y-131391930D01*
X243944794Y-131432599D01*
X243935801Y-131462248D01*
X243921193Y-131489577D01*
X243901533Y-131513533D01*
X243877577Y-131533193D01*
X243850248Y-131547801D01*
X243820599Y-131556794D01*
X243779930Y-131560800D01*
X242866070Y-131560800D01*
X242825401Y-131556794D01*
X242795752Y-131547801D01*
X242768423Y-131533193D01*
X242744467Y-131513533D01*
X242724807Y-131489577D01*
X242710199Y-131462248D01*
X242701206Y-131432599D01*
X242697200Y-131391930D01*
X242697200Y-130228070D01*
X242701206Y-130187401D01*
X242710199Y-130157752D01*
X242724807Y-130130423D01*
X242744467Y-130106467D01*
X242768423Y-130086807D01*
X242795752Y-130072199D01*
X242825401Y-130063206D01*
X242866070Y-130059200D01*
X243779930Y-130059200D01*
X243820599Y-130063206D01*
G37*
G36*
X218420599Y-128412206D02*
G01*
X218450248Y-128421199D01*
X218477577Y-128435807D01*
X218501533Y-128455467D01*
X218521193Y-128479423D01*
X218535801Y-128506752D01*
X218544794Y-128536401D01*
X218548800Y-128577070D01*
X218548800Y-129740930D01*
X218544794Y-129781599D01*
X218535801Y-129811248D01*
X218521193Y-129838577D01*
X218501533Y-129862533D01*
X218477577Y-129882193D01*
X218450248Y-129896801D01*
X218420599Y-129905794D01*
X218379930Y-129909800D01*
X217466070Y-129909800D01*
X217425401Y-129905794D01*
X217395752Y-129896801D01*
X217368423Y-129882193D01*
X217344467Y-129862533D01*
X217324807Y-129838577D01*
X217310199Y-129811248D01*
X217301206Y-129781599D01*
X217297200Y-129740930D01*
X217297200Y-128577070D01*
X217301206Y-128536401D01*
X217310199Y-128506752D01*
X217324807Y-128479423D01*
X217344467Y-128455467D01*
X217368423Y-128435807D01*
X217395752Y-128421199D01*
X217425401Y-128412206D01*
X217466070Y-128408200D01*
X218379930Y-128408200D01*
X218420599Y-128412206D01*
G37*
G36*
X220470599Y-128412206D02*
G01*
X220500248Y-128421199D01*
X220527577Y-128435807D01*
X220551533Y-128455467D01*
X220571193Y-128479423D01*
X220585801Y-128506752D01*
X220594794Y-128536401D01*
X220598800Y-128577070D01*
X220598800Y-129740930D01*
X220594794Y-129781599D01*
X220585801Y-129811248D01*
X220571193Y-129838577D01*
X220551533Y-129862533D01*
X220527577Y-129882193D01*
X220500248Y-129896801D01*
X220470599Y-129905794D01*
X220429930Y-129909800D01*
X219516070Y-129909800D01*
X219475401Y-129905794D01*
X219445752Y-129896801D01*
X219418423Y-129882193D01*
X219394467Y-129862533D01*
X219374807Y-129838577D01*
X219360199Y-129811248D01*
X219351206Y-129781599D01*
X219347200Y-129740930D01*
X219347200Y-128577070D01*
X219351206Y-128536401D01*
X219360199Y-128506752D01*
X219374807Y-128479423D01*
X219394467Y-128455467D01*
X219418423Y-128435807D01*
X219445752Y-128421199D01*
X219475401Y-128412206D01*
X219516070Y-128408200D01*
X220429930Y-128408200D01*
X220470599Y-128412206D01*
G37*
G36*
X218420599Y-126253206D02*
G01*
X218450248Y-126262199D01*
X218477577Y-126276807D01*
X218501533Y-126296467D01*
X218521193Y-126320423D01*
X218535801Y-126347752D01*
X218544794Y-126377401D01*
X218548800Y-126418070D01*
X218548800Y-127581930D01*
X218544794Y-127622599D01*
X218535801Y-127652248D01*
X218521193Y-127679577D01*
X218501533Y-127703533D01*
X218477577Y-127723193D01*
X218450248Y-127737801D01*
X218420599Y-127746794D01*
X218379930Y-127750800D01*
X217466070Y-127750800D01*
X217425401Y-127746794D01*
X217395752Y-127737801D01*
X217368423Y-127723193D01*
X217344467Y-127703533D01*
X217324807Y-127679577D01*
X217310199Y-127652248D01*
X217301206Y-127622599D01*
X217297200Y-127581930D01*
X217297200Y-126418070D01*
X217301206Y-126377401D01*
X217310199Y-126347752D01*
X217324807Y-126320423D01*
X217344467Y-126296467D01*
X217368423Y-126276807D01*
X217395752Y-126262199D01*
X217425401Y-126253206D01*
X217466070Y-126249200D01*
X218379930Y-126249200D01*
X218420599Y-126253206D01*
G37*
G36*
X220470599Y-126253206D02*
G01*
X220500248Y-126262199D01*
X220527577Y-126276807D01*
X220551533Y-126296467D01*
X220571193Y-126320423D01*
X220585801Y-126347752D01*
X220594794Y-126377401D01*
X220598800Y-126418070D01*
X220598800Y-127581930D01*
X220594794Y-127622599D01*
X220585801Y-127652248D01*
X220571193Y-127679577D01*
X220551533Y-127703533D01*
X220527577Y-127723193D01*
X220500248Y-127737801D01*
X220470599Y-127746794D01*
X220429930Y-127750800D01*
X219516070Y-127750800D01*
X219475401Y-127746794D01*
X219445752Y-127737801D01*
X219418423Y-127723193D01*
X219394467Y-127703533D01*
X219374807Y-127679577D01*
X219360199Y-127652248D01*
X219351206Y-127622599D01*
X219347200Y-127581930D01*
X219347200Y-126418070D01*
X219351206Y-126377401D01*
X219360199Y-126347752D01*
X219374807Y-126320423D01*
X219394467Y-126296467D01*
X219418423Y-126276807D01*
X219445752Y-126262199D01*
X219475401Y-126253206D01*
X219516070Y-126249200D01*
X220429930Y-126249200D01*
X220470599Y-126253206D01*
G37*
G36*
X243820599Y-125491206D02*
G01*
X243850248Y-125500199D01*
X243877577Y-125514807D01*
X243901533Y-125534467D01*
X243921193Y-125558423D01*
X243935801Y-125585752D01*
X243944794Y-125615401D01*
X243948800Y-125656070D01*
X243948800Y-126819930D01*
X243944794Y-126860599D01*
X243935801Y-126890248D01*
X243921193Y-126917577D01*
X243901533Y-126941533D01*
X243877577Y-126961193D01*
X243850248Y-126975801D01*
X243820599Y-126984794D01*
X243779930Y-126988800D01*
X242866070Y-126988800D01*
X242825401Y-126984794D01*
X242795752Y-126975801D01*
X242768423Y-126961193D01*
X242744467Y-126941533D01*
X242724807Y-126917577D01*
X242710199Y-126890248D01*
X242701206Y-126860599D01*
X242697200Y-126819930D01*
X242697200Y-125656070D01*
X242701206Y-125615401D01*
X242710199Y-125585752D01*
X242724807Y-125558423D01*
X242744467Y-125534467D01*
X242768423Y-125514807D01*
X242795752Y-125500199D01*
X242825401Y-125491206D01*
X242866070Y-125487200D01*
X243779930Y-125487200D01*
X243820599Y-125491206D01*
G37*
G36*
X245870599Y-125491206D02*
G01*
X245900248Y-125500199D01*
X245927577Y-125514807D01*
X245951533Y-125534467D01*
X245971193Y-125558423D01*
X245985801Y-125585752D01*
X245994794Y-125615401D01*
X245998800Y-125656070D01*
X245998800Y-126819930D01*
X245994794Y-126860599D01*
X245985801Y-126890248D01*
X245971193Y-126917577D01*
X245951533Y-126941533D01*
X245927577Y-126961193D01*
X245900248Y-126975801D01*
X245870599Y-126984794D01*
X245829930Y-126988800D01*
X244916070Y-126988800D01*
X244875401Y-126984794D01*
X244845752Y-126975801D01*
X244818423Y-126961193D01*
X244794467Y-126941533D01*
X244774807Y-126917577D01*
X244760199Y-126890248D01*
X244751206Y-126860599D01*
X244747200Y-126819930D01*
X244747200Y-125656070D01*
X244751206Y-125615401D01*
X244760199Y-125585752D01*
X244774807Y-125558423D01*
X244794467Y-125534467D01*
X244818423Y-125514807D01*
X244845752Y-125500199D01*
X244875401Y-125491206D01*
X244916070Y-125487200D01*
X245829930Y-125487200D01*
X245870599Y-125491206D01*
G37*
G36*
X247788800Y-121804800D02*
G01*
X245987200Y-121804800D01*
X245987200Y-120003200D01*
X247788800Y-120003200D01*
X247788800Y-121804800D01*
G37*
G36*
X244610754Y-120037817D02*
G01*
X244774689Y-120105721D01*
X244922227Y-120204303D01*
X245047697Y-120329773D01*
X245146279Y-120477311D01*
X245214183Y-120641246D01*
X245248800Y-120815279D01*
X245248800Y-120992721D01*
X245214183Y-121166754D01*
X245146279Y-121330689D01*
X245047697Y-121478227D01*
X244922227Y-121603697D01*
X244774689Y-121702279D01*
X244610754Y-121770183D01*
X244436721Y-121804800D01*
X244259279Y-121804800D01*
X244085246Y-121770183D01*
X243921311Y-121702279D01*
X243773773Y-121603697D01*
X243648303Y-121478227D01*
X243549721Y-121330689D01*
X243481817Y-121166754D01*
X243447200Y-120992721D01*
X243447200Y-120815279D01*
X243481817Y-120641246D01*
X243549721Y-120477311D01*
X243648303Y-120329773D01*
X243773773Y-120204303D01*
X243921311Y-120105721D01*
X244085246Y-120037817D01*
X244259279Y-120003200D01*
X244436721Y-120003200D01*
X244610754Y-120037817D01*
G37*
G36*
X242070754Y-120037817D02*
G01*
X242234689Y-120105721D01*
X242382227Y-120204303D01*
X242507697Y-120329773D01*
X242606279Y-120477311D01*
X242674183Y-120641246D01*
X242708800Y-120815279D01*
X242708800Y-120992721D01*
X242674183Y-121166754D01*
X242606279Y-121330689D01*
X242507697Y-121478227D01*
X242382227Y-121603697D01*
X242234689Y-121702279D01*
X242070754Y-121770183D01*
X241896721Y-121804800D01*
X241719279Y-121804800D01*
X241545246Y-121770183D01*
X241381311Y-121702279D01*
X241233773Y-121603697D01*
X241108303Y-121478227D01*
X241009721Y-121330689D01*
X240941817Y-121166754D01*
X240907200Y-120992721D01*
X240907200Y-120815279D01*
X240941817Y-120641246D01*
X241009721Y-120477311D01*
X241108303Y-120329773D01*
X241233773Y-120204303D01*
X241381311Y-120105721D01*
X241545246Y-120037817D01*
X241719279Y-120003200D01*
X241896721Y-120003200D01*
X242070754Y-120037817D01*
G37*
M02*
