G04 #@! TF.GenerationSoftware,KiCad,Pcbnew,5.1.5-1.fc31*
G04 #@! TF.CreationDate,2020-02-06T18:04:09+00:00*
G04 #@! TF.ProjectId,CatEars,43617445-6172-4732-9e6b-696361645f70,rev?*
G04 #@! TF.SameCoordinates,Original*
G04 #@! TF.FileFunction,Soldermask,Top*
G04 #@! TF.FilePolarity,Negative*
%FSLAX46Y46*%
G04 Gerber Fmt 4.6, Leading zero omitted, Abs format (unit mm)*
G04 Created by KiCad (PCBNEW 5.1.5-1.fc31) date 2020-02-06 18:04:09*
%MOMM*%
%LPD*%
G04 APERTURE LIST*
%ADD10C,0.200642*%
%ADD11C,0.100000*%
G04 APERTURE END LIST*
D10*
X219737268Y-118332371D02*
X219714682Y-118317343D01*
X217891016Y-119656189D02*
X218971352Y-120353417D01*
X217425107Y-119190147D02*
X217435476Y-119214044D01*
X217396803Y-118963525D02*
X217394247Y-118984147D01*
X217424863Y-118863622D02*
X217417319Y-118883071D01*
X217397274Y-119090473D02*
X217402062Y-119116010D01*
X218274758Y-118700341D02*
X218201477Y-118663963D01*
X217394038Y-119064520D02*
X217397274Y-119090473D01*
X217723292Y-118584755D02*
X217703699Y-118591750D01*
X217410710Y-118902817D02*
X217405064Y-118922829D01*
X219285986Y-119894601D02*
X219455603Y-119671853D01*
X218657053Y-118929782D02*
X218665715Y-118939549D01*
X218803344Y-118565898D02*
X218764283Y-118618060D01*
X217743155Y-118578709D02*
X217723292Y-118584755D01*
X217539327Y-119370095D02*
X217577191Y-119411138D01*
X217577191Y-119411138D02*
X217617788Y-119450640D01*
X219641265Y-118278877D02*
X219615188Y-118268308D01*
X217628664Y-118628596D02*
X217610898Y-118639868D01*
X218939549Y-118417548D02*
X218891669Y-118464637D01*
X219476576Y-118233004D02*
X219447798Y-118229550D01*
X218699830Y-118720427D02*
X218675824Y-118768624D01*
X219139675Y-118276243D02*
X219089738Y-118302502D01*
X219615188Y-118268308D02*
X219588450Y-118258889D01*
X219612083Y-119461323D02*
X219647658Y-119410156D01*
X219910370Y-118659653D02*
X219907295Y-118629571D01*
X219871835Y-118490265D02*
X219860287Y-118466999D01*
X218985608Y-120343835D02*
X219016400Y-120289058D01*
X219016400Y-120289058D02*
X219049731Y-120233631D01*
X219049731Y-120233631D02*
X219122799Y-120121338D01*
X217665451Y-118608461D02*
X217646860Y-118618117D01*
X219778617Y-119192528D02*
X219806753Y-119135479D01*
X217435476Y-119214044D02*
X217447085Y-119237535D01*
X218201477Y-118663963D02*
X218127159Y-118631104D01*
X217402062Y-119116010D02*
X217408338Y-119141134D01*
X217804050Y-118566574D02*
X217783565Y-118569587D01*
X218620175Y-118911542D02*
X218531626Y-118852130D01*
X217610898Y-118639868D02*
X217576775Y-118664671D01*
X218674012Y-118947514D02*
X218668324Y-118944538D01*
X218668324Y-118944538D02*
X218620175Y-118911542D01*
X219912528Y-118719906D02*
X219910370Y-118659653D01*
X217405064Y-118922829D02*
X217400419Y-118943075D01*
X219647658Y-119410156D02*
X219682453Y-119357574D01*
X219832250Y-118423421D02*
X219815928Y-118403138D01*
X219447798Y-118229550D02*
X219418867Y-118227332D01*
X218645343Y-118872343D02*
X218645003Y-118889208D01*
X217447085Y-119237535D02*
X217459874Y-119260623D01*
X219192014Y-118255780D02*
X219165499Y-118265321D01*
X219909661Y-118780175D02*
X219912528Y-118719906D01*
X219889565Y-118539679D02*
X219881622Y-118514496D01*
X217544747Y-118692275D02*
X217515066Y-118722433D01*
X219533328Y-118243560D02*
X219505113Y-118237678D01*
X217394247Y-118984147D02*
X217392461Y-119011361D01*
X217845419Y-118563797D02*
X217845419Y-118563797D01*
X218665715Y-118939549D02*
X218674012Y-118947514D01*
X217504692Y-119327491D02*
X217539327Y-119370095D01*
X218665715Y-118939549D02*
X218665715Y-118939549D01*
X217703699Y-118591750D02*
X217684408Y-118599662D01*
X218345709Y-118738794D02*
X218274758Y-118700341D01*
X217576775Y-118664671D02*
X217544747Y-118692275D01*
X218647717Y-118854019D02*
X218645343Y-118872343D01*
X217684408Y-118599662D02*
X217665451Y-118608461D01*
X217473779Y-119283310D02*
X217504692Y-119327491D01*
X218531626Y-118852130D02*
X218413033Y-118777873D01*
X217417319Y-118883071D02*
X217410710Y-118902817D01*
X219889565Y-118539679D02*
X219889565Y-118539679D01*
X217824677Y-118564634D02*
X217804050Y-118566574D01*
X219360881Y-118226660D02*
X219331994Y-118228236D01*
X219832339Y-119077611D02*
X219855023Y-119019043D01*
X219122799Y-120121338D02*
X219202366Y-120007985D01*
X219890270Y-118900290D02*
X219902125Y-118840344D01*
X219536707Y-119564546D02*
X219612083Y-119461323D01*
X219274858Y-118235276D02*
X219246778Y-118240771D01*
X219331994Y-118228236D02*
X219303292Y-118231103D01*
X217416040Y-119165845D02*
X217425107Y-119190147D01*
X219389866Y-118226364D02*
X219360881Y-118226660D01*
X217487984Y-118754893D02*
X217463754Y-118789412D01*
X217392412Y-119038150D02*
X217394038Y-119064520D01*
X219860287Y-118466999D02*
X219847063Y-118444713D01*
X219907295Y-118629571D02*
X219902833Y-118599538D01*
X219561135Y-118250634D02*
X219533328Y-118243560D01*
X219588450Y-118258889D02*
X219561135Y-118250634D01*
X217515066Y-118722433D02*
X217487984Y-118754893D01*
X217910935Y-118568113D02*
X217877578Y-118564702D01*
X219089738Y-118302502D02*
X219039276Y-118335477D01*
X219691096Y-118303409D02*
X219666596Y-118290582D01*
X218658222Y-118813488D02*
X218647717Y-118854019D01*
X217617788Y-119450640D02*
X217660623Y-119488613D01*
X217797596Y-119593549D02*
X217891016Y-119656189D01*
X219806753Y-119135479D02*
X219832339Y-119077611D01*
X217877578Y-118564702D02*
X217845419Y-118563797D01*
X219748285Y-119248640D02*
X219778617Y-119192528D01*
X217442629Y-118825737D02*
X217433311Y-118844500D01*
X218645003Y-118889208D02*
X218646783Y-118904486D01*
X217394247Y-118984147D02*
X217394247Y-118984147D01*
X217400419Y-118943075D02*
X217396803Y-118963525D01*
X218413033Y-118777873D02*
X218345709Y-118738794D01*
X219202366Y-120007985D02*
X219285986Y-119894601D01*
X219874451Y-118959897D02*
X219890270Y-118900290D01*
X217452787Y-118807364D02*
X217442629Y-118825737D01*
X219714682Y-118317343D02*
X219691096Y-118303409D01*
X217705199Y-119525078D02*
X217751022Y-119560052D01*
X219246778Y-118240771D02*
X219219135Y-118247601D01*
X217408338Y-119141134D02*
X217416040Y-119165845D01*
X219881622Y-118514496D02*
X219871835Y-118490265D01*
X217763257Y-118573643D02*
X217743155Y-118578709D01*
X218764283Y-118618060D02*
X218729547Y-118669904D01*
X219682453Y-119357574D02*
X219716113Y-119303696D01*
X219902833Y-118599538D02*
X219896938Y-118569569D01*
X219798185Y-118383877D02*
X219779104Y-118365653D01*
X218988982Y-118374161D02*
X218939549Y-118417548D01*
X219666596Y-118290582D02*
X219641265Y-118278877D01*
X218646783Y-118904486D02*
X218650771Y-118918052D01*
X219758771Y-118348479D02*
X219737268Y-118332371D01*
X219902125Y-118840344D02*
X219909661Y-118780175D01*
X219716113Y-119303696D02*
X219748285Y-119248640D01*
X219896938Y-118569569D02*
X219889565Y-118539679D01*
X219303292Y-118231103D02*
X219274858Y-118235276D01*
X219139675Y-118276243D02*
X219139675Y-118276243D01*
X219505113Y-118237678D02*
X219476576Y-118233004D01*
X217433311Y-118844500D02*
X217424863Y-118863622D01*
X218016572Y-118591580D02*
X217980593Y-118581733D01*
X217459874Y-119260623D02*
X217473779Y-119283310D01*
X218675824Y-118768624D02*
X218658222Y-118813488D01*
X217980593Y-118581733D02*
X217945326Y-118573850D01*
X219455603Y-119671853D02*
X219536707Y-119564546D01*
X218127159Y-118631104D02*
X218053100Y-118603212D01*
X217751022Y-119560052D02*
X217797596Y-119593549D01*
X218891669Y-118464637D02*
X218846036Y-118514423D01*
X219418867Y-118227332D02*
X219389866Y-118226364D01*
X219612083Y-119461323D02*
X219612083Y-119461323D01*
X217660623Y-119488613D02*
X217705199Y-119525078D01*
X217891016Y-119656189D02*
X217891016Y-119656189D01*
X218846036Y-118514423D02*
X218803344Y-118565898D01*
X218729547Y-118669904D02*
X218699830Y-118720427D01*
X217783565Y-118569587D02*
X217763257Y-118573643D01*
X219815928Y-118403138D02*
X219798185Y-118383877D01*
X217845419Y-118563797D02*
X217824677Y-118564634D01*
X219219135Y-118247601D02*
X219192014Y-118255780D01*
X219847063Y-118444713D02*
X219832250Y-118423421D01*
X217392461Y-119011361D02*
X217392412Y-119038150D01*
X217646860Y-118618117D02*
X217628664Y-118628596D01*
X218650771Y-118918052D02*
X218657053Y-118929782D01*
X219855023Y-119019043D02*
X219874451Y-118959897D01*
X218053100Y-118603212D02*
X218016572Y-118591580D01*
X217463754Y-118789412D02*
X217452787Y-118807364D01*
X219779104Y-118365653D02*
X219758771Y-118348479D01*
X217945326Y-118573850D02*
X217910935Y-118568113D01*
X219039276Y-118335477D02*
X218988982Y-118374161D01*
X219165499Y-118265321D02*
X219139675Y-118276243D01*
D11*
G36*
X236117357Y-149838514D02*
G01*
X236135716Y-149840484D01*
X236206015Y-149862481D01*
X236243963Y-149874355D01*
X236343523Y-149928693D01*
X236430568Y-150001410D01*
X236501755Y-150089711D01*
X236554347Y-150190204D01*
X236586324Y-150299026D01*
X236596456Y-150411995D01*
X236592606Y-150447869D01*
X236584354Y-150524771D01*
X236550484Y-150633017D01*
X236550483Y-150633018D01*
X236496145Y-150732577D01*
X236423428Y-150819622D01*
X236335127Y-150890809D01*
X236259819Y-150930221D01*
X235419256Y-151269831D01*
X235337706Y-151293794D01*
X235224738Y-151303926D01*
X235124064Y-151293123D01*
X235111962Y-151291824D01*
X235003718Y-151257954D01*
X235003715Y-151257953D01*
X234904155Y-151203615D01*
X234817110Y-151130898D01*
X234745923Y-151042597D01*
X234693331Y-150942104D01*
X234661354Y-150833282D01*
X234651222Y-150720314D01*
X234663324Y-150607539D01*
X234681704Y-150548800D01*
X234697194Y-150499294D01*
X234697195Y-150499291D01*
X234751533Y-150399731D01*
X234824250Y-150312686D01*
X234912551Y-150241499D01*
X234987860Y-150202087D01*
X235828421Y-149862477D01*
X235909971Y-149838514D01*
X236022940Y-149828382D01*
X236117357Y-149838514D01*
G37*
G36*
X213754491Y-149401279D02*
G01*
X213784869Y-149410494D01*
X213812865Y-149425458D01*
X213837403Y-149445597D01*
X213857542Y-149470135D01*
X213872506Y-149498131D01*
X213881721Y-149528509D01*
X213885800Y-149569926D01*
X213885800Y-150376074D01*
X213881721Y-150417491D01*
X213872506Y-150447869D01*
X213857542Y-150475865D01*
X213837403Y-150500403D01*
X213812865Y-150520542D01*
X213784869Y-150535506D01*
X213754491Y-150544721D01*
X213713074Y-150548800D01*
X213006926Y-150548800D01*
X212965509Y-150544721D01*
X212935131Y-150535506D01*
X212907135Y-150520542D01*
X212882597Y-150500403D01*
X212862458Y-150475865D01*
X212847494Y-150447869D01*
X212838279Y-150417491D01*
X212834200Y-150376074D01*
X212834200Y-149569926D01*
X212838279Y-149528509D01*
X212847494Y-149498131D01*
X212862458Y-149470135D01*
X212882597Y-149445597D01*
X212907135Y-149425458D01*
X212935131Y-149410494D01*
X212965509Y-149401279D01*
X213006926Y-149397200D01*
X213713074Y-149397200D01*
X213754491Y-149401279D01*
G37*
G36*
X219083754Y-148485817D02*
G01*
X219247689Y-148553721D01*
X219395227Y-148652303D01*
X219520697Y-148777773D01*
X219619279Y-148925311D01*
X219687183Y-149089246D01*
X219721800Y-149263279D01*
X219721800Y-149440721D01*
X219687183Y-149614754D01*
X219619279Y-149778689D01*
X219520697Y-149926227D01*
X219395227Y-150051697D01*
X219247689Y-150150279D01*
X219083754Y-150218183D01*
X218909721Y-150252800D01*
X218732279Y-150252800D01*
X218558246Y-150218183D01*
X218394311Y-150150279D01*
X218246773Y-150051697D01*
X218121303Y-149926227D01*
X218022721Y-149778689D01*
X217954817Y-149614754D01*
X217920200Y-149440721D01*
X217920200Y-149263279D01*
X217954817Y-149089246D01*
X218022721Y-148925311D01*
X218121303Y-148777773D01*
X218246773Y-148652303D01*
X218394311Y-148553721D01*
X218558246Y-148485817D01*
X218732279Y-148451200D01*
X218909721Y-148451200D01*
X219083754Y-148485817D01*
G37*
G36*
X217181800Y-150252800D02*
G01*
X215380200Y-150252800D01*
X215380200Y-148451200D01*
X217181800Y-148451200D01*
X217181800Y-150252800D01*
G37*
G36*
X221623754Y-148485817D02*
G01*
X221787689Y-148553721D01*
X221935227Y-148652303D01*
X222060697Y-148777773D01*
X222159279Y-148925311D01*
X222227183Y-149089246D01*
X222261800Y-149263279D01*
X222261800Y-149440721D01*
X222227183Y-149614754D01*
X222159279Y-149778689D01*
X222060697Y-149926227D01*
X221935227Y-150051697D01*
X221787689Y-150150279D01*
X221623754Y-150218183D01*
X221449721Y-150252800D01*
X221272279Y-150252800D01*
X221098246Y-150218183D01*
X220934311Y-150150279D01*
X220786773Y-150051697D01*
X220661303Y-149926227D01*
X220562721Y-149778689D01*
X220494817Y-149614754D01*
X220460200Y-149440721D01*
X220460200Y-149263279D01*
X220494817Y-149089246D01*
X220562721Y-148925311D01*
X220661303Y-148777773D01*
X220786773Y-148652303D01*
X220934311Y-148553721D01*
X221098246Y-148485817D01*
X221272279Y-148451200D01*
X221449721Y-148451200D01*
X221623754Y-148485817D01*
G37*
G36*
X234390800Y-149978800D02*
G01*
X232789200Y-149978800D01*
X232789200Y-148877200D01*
X234390800Y-148877200D01*
X234390800Y-149978800D01*
G37*
G36*
X229490800Y-149978800D02*
G01*
X227889200Y-149978800D01*
X227889200Y-148877200D01*
X229490800Y-148877200D01*
X229490800Y-149978800D01*
G37*
G36*
X209498800Y-149978800D02*
G01*
X207897200Y-149978800D01*
X207897200Y-148877200D01*
X209498800Y-148877200D01*
X209498800Y-149978800D01*
G37*
G36*
X204598800Y-149978800D02*
G01*
X202997200Y-149978800D01*
X202997200Y-148877200D01*
X204598800Y-148877200D01*
X204598800Y-149978800D01*
G37*
G36*
X210960491Y-148131279D02*
G01*
X210990869Y-148140494D01*
X211018865Y-148155458D01*
X211043403Y-148175597D01*
X211063542Y-148200135D01*
X211078506Y-148228131D01*
X211087721Y-148258509D01*
X211091800Y-148299926D01*
X211091800Y-149106074D01*
X211087721Y-149147491D01*
X211078506Y-149177869D01*
X211063542Y-149205865D01*
X211043403Y-149230403D01*
X211018865Y-149250542D01*
X210990869Y-149265506D01*
X210960491Y-149274721D01*
X210919074Y-149278800D01*
X210212926Y-149278800D01*
X210171509Y-149274721D01*
X210141131Y-149265506D01*
X210113135Y-149250542D01*
X210088597Y-149230403D01*
X210068458Y-149205865D01*
X210053494Y-149177869D01*
X210044279Y-149147491D01*
X210040200Y-149106074D01*
X210040200Y-148299926D01*
X210044279Y-148258509D01*
X210053494Y-148228131D01*
X210068458Y-148200135D01*
X210088597Y-148175597D01*
X210113135Y-148155458D01*
X210141131Y-148140494D01*
X210171509Y-148131279D01*
X210212926Y-148127200D01*
X210919074Y-148127200D01*
X210960491Y-148131279D01*
G37*
G36*
X227216491Y-148131279D02*
G01*
X227246869Y-148140494D01*
X227274865Y-148155458D01*
X227299403Y-148175597D01*
X227319542Y-148200135D01*
X227334506Y-148228131D01*
X227343721Y-148258509D01*
X227347800Y-148299926D01*
X227347800Y-149106074D01*
X227343721Y-149147491D01*
X227334506Y-149177869D01*
X227319542Y-149205865D01*
X227299403Y-149230403D01*
X227274865Y-149250542D01*
X227246869Y-149265506D01*
X227216491Y-149274721D01*
X227175074Y-149278800D01*
X226468926Y-149278800D01*
X226427509Y-149274721D01*
X226397131Y-149265506D01*
X226369135Y-149250542D01*
X226344597Y-149230403D01*
X226324458Y-149205865D01*
X226309494Y-149177869D01*
X226300279Y-149147491D01*
X226296200Y-149106074D01*
X226296200Y-148299926D01*
X226300279Y-148258509D01*
X226309494Y-148228131D01*
X226324458Y-148200135D01*
X226344597Y-148175597D01*
X226369135Y-148155458D01*
X226397131Y-148140494D01*
X226427509Y-148131279D01*
X226468926Y-148127200D01*
X227175074Y-148127200D01*
X227216491Y-148131279D01*
G37*
G36*
X213754491Y-147651279D02*
G01*
X213784869Y-147660494D01*
X213812865Y-147675458D01*
X213837403Y-147695597D01*
X213857542Y-147720135D01*
X213872506Y-147748131D01*
X213881721Y-147778509D01*
X213885800Y-147819926D01*
X213885800Y-148626074D01*
X213881721Y-148667491D01*
X213872506Y-148697869D01*
X213857542Y-148725865D01*
X213837403Y-148750403D01*
X213812865Y-148770542D01*
X213784869Y-148785506D01*
X213754491Y-148794721D01*
X213713074Y-148798800D01*
X213006926Y-148798800D01*
X212965509Y-148794721D01*
X212935131Y-148785506D01*
X212907135Y-148770542D01*
X212882597Y-148750403D01*
X212862458Y-148725865D01*
X212847494Y-148697869D01*
X212838279Y-148667491D01*
X212834200Y-148626074D01*
X212834200Y-147819926D01*
X212838279Y-147778509D01*
X212847494Y-147748131D01*
X212862458Y-147720135D01*
X212882597Y-147695597D01*
X212907135Y-147675458D01*
X212935131Y-147660494D01*
X212965509Y-147651279D01*
X213006926Y-147647200D01*
X213713074Y-147647200D01*
X213754491Y-147651279D01*
G37*
G36*
X242698800Y-147692800D02*
G01*
X241097200Y-147692800D01*
X241097200Y-146591200D01*
X242698800Y-146591200D01*
X242698800Y-147692800D01*
G37*
G36*
X247598800Y-147692800D02*
G01*
X245997200Y-147692800D01*
X245997200Y-146591200D01*
X247598800Y-146591200D01*
X247598800Y-147692800D01*
G37*
G36*
X227216491Y-146381279D02*
G01*
X227246869Y-146390494D01*
X227274865Y-146405458D01*
X227299403Y-146425597D01*
X227319542Y-146450135D01*
X227334506Y-146478131D01*
X227343721Y-146508509D01*
X227347800Y-146549926D01*
X227347800Y-147356074D01*
X227343721Y-147397491D01*
X227334506Y-147427869D01*
X227319542Y-147455865D01*
X227299403Y-147480403D01*
X227274865Y-147500542D01*
X227246869Y-147515506D01*
X227216491Y-147524721D01*
X227175074Y-147528800D01*
X226468926Y-147528800D01*
X226427509Y-147524721D01*
X226397131Y-147515506D01*
X226369135Y-147500542D01*
X226344597Y-147480403D01*
X226324458Y-147455865D01*
X226309494Y-147427869D01*
X226300279Y-147397491D01*
X226296200Y-147356074D01*
X226296200Y-146549926D01*
X226300279Y-146508509D01*
X226309494Y-146478131D01*
X226324458Y-146450135D01*
X226344597Y-146425597D01*
X226369135Y-146405458D01*
X226397131Y-146390494D01*
X226427509Y-146381279D01*
X226468926Y-146377200D01*
X227175074Y-146377200D01*
X227216491Y-146381279D01*
G37*
G36*
X210960491Y-146381279D02*
G01*
X210990869Y-146390494D01*
X211018865Y-146405458D01*
X211043403Y-146425597D01*
X211063542Y-146450135D01*
X211078506Y-146478131D01*
X211087721Y-146508509D01*
X211091800Y-146549926D01*
X211091800Y-147356074D01*
X211087721Y-147397491D01*
X211078506Y-147427869D01*
X211063542Y-147455865D01*
X211043403Y-147480403D01*
X211018865Y-147500542D01*
X210990869Y-147515506D01*
X210960491Y-147524721D01*
X210919074Y-147528800D01*
X210212926Y-147528800D01*
X210171509Y-147524721D01*
X210141131Y-147515506D01*
X210113135Y-147500542D01*
X210088597Y-147480403D01*
X210068458Y-147455865D01*
X210053494Y-147427869D01*
X210044279Y-147397491D01*
X210040200Y-147356074D01*
X210040200Y-146549926D01*
X210044279Y-146508509D01*
X210053494Y-146478131D01*
X210068458Y-146450135D01*
X210088597Y-146425597D01*
X210113135Y-146405458D01*
X210141131Y-146390494D01*
X210171509Y-146381279D01*
X210212926Y-146377200D01*
X210919074Y-146377200D01*
X210960491Y-146381279D01*
G37*
G36*
X204598800Y-146778800D02*
G01*
X202997200Y-146778800D01*
X202997200Y-145677200D01*
X204598800Y-145677200D01*
X204598800Y-146778800D01*
G37*
G36*
X209498800Y-146778800D02*
G01*
X207897200Y-146778800D01*
X207897200Y-145677200D01*
X209498800Y-145677200D01*
X209498800Y-146778800D01*
G37*
G36*
X234390800Y-146778800D02*
G01*
X232789200Y-146778800D01*
X232789200Y-145677200D01*
X234390800Y-145677200D01*
X234390800Y-146778800D01*
G37*
G36*
X229490800Y-146778800D02*
G01*
X227889200Y-146778800D01*
X227889200Y-145677200D01*
X229490800Y-145677200D01*
X229490800Y-146778800D01*
G37*
G36*
X211769800Y-145444800D02*
G01*
X211018200Y-145444800D01*
X211018200Y-144283200D01*
X211769800Y-144283200D01*
X211769800Y-145444800D01*
G37*
G36*
X213669800Y-145444800D02*
G01*
X212918200Y-145444800D01*
X212918200Y-144283200D01*
X213669800Y-144283200D01*
X213669800Y-145444800D01*
G37*
G36*
X217044800Y-145376800D02*
G01*
X214943200Y-145376800D01*
X214943200Y-143675200D01*
X217044800Y-143675200D01*
X217044800Y-145376800D01*
G37*
G36*
X222444800Y-145376800D02*
G01*
X220343200Y-145376800D01*
X220343200Y-143675200D01*
X222444800Y-143675200D01*
X222444800Y-145376800D01*
G37*
G36*
X233438920Y-143209150D02*
G01*
X233457279Y-143211120D01*
X233527578Y-143233117D01*
X233565526Y-143244991D01*
X233665086Y-143299329D01*
X233752131Y-143372046D01*
X233823318Y-143460347D01*
X233875910Y-143560840D01*
X233907887Y-143669662D01*
X233918019Y-143782631D01*
X233908651Y-143869927D01*
X233905917Y-143895407D01*
X233872047Y-144003653D01*
X233872046Y-144003654D01*
X233817708Y-144103213D01*
X233744991Y-144190258D01*
X233656690Y-144261445D01*
X233581382Y-144300857D01*
X232740819Y-144640467D01*
X232659269Y-144664430D01*
X232546301Y-144674562D01*
X232445627Y-144663759D01*
X232433525Y-144662460D01*
X232325281Y-144628590D01*
X232325278Y-144628589D01*
X232225718Y-144574251D01*
X232138673Y-144501534D01*
X232067486Y-144413233D01*
X232014894Y-144312740D01*
X231982917Y-144203918D01*
X231972785Y-144090950D01*
X231984887Y-143978175D01*
X232010786Y-143895406D01*
X232018757Y-143869930D01*
X232018758Y-143869927D01*
X232073096Y-143770367D01*
X232145813Y-143683322D01*
X232234114Y-143612135D01*
X232309423Y-143572723D01*
X233149984Y-143233113D01*
X233231534Y-143209150D01*
X233344503Y-143199018D01*
X233438920Y-143209150D01*
G37*
G36*
X242698800Y-144492800D02*
G01*
X241097200Y-144492800D01*
X241097200Y-143391200D01*
X242698800Y-143391200D01*
X242698800Y-144492800D01*
G37*
G36*
X247598800Y-144492800D02*
G01*
X245997200Y-144492800D01*
X245997200Y-143391200D01*
X247598800Y-143391200D01*
X247598800Y-144492800D01*
G37*
G36*
X229592800Y-143640800D02*
G01*
X228591200Y-143640800D01*
X228591200Y-142739200D01*
X229592800Y-142739200D01*
X229592800Y-143640800D01*
G37*
G36*
X213669800Y-143244800D02*
G01*
X211018200Y-143244800D01*
X211018200Y-142083200D01*
X213669800Y-142083200D01*
X213669800Y-143244800D01*
G37*
G36*
X207780800Y-142724800D02*
G01*
X206879200Y-142724800D01*
X206879200Y-141723200D01*
X207780800Y-141723200D01*
X207780800Y-142724800D01*
G37*
G36*
X209680800Y-142724800D02*
G01*
X208779200Y-142724800D01*
X208779200Y-141723200D01*
X209680800Y-141723200D01*
X209680800Y-142724800D01*
G37*
G36*
X227592800Y-142690800D02*
G01*
X226591200Y-142690800D01*
X226591200Y-141789200D01*
X227592800Y-141789200D01*
X227592800Y-142690800D01*
G37*
G36*
X243917491Y-141210279D02*
G01*
X243947869Y-141219494D01*
X243975865Y-141234458D01*
X244000403Y-141254597D01*
X244020542Y-141279135D01*
X244035506Y-141307131D01*
X244044721Y-141337509D01*
X244048800Y-141378926D01*
X244048800Y-142085074D01*
X244044721Y-142126491D01*
X244035506Y-142156869D01*
X244020542Y-142184865D01*
X244000403Y-142209403D01*
X243975865Y-142229542D01*
X243947869Y-142244506D01*
X243917491Y-142253721D01*
X243876074Y-142257800D01*
X243069926Y-142257800D01*
X243028509Y-142253721D01*
X242998131Y-142244506D01*
X242970135Y-142229542D01*
X242945597Y-142209403D01*
X242925458Y-142184865D01*
X242910494Y-142156869D01*
X242901279Y-142126491D01*
X242897200Y-142085074D01*
X242897200Y-141378926D01*
X242901279Y-141337509D01*
X242910494Y-141307131D01*
X242925458Y-141279135D01*
X242945597Y-141254597D01*
X242970135Y-141234458D01*
X242998131Y-141219494D01*
X243028509Y-141210279D01*
X243069926Y-141206200D01*
X243876074Y-141206200D01*
X243917491Y-141210279D01*
G37*
G36*
X245667491Y-141210279D02*
G01*
X245697869Y-141219494D01*
X245725865Y-141234458D01*
X245750403Y-141254597D01*
X245770542Y-141279135D01*
X245785506Y-141307131D01*
X245794721Y-141337509D01*
X245798800Y-141378926D01*
X245798800Y-142085074D01*
X245794721Y-142126491D01*
X245785506Y-142156869D01*
X245770542Y-142184865D01*
X245750403Y-142209403D01*
X245725865Y-142229542D01*
X245697869Y-142244506D01*
X245667491Y-142253721D01*
X245626074Y-142257800D01*
X244819926Y-142257800D01*
X244778509Y-142253721D01*
X244748131Y-142244506D01*
X244720135Y-142229542D01*
X244695597Y-142209403D01*
X244675458Y-142184865D01*
X244660494Y-142156869D01*
X244651279Y-142126491D01*
X244647200Y-142085074D01*
X244647200Y-141378926D01*
X244651279Y-141337509D01*
X244660494Y-141307131D01*
X244675458Y-141279135D01*
X244695597Y-141254597D01*
X244720135Y-141234458D01*
X244748131Y-141219494D01*
X244778509Y-141210279D01*
X244819926Y-141206200D01*
X245626074Y-141206200D01*
X245667491Y-141210279D01*
G37*
G36*
X229592800Y-141740800D02*
G01*
X228591200Y-141740800D01*
X228591200Y-140839200D01*
X229592800Y-140839200D01*
X229592800Y-141740800D01*
G37*
G36*
X217284599Y-140103206D02*
G01*
X217314248Y-140112199D01*
X217341577Y-140126807D01*
X217365533Y-140146467D01*
X217385193Y-140170423D01*
X217399801Y-140197752D01*
X217408794Y-140227401D01*
X217412800Y-140268070D01*
X217412800Y-141181930D01*
X217408794Y-141222599D01*
X217399801Y-141252248D01*
X217385193Y-141279577D01*
X217365533Y-141303533D01*
X217341577Y-141323193D01*
X217314248Y-141337801D01*
X217284599Y-141346794D01*
X217243930Y-141350800D01*
X216080070Y-141350800D01*
X216039401Y-141346794D01*
X216009752Y-141337801D01*
X215982423Y-141323193D01*
X215958467Y-141303533D01*
X215938807Y-141279577D01*
X215924199Y-141252248D01*
X215915206Y-141222599D01*
X215911200Y-141181930D01*
X215911200Y-140268070D01*
X215915206Y-140227401D01*
X215924199Y-140197752D01*
X215938807Y-140170423D01*
X215958467Y-140146467D01*
X215982423Y-140126807D01*
X216009752Y-140112199D01*
X216039401Y-140103206D01*
X216080070Y-140099200D01*
X217243930Y-140099200D01*
X217284599Y-140103206D01*
G37*
G36*
X224331491Y-140194279D02*
G01*
X224361869Y-140203494D01*
X224389865Y-140218458D01*
X224414403Y-140238597D01*
X224434542Y-140263135D01*
X224449506Y-140291131D01*
X224458721Y-140321509D01*
X224462800Y-140362926D01*
X224462800Y-141069074D01*
X224458721Y-141110491D01*
X224449506Y-141140869D01*
X224434542Y-141168865D01*
X224414403Y-141193403D01*
X224389865Y-141213542D01*
X224361869Y-141228506D01*
X224331491Y-141237721D01*
X224290074Y-141241800D01*
X223483926Y-141241800D01*
X223442509Y-141237721D01*
X223412131Y-141228506D01*
X223384135Y-141213542D01*
X223359597Y-141193403D01*
X223339458Y-141168865D01*
X223324494Y-141140869D01*
X223315279Y-141110491D01*
X223311200Y-141069074D01*
X223311200Y-140362926D01*
X223315279Y-140321509D01*
X223324494Y-140291131D01*
X223339458Y-140263135D01*
X223359597Y-140238597D01*
X223384135Y-140218458D01*
X223412131Y-140203494D01*
X223442509Y-140194279D01*
X223483926Y-140190200D01*
X224290074Y-140190200D01*
X224331491Y-140194279D01*
G37*
G36*
X222581491Y-140194279D02*
G01*
X222611869Y-140203494D01*
X222639865Y-140218458D01*
X222664403Y-140238597D01*
X222684542Y-140263135D01*
X222699506Y-140291131D01*
X222708721Y-140321509D01*
X222712800Y-140362926D01*
X222712800Y-141069074D01*
X222708721Y-141110491D01*
X222699506Y-141140869D01*
X222684542Y-141168865D01*
X222664403Y-141193403D01*
X222639865Y-141213542D01*
X222611869Y-141228506D01*
X222581491Y-141237721D01*
X222540074Y-141241800D01*
X221733926Y-141241800D01*
X221692509Y-141237721D01*
X221662131Y-141228506D01*
X221634135Y-141213542D01*
X221609597Y-141193403D01*
X221589458Y-141168865D01*
X221574494Y-141140869D01*
X221565279Y-141110491D01*
X221561200Y-141069074D01*
X221561200Y-140362926D01*
X221565279Y-140321509D01*
X221574494Y-140291131D01*
X221589458Y-140263135D01*
X221609597Y-140238597D01*
X221634135Y-140218458D01*
X221662131Y-140203494D01*
X221692509Y-140194279D01*
X221733926Y-140190200D01*
X222540074Y-140190200D01*
X222581491Y-140194279D01*
G37*
G36*
X220358491Y-140003279D02*
G01*
X220388869Y-140012494D01*
X220416865Y-140027458D01*
X220441403Y-140047597D01*
X220461542Y-140072135D01*
X220476506Y-140100131D01*
X220485721Y-140130509D01*
X220489800Y-140171926D01*
X220489800Y-140978074D01*
X220485721Y-141019491D01*
X220476506Y-141049869D01*
X220461542Y-141077865D01*
X220441403Y-141102403D01*
X220416865Y-141122542D01*
X220388869Y-141137506D01*
X220358491Y-141146721D01*
X220317074Y-141150800D01*
X219610926Y-141150800D01*
X219569509Y-141146721D01*
X219539131Y-141137506D01*
X219511135Y-141122542D01*
X219486597Y-141102403D01*
X219466458Y-141077865D01*
X219451494Y-141049869D01*
X219442279Y-141019491D01*
X219438200Y-140978074D01*
X219438200Y-140171926D01*
X219442279Y-140130509D01*
X219451494Y-140100131D01*
X219466458Y-140072135D01*
X219486597Y-140047597D01*
X219511135Y-140027458D01*
X219539131Y-140012494D01*
X219569509Y-140003279D01*
X219610926Y-139999200D01*
X220317074Y-139999200D01*
X220358491Y-140003279D01*
G37*
G36*
X208730800Y-140724800D02*
G01*
X207829200Y-140724800D01*
X207829200Y-139723200D01*
X208730800Y-139723200D01*
X208730800Y-140724800D01*
G37*
G36*
X220358491Y-138253279D02*
G01*
X220388869Y-138262494D01*
X220416865Y-138277458D01*
X220441403Y-138297597D01*
X220461542Y-138322135D01*
X220476506Y-138350131D01*
X220485721Y-138380509D01*
X220489800Y-138421926D01*
X220489800Y-139228074D01*
X220485721Y-139269491D01*
X220476506Y-139299869D01*
X220461542Y-139327865D01*
X220441403Y-139352403D01*
X220416865Y-139372542D01*
X220388869Y-139387506D01*
X220358491Y-139396721D01*
X220317074Y-139400800D01*
X219610926Y-139400800D01*
X219569509Y-139396721D01*
X219539131Y-139387506D01*
X219511135Y-139372542D01*
X219486597Y-139352403D01*
X219466458Y-139327865D01*
X219451494Y-139299869D01*
X219442279Y-139269491D01*
X219438200Y-139228074D01*
X219438200Y-138421926D01*
X219442279Y-138380509D01*
X219451494Y-138350131D01*
X219466458Y-138322135D01*
X219486597Y-138297597D01*
X219511135Y-138277458D01*
X219539131Y-138262494D01*
X219569509Y-138253279D01*
X219610926Y-138249200D01*
X220317074Y-138249200D01*
X220358491Y-138253279D01*
G37*
G36*
X217284599Y-138053206D02*
G01*
X217314248Y-138062199D01*
X217341577Y-138076807D01*
X217365533Y-138096467D01*
X217385193Y-138120423D01*
X217399801Y-138147752D01*
X217408794Y-138177401D01*
X217412800Y-138218070D01*
X217412800Y-139131930D01*
X217408794Y-139172599D01*
X217399801Y-139202248D01*
X217385193Y-139229577D01*
X217365533Y-139253533D01*
X217341577Y-139273193D01*
X217314248Y-139287801D01*
X217284599Y-139296794D01*
X217243930Y-139300800D01*
X216080070Y-139300800D01*
X216039401Y-139296794D01*
X216009752Y-139287801D01*
X215982423Y-139273193D01*
X215958467Y-139253533D01*
X215938807Y-139229577D01*
X215924199Y-139202248D01*
X215915206Y-139172599D01*
X215911200Y-139131930D01*
X215911200Y-138218070D01*
X215915206Y-138177401D01*
X215924199Y-138147752D01*
X215938807Y-138120423D01*
X215958467Y-138096467D01*
X215982423Y-138076807D01*
X216009752Y-138062199D01*
X216039401Y-138053206D01*
X216080070Y-138049200D01*
X217243930Y-138049200D01*
X217284599Y-138053206D01*
G37*
G36*
X228802800Y-138040800D02*
G01*
X227201200Y-138040800D01*
X227201200Y-136939200D01*
X228802800Y-136939200D01*
X228802800Y-138040800D01*
G37*
G36*
X223902800Y-138040800D02*
G01*
X222301200Y-138040800D01*
X222301200Y-136939200D01*
X223902800Y-136939200D01*
X223902800Y-138040800D01*
G37*
G36*
X215086800Y-138040800D02*
G01*
X213485200Y-138040800D01*
X213485200Y-136939200D01*
X215086800Y-136939200D01*
X215086800Y-138040800D01*
G37*
G36*
X210186800Y-138040800D02*
G01*
X208585200Y-138040800D01*
X208585200Y-136939200D01*
X210186800Y-136939200D01*
X210186800Y-138040800D01*
G37*
G36*
X216802491Y-135939279D02*
G01*
X216832869Y-135948494D01*
X216860865Y-135963458D01*
X216885403Y-135983597D01*
X216905542Y-136008135D01*
X216920506Y-136036131D01*
X216929721Y-136066509D01*
X216933800Y-136107926D01*
X216933800Y-136914074D01*
X216929721Y-136955491D01*
X216920506Y-136985869D01*
X216905542Y-137013865D01*
X216885403Y-137038403D01*
X216860865Y-137058542D01*
X216832869Y-137073506D01*
X216802491Y-137082721D01*
X216761074Y-137086800D01*
X216054926Y-137086800D01*
X216013509Y-137082721D01*
X215983131Y-137073506D01*
X215955135Y-137058542D01*
X215930597Y-137038403D01*
X215910458Y-137013865D01*
X215895494Y-136985869D01*
X215886279Y-136955491D01*
X215882200Y-136914074D01*
X215882200Y-136107926D01*
X215886279Y-136066509D01*
X215895494Y-136036131D01*
X215910458Y-136008135D01*
X215930597Y-135983597D01*
X215955135Y-135963458D01*
X215983131Y-135948494D01*
X216013509Y-135939279D01*
X216054926Y-135935200D01*
X216761074Y-135935200D01*
X216802491Y-135939279D01*
G37*
G36*
X221374491Y-135939279D02*
G01*
X221404869Y-135948494D01*
X221432865Y-135963458D01*
X221457403Y-135983597D01*
X221477542Y-136008135D01*
X221492506Y-136036131D01*
X221501721Y-136066509D01*
X221505800Y-136107926D01*
X221505800Y-136914074D01*
X221501721Y-136955491D01*
X221492506Y-136985869D01*
X221477542Y-137013865D01*
X221457403Y-137038403D01*
X221432865Y-137058542D01*
X221404869Y-137073506D01*
X221374491Y-137082721D01*
X221333074Y-137086800D01*
X220626926Y-137086800D01*
X220585509Y-137082721D01*
X220555131Y-137073506D01*
X220527135Y-137058542D01*
X220502597Y-137038403D01*
X220482458Y-137013865D01*
X220467494Y-136985869D01*
X220458279Y-136955491D01*
X220454200Y-136914074D01*
X220454200Y-136107926D01*
X220458279Y-136066509D01*
X220467494Y-136036131D01*
X220482458Y-136008135D01*
X220502597Y-135983597D01*
X220527135Y-135963458D01*
X220555131Y-135948494D01*
X220585509Y-135939279D01*
X220626926Y-135935200D01*
X221333074Y-135935200D01*
X221374491Y-135939279D01*
G37*
G36*
X240740800Y-136262800D02*
G01*
X239139200Y-136262800D01*
X239139200Y-135161200D01*
X240740800Y-135161200D01*
X240740800Y-136262800D01*
G37*
G36*
X254456800Y-136262800D02*
G01*
X252855200Y-136262800D01*
X252855200Y-135161200D01*
X254456800Y-135161200D01*
X254456800Y-136262800D01*
G37*
G36*
X249556800Y-136262800D02*
G01*
X247955200Y-136262800D01*
X247955200Y-135161200D01*
X249556800Y-135161200D01*
X249556800Y-136262800D01*
G37*
G36*
X235840800Y-136262800D02*
G01*
X234239200Y-136262800D01*
X234239200Y-135161200D01*
X235840800Y-135161200D01*
X235840800Y-136262800D01*
G37*
G36*
X231707062Y-134496767D02*
G01*
X231707064Y-134496768D01*
X231707065Y-134496768D01*
X231807299Y-134538285D01*
X231897514Y-134598565D01*
X231974235Y-134675286D01*
X232034515Y-134765501D01*
X232065704Y-134840800D01*
X232076033Y-134865738D01*
X232097200Y-134972151D01*
X232097200Y-135080649D01*
X232080606Y-135164074D01*
X232076032Y-135187065D01*
X232034515Y-135287299D01*
X231974235Y-135377514D01*
X231897514Y-135454235D01*
X231807299Y-135514515D01*
X231707065Y-135556032D01*
X231707064Y-135556032D01*
X231707062Y-135556033D01*
X231600649Y-135577200D01*
X231492151Y-135577200D01*
X231385738Y-135556033D01*
X231385736Y-135556032D01*
X231385735Y-135556032D01*
X231285501Y-135514515D01*
X231195286Y-135454235D01*
X231118565Y-135377514D01*
X231058285Y-135287299D01*
X231016768Y-135187065D01*
X231012195Y-135164074D01*
X230995600Y-135080649D01*
X230995600Y-134972151D01*
X231016767Y-134865738D01*
X231027096Y-134840800D01*
X231058285Y-134765501D01*
X231118565Y-134675286D01*
X231195286Y-134598565D01*
X231285501Y-134538285D01*
X231385735Y-134496768D01*
X231385736Y-134496768D01*
X231385738Y-134496767D01*
X231492151Y-134475600D01*
X231600649Y-134475600D01*
X231707062Y-134496767D01*
G37*
G36*
X246774491Y-134415279D02*
G01*
X246804869Y-134424494D01*
X246832865Y-134439458D01*
X246857403Y-134459597D01*
X246877542Y-134484135D01*
X246892506Y-134512131D01*
X246901721Y-134542509D01*
X246905800Y-134583926D01*
X246905800Y-135390074D01*
X246901721Y-135431491D01*
X246892506Y-135461869D01*
X246877542Y-135489865D01*
X246857403Y-135514403D01*
X246832865Y-135534542D01*
X246804869Y-135549506D01*
X246774491Y-135558721D01*
X246733074Y-135562800D01*
X246026926Y-135562800D01*
X245985509Y-135558721D01*
X245955131Y-135549506D01*
X245927135Y-135534542D01*
X245902597Y-135514403D01*
X245882458Y-135489865D01*
X245867494Y-135461869D01*
X245858279Y-135431491D01*
X245854200Y-135390074D01*
X245854200Y-134583926D01*
X245858279Y-134542509D01*
X245867494Y-134512131D01*
X245882458Y-134484135D01*
X245902597Y-134459597D01*
X245927135Y-134439458D01*
X245955131Y-134424494D01*
X245985509Y-134415279D01*
X246026926Y-134411200D01*
X246733074Y-134411200D01*
X246774491Y-134415279D01*
G37*
G36*
X242710491Y-134415279D02*
G01*
X242740869Y-134424494D01*
X242768865Y-134439458D01*
X242793403Y-134459597D01*
X242813542Y-134484135D01*
X242828506Y-134512131D01*
X242837721Y-134542509D01*
X242841800Y-134583926D01*
X242841800Y-135390074D01*
X242837721Y-135431491D01*
X242828506Y-135461869D01*
X242813542Y-135489865D01*
X242793403Y-135514403D01*
X242768865Y-135534542D01*
X242740869Y-135549506D01*
X242710491Y-135558721D01*
X242669074Y-135562800D01*
X241962926Y-135562800D01*
X241921509Y-135558721D01*
X241891131Y-135549506D01*
X241863135Y-135534542D01*
X241838597Y-135514403D01*
X241818458Y-135489865D01*
X241803494Y-135461869D01*
X241794279Y-135431491D01*
X241790200Y-135390074D01*
X241790200Y-134583926D01*
X241794279Y-134542509D01*
X241803494Y-134512131D01*
X241818458Y-134484135D01*
X241838597Y-134459597D01*
X241863135Y-134439458D01*
X241891131Y-134424494D01*
X241921509Y-134415279D01*
X241962926Y-134411200D01*
X242669074Y-134411200D01*
X242710491Y-134415279D01*
G37*
G36*
X221374491Y-134189279D02*
G01*
X221404869Y-134198494D01*
X221432865Y-134213458D01*
X221457403Y-134233597D01*
X221477542Y-134258135D01*
X221492506Y-134286131D01*
X221501721Y-134316509D01*
X221505800Y-134357926D01*
X221505800Y-135164074D01*
X221501721Y-135205491D01*
X221492506Y-135235869D01*
X221477542Y-135263865D01*
X221457403Y-135288403D01*
X221432865Y-135308542D01*
X221404869Y-135323506D01*
X221374491Y-135332721D01*
X221333074Y-135336800D01*
X220626926Y-135336800D01*
X220585509Y-135332721D01*
X220555131Y-135323506D01*
X220527135Y-135308542D01*
X220502597Y-135288403D01*
X220482458Y-135263865D01*
X220467494Y-135235869D01*
X220458279Y-135205491D01*
X220454200Y-135164074D01*
X220454200Y-134357926D01*
X220458279Y-134316509D01*
X220467494Y-134286131D01*
X220482458Y-134258135D01*
X220502597Y-134233597D01*
X220527135Y-134213458D01*
X220555131Y-134198494D01*
X220585509Y-134189279D01*
X220626926Y-134185200D01*
X221333074Y-134185200D01*
X221374491Y-134189279D01*
G37*
G36*
X216802491Y-134189279D02*
G01*
X216832869Y-134198494D01*
X216860865Y-134213458D01*
X216885403Y-134233597D01*
X216905542Y-134258135D01*
X216920506Y-134286131D01*
X216929721Y-134316509D01*
X216933800Y-134357926D01*
X216933800Y-135164074D01*
X216929721Y-135205491D01*
X216920506Y-135235869D01*
X216905542Y-135263865D01*
X216885403Y-135288403D01*
X216860865Y-135308542D01*
X216832869Y-135323506D01*
X216802491Y-135332721D01*
X216761074Y-135336800D01*
X216054926Y-135336800D01*
X216013509Y-135332721D01*
X215983131Y-135323506D01*
X215955135Y-135308542D01*
X215930597Y-135288403D01*
X215910458Y-135263865D01*
X215895494Y-135235869D01*
X215886279Y-135205491D01*
X215882200Y-135164074D01*
X215882200Y-134357926D01*
X215886279Y-134316509D01*
X215895494Y-134286131D01*
X215910458Y-134258135D01*
X215930597Y-134233597D01*
X215955135Y-134213458D01*
X215983131Y-134198494D01*
X216013509Y-134189279D01*
X216054926Y-134185200D01*
X216761074Y-134185200D01*
X216802491Y-134189279D01*
G37*
G36*
X228802800Y-134840800D02*
G01*
X227201200Y-134840800D01*
X227201200Y-133739200D01*
X228802800Y-133739200D01*
X228802800Y-134840800D01*
G37*
G36*
X215086800Y-134840800D02*
G01*
X213485200Y-134840800D01*
X213485200Y-133739200D01*
X215086800Y-133739200D01*
X215086800Y-134840800D01*
G37*
G36*
X210186800Y-134840800D02*
G01*
X208585200Y-134840800D01*
X208585200Y-133739200D01*
X210186800Y-133739200D01*
X210186800Y-134840800D01*
G37*
G36*
X223902800Y-134840800D02*
G01*
X222301200Y-134840800D01*
X222301200Y-133739200D01*
X223902800Y-133739200D01*
X223902800Y-134840800D01*
G37*
G36*
X230919662Y-132845767D02*
G01*
X230919664Y-132845768D01*
X230919665Y-132845768D01*
X231019899Y-132887285D01*
X231110114Y-132947565D01*
X231186835Y-133024286D01*
X231247115Y-133114501D01*
X231288632Y-133214735D01*
X231309800Y-133321151D01*
X231309800Y-133429649D01*
X231288632Y-133536065D01*
X231247115Y-133636299D01*
X231186835Y-133726514D01*
X231110114Y-133803235D01*
X231019899Y-133863515D01*
X230919665Y-133905032D01*
X230919664Y-133905032D01*
X230919662Y-133905033D01*
X230813249Y-133926200D01*
X230704751Y-133926200D01*
X230598338Y-133905033D01*
X230598336Y-133905032D01*
X230598335Y-133905032D01*
X230498101Y-133863515D01*
X230407886Y-133803235D01*
X230331165Y-133726514D01*
X230270885Y-133636299D01*
X230229368Y-133536065D01*
X230208200Y-133429649D01*
X230208200Y-133321151D01*
X230229368Y-133214735D01*
X230270885Y-133114501D01*
X230331165Y-133024286D01*
X230407886Y-132947565D01*
X230498101Y-132887285D01*
X230598335Y-132845768D01*
X230598336Y-132845768D01*
X230598338Y-132845767D01*
X230704751Y-132824600D01*
X230813249Y-132824600D01*
X230919662Y-132845767D01*
G37*
G36*
X242710491Y-132665279D02*
G01*
X242740869Y-132674494D01*
X242768865Y-132689458D01*
X242793403Y-132709597D01*
X242813542Y-132734135D01*
X242828506Y-132762131D01*
X242837721Y-132792509D01*
X242841800Y-132833926D01*
X242841800Y-133640074D01*
X242837721Y-133681491D01*
X242828506Y-133711869D01*
X242813542Y-133739865D01*
X242793403Y-133764403D01*
X242768865Y-133784542D01*
X242740869Y-133799506D01*
X242710491Y-133808721D01*
X242669074Y-133812800D01*
X241962926Y-133812800D01*
X241921509Y-133808721D01*
X241891131Y-133799506D01*
X241863135Y-133784542D01*
X241838597Y-133764403D01*
X241818458Y-133739865D01*
X241803494Y-133711869D01*
X241794279Y-133681491D01*
X241790200Y-133640074D01*
X241790200Y-132833926D01*
X241794279Y-132792509D01*
X241803494Y-132762131D01*
X241818458Y-132734135D01*
X241838597Y-132709597D01*
X241863135Y-132689458D01*
X241891131Y-132674494D01*
X241921509Y-132665279D01*
X241962926Y-132661200D01*
X242669074Y-132661200D01*
X242710491Y-132665279D01*
G37*
G36*
X246774491Y-132665279D02*
G01*
X246804869Y-132674494D01*
X246832865Y-132689458D01*
X246857403Y-132709597D01*
X246877542Y-132734135D01*
X246892506Y-132762131D01*
X246901721Y-132792509D01*
X246905800Y-132833926D01*
X246905800Y-133640074D01*
X246901721Y-133681491D01*
X246892506Y-133711869D01*
X246877542Y-133739865D01*
X246857403Y-133764403D01*
X246832865Y-133784542D01*
X246804869Y-133799506D01*
X246774491Y-133808721D01*
X246733074Y-133812800D01*
X246026926Y-133812800D01*
X245985509Y-133808721D01*
X245955131Y-133799506D01*
X245927135Y-133784542D01*
X245902597Y-133764403D01*
X245882458Y-133739865D01*
X245867494Y-133711869D01*
X245858279Y-133681491D01*
X245854200Y-133640074D01*
X245854200Y-132833926D01*
X245858279Y-132792509D01*
X245867494Y-132762131D01*
X245882458Y-132734135D01*
X245902597Y-132709597D01*
X245927135Y-132689458D01*
X245955131Y-132674494D01*
X245985509Y-132665279D01*
X246026926Y-132661200D01*
X246733074Y-132661200D01*
X246774491Y-132665279D01*
G37*
G36*
X240740800Y-133062800D02*
G01*
X239139200Y-133062800D01*
X239139200Y-131961200D01*
X240740800Y-131961200D01*
X240740800Y-133062800D01*
G37*
G36*
X249556800Y-133062800D02*
G01*
X247955200Y-133062800D01*
X247955200Y-131961200D01*
X249556800Y-131961200D01*
X249556800Y-133062800D01*
G37*
G36*
X254456800Y-133062800D02*
G01*
X252855200Y-133062800D01*
X252855200Y-131961200D01*
X254456800Y-131961200D01*
X254456800Y-133062800D01*
G37*
G36*
X235840800Y-133062800D02*
G01*
X234239200Y-133062800D01*
X234239200Y-131961200D01*
X235840800Y-131961200D01*
X235840800Y-133062800D01*
G37*
G36*
X218263491Y-128002279D02*
G01*
X218293869Y-128011494D01*
X218321865Y-128026458D01*
X218346403Y-128046597D01*
X218366542Y-128071135D01*
X218381506Y-128099131D01*
X218390721Y-128129509D01*
X218394800Y-128170926D01*
X218394800Y-128877074D01*
X218390721Y-128918491D01*
X218381506Y-128948869D01*
X218366542Y-128976865D01*
X218346403Y-129001403D01*
X218321865Y-129021542D01*
X218293869Y-129036506D01*
X218263491Y-129045721D01*
X218222074Y-129049800D01*
X217415926Y-129049800D01*
X217374509Y-129045721D01*
X217344131Y-129036506D01*
X217316135Y-129021542D01*
X217291597Y-129001403D01*
X217271458Y-128976865D01*
X217256494Y-128948869D01*
X217247279Y-128918491D01*
X217243200Y-128877074D01*
X217243200Y-128170926D01*
X217247279Y-128129509D01*
X217256494Y-128099131D01*
X217271458Y-128071135D01*
X217291597Y-128046597D01*
X217316135Y-128026458D01*
X217344131Y-128011494D01*
X217374509Y-128002279D01*
X217415926Y-127998200D01*
X218222074Y-127998200D01*
X218263491Y-128002279D01*
G37*
G36*
X220013491Y-128002279D02*
G01*
X220043869Y-128011494D01*
X220071865Y-128026458D01*
X220096403Y-128046597D01*
X220116542Y-128071135D01*
X220131506Y-128099131D01*
X220140721Y-128129509D01*
X220144800Y-128170926D01*
X220144800Y-128877074D01*
X220140721Y-128918491D01*
X220131506Y-128948869D01*
X220116542Y-128976865D01*
X220096403Y-129001403D01*
X220071865Y-129021542D01*
X220043869Y-129036506D01*
X220013491Y-129045721D01*
X219972074Y-129049800D01*
X219165926Y-129049800D01*
X219124509Y-129045721D01*
X219094131Y-129036506D01*
X219066135Y-129021542D01*
X219041597Y-129001403D01*
X219021458Y-128976865D01*
X219006494Y-128948869D01*
X218997279Y-128918491D01*
X218993200Y-128877074D01*
X218993200Y-128170926D01*
X218997279Y-128129509D01*
X219006494Y-128099131D01*
X219021458Y-128071135D01*
X219041597Y-128046597D01*
X219066135Y-128026458D01*
X219094131Y-128011494D01*
X219124509Y-128002279D01*
X219165926Y-127998200D01*
X219972074Y-127998200D01*
X220013491Y-128002279D01*
G37*
G36*
X221944800Y-126610800D02*
G01*
X220343200Y-126610800D01*
X220343200Y-125509200D01*
X221944800Y-125509200D01*
X221944800Y-126610800D01*
G37*
G36*
X217044800Y-126610800D02*
G01*
X215443200Y-126610800D01*
X215443200Y-125509200D01*
X217044800Y-125509200D01*
X217044800Y-126610800D01*
G37*
G36*
X235152800Y-124324800D02*
G01*
X233551200Y-124324800D01*
X233551200Y-123223200D01*
X235152800Y-123223200D01*
X235152800Y-124324800D01*
G37*
G36*
X255144800Y-124324800D02*
G01*
X253543200Y-124324800D01*
X253543200Y-123223200D01*
X255144800Y-123223200D01*
X255144800Y-124324800D01*
G37*
G36*
X230252800Y-124324800D02*
G01*
X228651200Y-124324800D01*
X228651200Y-123223200D01*
X230252800Y-123223200D01*
X230252800Y-124324800D01*
G37*
G36*
X260044800Y-124324800D02*
G01*
X258443200Y-124324800D01*
X258443200Y-123223200D01*
X260044800Y-123223200D01*
X260044800Y-124324800D01*
G37*
G36*
X237376491Y-122477279D02*
G01*
X237406869Y-122486494D01*
X237434865Y-122501458D01*
X237459403Y-122521597D01*
X237479542Y-122546135D01*
X237494506Y-122574131D01*
X237503721Y-122604509D01*
X237507800Y-122645926D01*
X237507800Y-123452074D01*
X237503721Y-123493491D01*
X237494506Y-123523869D01*
X237479542Y-123551865D01*
X237459403Y-123576403D01*
X237434865Y-123596542D01*
X237406869Y-123611506D01*
X237376491Y-123620721D01*
X237335074Y-123624800D01*
X236628926Y-123624800D01*
X236587509Y-123620721D01*
X236557131Y-123611506D01*
X236529135Y-123596542D01*
X236504597Y-123576403D01*
X236484458Y-123551865D01*
X236469494Y-123523869D01*
X236460279Y-123493491D01*
X236456200Y-123452074D01*
X236456200Y-122645926D01*
X236460279Y-122604509D01*
X236469494Y-122574131D01*
X236484458Y-122546135D01*
X236504597Y-122521597D01*
X236529135Y-122501458D01*
X236557131Y-122486494D01*
X236587509Y-122477279D01*
X236628926Y-122473200D01*
X237335074Y-122473200D01*
X237376491Y-122477279D01*
G37*
G36*
X252108491Y-122477279D02*
G01*
X252138869Y-122486494D01*
X252166865Y-122501458D01*
X252191403Y-122521597D01*
X252211542Y-122546135D01*
X252226506Y-122574131D01*
X252235721Y-122604509D01*
X252239800Y-122645926D01*
X252239800Y-123452074D01*
X252235721Y-123493491D01*
X252226506Y-123523869D01*
X252211542Y-123551865D01*
X252191403Y-123576403D01*
X252166865Y-123596542D01*
X252138869Y-123611506D01*
X252108491Y-123620721D01*
X252067074Y-123624800D01*
X251360926Y-123624800D01*
X251319509Y-123620721D01*
X251289131Y-123611506D01*
X251261135Y-123596542D01*
X251236597Y-123576403D01*
X251216458Y-123551865D01*
X251201494Y-123523869D01*
X251192279Y-123493491D01*
X251188200Y-123452074D01*
X251188200Y-122645926D01*
X251192279Y-122604509D01*
X251201494Y-122574131D01*
X251216458Y-122546135D01*
X251236597Y-122521597D01*
X251261135Y-122501458D01*
X251289131Y-122486494D01*
X251319509Y-122477279D01*
X251360926Y-122473200D01*
X252067074Y-122473200D01*
X252108491Y-122477279D01*
G37*
G36*
X221944800Y-123410800D02*
G01*
X220343200Y-123410800D01*
X220343200Y-122309200D01*
X221944800Y-122309200D01*
X221944800Y-123410800D01*
G37*
G36*
X217044800Y-123410800D02*
G01*
X215443200Y-123410800D01*
X215443200Y-122309200D01*
X217044800Y-122309200D01*
X217044800Y-123410800D01*
G37*
G36*
X252108491Y-120727279D02*
G01*
X252138869Y-120736494D01*
X252166865Y-120751458D01*
X252191403Y-120771597D01*
X252211542Y-120796135D01*
X252226506Y-120824131D01*
X252235721Y-120854509D01*
X252239800Y-120895926D01*
X252239800Y-121702074D01*
X252235721Y-121743491D01*
X252226506Y-121773869D01*
X252211542Y-121801865D01*
X252191403Y-121826403D01*
X252166865Y-121846542D01*
X252138869Y-121861506D01*
X252108491Y-121870721D01*
X252067074Y-121874800D01*
X251360926Y-121874800D01*
X251319509Y-121870721D01*
X251289131Y-121861506D01*
X251261135Y-121846542D01*
X251236597Y-121826403D01*
X251216458Y-121801865D01*
X251201494Y-121773869D01*
X251192279Y-121743491D01*
X251188200Y-121702074D01*
X251188200Y-120895926D01*
X251192279Y-120854509D01*
X251201494Y-120824131D01*
X251216458Y-120796135D01*
X251236597Y-120771597D01*
X251261135Y-120751458D01*
X251289131Y-120736494D01*
X251319509Y-120727279D01*
X251360926Y-120723200D01*
X252067074Y-120723200D01*
X252108491Y-120727279D01*
G37*
G36*
X237376491Y-120727279D02*
G01*
X237406869Y-120736494D01*
X237434865Y-120751458D01*
X237459403Y-120771597D01*
X237479542Y-120796135D01*
X237494506Y-120824131D01*
X237503721Y-120854509D01*
X237507800Y-120895926D01*
X237507800Y-121702074D01*
X237503721Y-121743491D01*
X237494506Y-121773869D01*
X237479542Y-121801865D01*
X237459403Y-121826403D01*
X237434865Y-121846542D01*
X237406869Y-121861506D01*
X237376491Y-121870721D01*
X237335074Y-121874800D01*
X236628926Y-121874800D01*
X236587509Y-121870721D01*
X236557131Y-121861506D01*
X236529135Y-121846542D01*
X236504597Y-121826403D01*
X236484458Y-121801865D01*
X236469494Y-121773869D01*
X236460279Y-121743491D01*
X236456200Y-121702074D01*
X236456200Y-120895926D01*
X236460279Y-120854509D01*
X236469494Y-120824131D01*
X236484458Y-120796135D01*
X236504597Y-120771597D01*
X236529135Y-120751458D01*
X236557131Y-120736494D01*
X236587509Y-120727279D01*
X236628926Y-120723200D01*
X237335074Y-120723200D01*
X237376491Y-120727279D01*
G37*
G36*
X242070754Y-120037817D02*
G01*
X242234689Y-120105721D01*
X242382227Y-120204303D01*
X242507697Y-120329773D01*
X242606279Y-120477311D01*
X242674183Y-120641246D01*
X242708800Y-120815279D01*
X242708800Y-120992721D01*
X242674183Y-121166754D01*
X242606279Y-121330689D01*
X242507697Y-121478227D01*
X242382227Y-121603697D01*
X242234689Y-121702279D01*
X242070754Y-121770183D01*
X241896721Y-121804800D01*
X241719279Y-121804800D01*
X241545246Y-121770183D01*
X241381311Y-121702279D01*
X241233773Y-121603697D01*
X241108303Y-121478227D01*
X241009721Y-121330689D01*
X240941817Y-121166754D01*
X240907200Y-120992721D01*
X240907200Y-120815279D01*
X240941817Y-120641246D01*
X241009721Y-120477311D01*
X241108303Y-120329773D01*
X241233773Y-120204303D01*
X241381311Y-120105721D01*
X241545246Y-120037817D01*
X241719279Y-120003200D01*
X241896721Y-120003200D01*
X242070754Y-120037817D01*
G37*
G36*
X247788800Y-121804800D02*
G01*
X245987200Y-121804800D01*
X245987200Y-120003200D01*
X247788800Y-120003200D01*
X247788800Y-121804800D01*
G37*
G36*
X244610754Y-120037817D02*
G01*
X244774689Y-120105721D01*
X244922227Y-120204303D01*
X245047697Y-120329773D01*
X245146279Y-120477311D01*
X245214183Y-120641246D01*
X245248800Y-120815279D01*
X245248800Y-120992721D01*
X245214183Y-121166754D01*
X245146279Y-121330689D01*
X245047697Y-121478227D01*
X244922227Y-121603697D01*
X244774689Y-121702279D01*
X244610754Y-121770183D01*
X244436721Y-121804800D01*
X244259279Y-121804800D01*
X244085246Y-121770183D01*
X243921311Y-121702279D01*
X243773773Y-121603697D01*
X243648303Y-121478227D01*
X243549721Y-121330689D01*
X243481817Y-121166754D01*
X243447200Y-120992721D01*
X243447200Y-120815279D01*
X243481817Y-120641246D01*
X243549721Y-120477311D01*
X243648303Y-120329773D01*
X243773773Y-120204303D01*
X243921311Y-120105721D01*
X244085246Y-120037817D01*
X244259279Y-120003200D01*
X244436721Y-120003200D01*
X244610754Y-120037817D01*
G37*
G36*
X235152800Y-121124800D02*
G01*
X233551200Y-121124800D01*
X233551200Y-120023200D01*
X235152800Y-120023200D01*
X235152800Y-121124800D01*
G37*
G36*
X260044800Y-121124800D02*
G01*
X258443200Y-121124800D01*
X258443200Y-120023200D01*
X260044800Y-120023200D01*
X260044800Y-121124800D01*
G37*
G36*
X230252800Y-121124800D02*
G01*
X228651200Y-121124800D01*
X228651200Y-120023200D01*
X230252800Y-120023200D01*
X230252800Y-121124800D01*
G37*
G36*
X255144800Y-121124800D02*
G01*
X253543200Y-121124800D01*
X253543200Y-120023200D01*
X255144800Y-120023200D01*
X255144800Y-121124800D01*
G37*
M02*
